ISO-10303-21;
HEADER;
/* Generated by software containing ST-Developer
 * from STEP Tools, Inc. (www.steptools.com) 
 */
/* OPTION: using custom renumber hook */

FILE_DESCRIPTION(
/* description */ ('STEP AP242 Edition 2',
'CAx-IF Rec.Pracs.---Representation and Presentation of Product Manufa
cturing Information (PMI)---4.0---2014-10-13',
'CAx-IF Rec.Pracs.---3D Tessellated Geometry---0.4---2014-09-14','2;1',
'CAx-IF Rec.Pracs.---User Defined Attributes---1.5---2016-08-15'),
/* implementation_level */ '2;1');

FILE_NAME(
/* name */ 'Part Studio 1 - Case Base',
/* time_stamp */ '2026-09-26T16:29:39Z',
/* author */ (''),
/* organization */ (''),
/* preprocessor_version */ 'ST-DEVELOPER v20',
/* originating_system */ 'ONSHAPE BY PTC INC, 1.221',
/* authorisation */ '  ');

FILE_SCHEMA (('AP242_MANAGED_MODEL_BASED_3D_ENGINEERING_MIM_LF { 1 0 10303 442 3 1 4 }'));
ENDSEC;

DATA;
#10=SHAPE_REPRESENTATION_RELATIONSHIP('','',#633,#11);
#11=ADVANCED_BREP_SHAPE_REPRESENTATION('',(#631),#1099);
#12=TOROIDAL_SURFACE('',#668,0.002,0.0014);
#13=TOROIDAL_SURFACE('',#670,0.002,0.0014);
#14=TOROIDAL_SURFACE('',#676,0.002,0.0014);
#15=TOROIDAL_SURFACE('',#678,0.002,0.0014);
#16=CYLINDRICAL_SURFACE('',#657,0.0034);
#17=CYLINDRICAL_SURFACE('',#659,0.0034);
#18=CYLINDRICAL_SURFACE('',#661,0.0034);
#19=CYLINDRICAL_SURFACE('',#663,0.0034);
#20=CYLINDRICAL_SURFACE('',#665,0.0014);
#21=CYLINDRICAL_SURFACE('',#672,0.0014);
#22=CYLINDRICAL_SURFACE('',#674,0.0014);
#23=CYLINDRICAL_SURFACE('',#680,0.0014);
#24=CYLINDRICAL_SURFACE('',#694,0.001);
#25=CYLINDRICAL_SURFACE('',#695,0.001);
#26=CYLINDRICAL_SURFACE('',#696,0.001);
#27=CYLINDRICAL_SURFACE('',#697,0.001);
#28=CYLINDRICAL_SURFACE('',#698,0.0035);
#29=CYLINDRICAL_SURFACE('',#702,0.0035);
#30=CYLINDRICAL_SURFACE('',#706,0.0035);
#31=CYLINDRICAL_SURFACE('',#710,0.0035);
#32=CYLINDRICAL_SURFACE('',#714,0.0017);
#33=CYLINDRICAL_SURFACE('',#715,0.0017);
#34=CYLINDRICAL_SURFACE('',#716,0.0017);
#35=CYLINDRICAL_SURFACE('',#717,0.0017);
#36=CIRCLE('',#640,0.001);
#37=CIRCLE('',#641,0.001);
#38=CIRCLE('',#642,0.001);
#39=CIRCLE('',#643,0.001);
#40=CIRCLE('',#644,0.0034);
#41=CIRCLE('',#645,0.0034);
#42=CIRCLE('',#646,0.0034);
#43=CIRCLE('',#647,0.0034);
#44=CIRCLE('',#649,0.0017);
#45=CIRCLE('',#650,0.0017);
#46=CIRCLE('',#651,0.0017);
#47=CIRCLE('',#652,0.0017);
#48=CIRCLE('',#653,0.002);
#49=CIRCLE('',#654,0.002);
#50=CIRCLE('',#655,0.002);
#51=CIRCLE('',#656,0.002);
#52=CIRCLE('',#658,0.0034);
#53=CIRCLE('',#660,0.0034);
#54=CIRCLE('',#662,0.0034);
#55=CIRCLE('',#664,0.0034);
#56=CIRCLE('',#666,0.0014);
#57=CIRCLE('',#667,0.0014);
#58=CIRCLE('',#669,0.0014);
#59=CIRCLE('',#671,0.0014);
#60=CIRCLE('',#673,0.0014);
#61=CIRCLE('',#675,0.0014);
#62=CIRCLE('',#677,0.0014);
#63=CIRCLE('',#679,0.0014);
#64=CIRCLE('',#686,0.0035);
#65=CIRCLE('',#687,0.0035);
#66=CIRCLE('',#688,0.0035);
#67=CIRCLE('',#689,0.0035);
#68=CIRCLE('',#690,0.001);
#69=CIRCLE('',#691,0.001);
#70=CIRCLE('',#692,0.001);
#71=CIRCLE('',#693,0.001);
#72=CIRCLE('',#699,0.0035);
#73=CIRCLE('',#701,0.0017);
#74=CIRCLE('',#703,0.0035);
#75=CIRCLE('',#705,0.0017);
#76=CIRCLE('',#707,0.0035);
#77=CIRCLE('',#709,0.0017);
#78=CIRCLE('',#711,0.0035);
#79=CIRCLE('',#713,0.0017);
#80=ORIENTED_EDGE('',*,*,#240,.T.);
#81=ORIENTED_EDGE('',*,*,#241,.T.);
#82=ORIENTED_EDGE('',*,*,#242,.T.);
#83=ORIENTED_EDGE('',*,*,#243,.T.);
#84=ORIENTED_EDGE('',*,*,#244,.T.);
#85=ORIENTED_EDGE('',*,*,#245,.T.);
#86=ORIENTED_EDGE('',*,*,#246,.T.);
#87=ORIENTED_EDGE('',*,*,#247,.F.);
#88=ORIENTED_EDGE('',*,*,#248,.T.);
#89=ORIENTED_EDGE('',*,*,#249,.T.);
#90=ORIENTED_EDGE('',*,*,#250,.T.);
#91=ORIENTED_EDGE('',*,*,#251,.F.);
#92=ORIENTED_EDGE('',*,*,#252,.T.);
#93=ORIENTED_EDGE('',*,*,#253,.T.);
#94=ORIENTED_EDGE('',*,*,#254,.T.);
#95=ORIENTED_EDGE('',*,*,#255,.T.);
#96=ORIENTED_EDGE('',*,*,#256,.F.);
#97=ORIENTED_EDGE('',*,*,#257,.T.);
#98=ORIENTED_EDGE('',*,*,#258,.F.);
#99=ORIENTED_EDGE('',*,*,#259,.T.);
#100=ORIENTED_EDGE('',*,*,#260,.F.);
#101=ORIENTED_EDGE('',*,*,#261,.F.);
#102=ORIENTED_EDGE('',*,*,#262,.F.);
#103=ORIENTED_EDGE('',*,*,#263,.F.);
#104=ORIENTED_EDGE('',*,*,#251,.T.);
#105=ORIENTED_EDGE('',*,*,#264,.T.);
#106=ORIENTED_EDGE('',*,*,#255,.F.);
#107=ORIENTED_EDGE('',*,*,#265,.T.);
#108=ORIENTED_EDGE('',*,*,#243,.F.);
#109=ORIENTED_EDGE('',*,*,#266,.T.);
#110=ORIENTED_EDGE('',*,*,#247,.T.);
#111=ORIENTED_EDGE('',*,*,#267,.T.);
#112=ORIENTED_EDGE('',*,*,#268,.F.);
#113=ORIENTED_EDGE('',*,*,#269,.F.);
#114=ORIENTED_EDGE('',*,*,#270,.F.);
#115=ORIENTED_EDGE('',*,*,#271,.F.);
#116=ORIENTED_EDGE('',*,*,#272,.T.);
#117=ORIENTED_EDGE('',*,*,#273,.T.);
#118=ORIENTED_EDGE('',*,*,#274,.T.);
#119=ORIENTED_EDGE('',*,*,#275,.T.);
#120=ORIENTED_EDGE('',*,*,#276,.T.);
#121=ORIENTED_EDGE('',*,*,#277,.T.);
#122=ORIENTED_EDGE('',*,*,#278,.T.);
#123=ORIENTED_EDGE('',*,*,#279,.T.);
#124=ORIENTED_EDGE('',*,*,#250,.F.);
#125=ORIENTED_EDGE('',*,*,#280,.T.);
#126=ORIENTED_EDGE('',*,*,#252,.F.);
#127=ORIENTED_EDGE('',*,*,#264,.F.);
#128=ORIENTED_EDGE('',*,*,#246,.F.);
#129=ORIENTED_EDGE('',*,*,#281,.T.);
#130=ORIENTED_EDGE('',*,*,#248,.F.);
#131=ORIENTED_EDGE('',*,*,#267,.F.);
#132=ORIENTED_EDGE('',*,*,#254,.F.);
#133=ORIENTED_EDGE('',*,*,#282,.T.);
#134=ORIENTED_EDGE('',*,*,#240,.F.);
#135=ORIENTED_EDGE('',*,*,#265,.F.);
#136=ORIENTED_EDGE('',*,*,#242,.F.);
#137=ORIENTED_EDGE('',*,*,#283,.T.);
#138=ORIENTED_EDGE('',*,*,#244,.F.);
#139=ORIENTED_EDGE('',*,*,#266,.F.);
#140=ORIENTED_EDGE('',*,*,#284,.F.);
#141=ORIENTED_EDGE('',*,*,#245,.F.);
#142=ORIENTED_EDGE('',*,*,#285,.F.);
#143=ORIENTED_EDGE('',*,*,#276,.F.);
#144=ORIENTED_EDGE('',*,*,#285,.T.);
#145=ORIENTED_EDGE('',*,*,#283,.F.);
#146=ORIENTED_EDGE('',*,*,#286,.F.);
#147=ORIENTED_EDGE('',*,*,#277,.F.);
#148=ORIENTED_EDGE('',*,*,#284,.T.);
#149=ORIENTED_EDGE('',*,*,#275,.F.);
#150=ORIENTED_EDGE('',*,*,#287,.F.);
#151=ORIENTED_EDGE('',*,*,#281,.F.);
#152=ORIENTED_EDGE('',*,*,#286,.T.);
#153=ORIENTED_EDGE('',*,*,#241,.F.);
#154=ORIENTED_EDGE('',*,*,#288,.F.);
#155=ORIENTED_EDGE('',*,*,#278,.F.);
#156=ORIENTED_EDGE('',*,*,#287,.T.);
#157=ORIENTED_EDGE('',*,*,#274,.F.);
#158=ORIENTED_EDGE('',*,*,#289,.F.);
#159=ORIENTED_EDGE('',*,*,#249,.F.);
#160=ORIENTED_EDGE('',*,*,#288,.T.);
#161=ORIENTED_EDGE('',*,*,#282,.F.);
#162=ORIENTED_EDGE('',*,*,#290,.F.);
#163=ORIENTED_EDGE('',*,*,#279,.F.);
#164=ORIENTED_EDGE('',*,*,#289,.T.);
#165=ORIENTED_EDGE('',*,*,#273,.F.);
#166=ORIENTED_EDGE('',*,*,#291,.F.);
#167=ORIENTED_EDGE('',*,*,#280,.F.);
#168=ORIENTED_EDGE('',*,*,#290,.T.);
#169=ORIENTED_EDGE('',*,*,#253,.F.);
#170=ORIENTED_EDGE('',*,*,#291,.T.);
#171=ORIENTED_EDGE('',*,*,#272,.F.);
#172=ORIENTED_EDGE('',*,*,#261,.T.);
#173=ORIENTED_EDGE('',*,*,#292,.F.);
#174=ORIENTED_EDGE('',*,*,#293,.T.);
#175=ORIENTED_EDGE('',*,*,#294,.F.);
#176=ORIENTED_EDGE('',*,*,#295,.F.);
#177=ORIENTED_EDGE('',*,*,#296,.F.);
#178=ORIENTED_EDGE('',*,*,#297,.F.);
#179=ORIENTED_EDGE('',*,*,#259,.F.);
#180=ORIENTED_EDGE('',*,*,#298,.F.);
#181=ORIENTED_EDGE('',*,*,#299,.F.);
#182=ORIENTED_EDGE('',*,*,#300,.F.);
#183=ORIENTED_EDGE('',*,*,#257,.F.);
#184=ORIENTED_EDGE('',*,*,#263,.T.);
#185=ORIENTED_EDGE('',*,*,#301,.F.);
#186=ORIENTED_EDGE('',*,*,#302,.T.);
#187=ORIENTED_EDGE('',*,*,#303,.F.);
#188=ORIENTED_EDGE('',*,*,#304,.T.);
#189=ORIENTED_EDGE('',*,*,#305,.T.);
#190=ORIENTED_EDGE('',*,*,#306,.T.);
#191=ORIENTED_EDGE('',*,*,#307,.T.);
#192=ORIENTED_EDGE('',*,*,#302,.F.);
#193=ORIENTED_EDGE('',*,*,#308,.F.);
#194=ORIENTED_EDGE('',*,*,#293,.F.);
#195=ORIENTED_EDGE('',*,*,#309,.F.);
#196=ORIENTED_EDGE('',*,*,#296,.T.);
#197=ORIENTED_EDGE('',*,*,#310,.F.);
#198=ORIENTED_EDGE('',*,*,#299,.T.);
#199=ORIENTED_EDGE('',*,*,#311,.F.);
#200=ORIENTED_EDGE('',*,*,#256,.T.);
#201=ORIENTED_EDGE('',*,*,#303,.T.);
#202=ORIENTED_EDGE('',*,*,#311,.T.);
#203=ORIENTED_EDGE('',*,*,#298,.T.);
#204=ORIENTED_EDGE('',*,*,#258,.T.);
#205=ORIENTED_EDGE('',*,*,#300,.T.);
#206=ORIENTED_EDGE('',*,*,#310,.T.);
#207=ORIENTED_EDGE('',*,*,#295,.T.);
#208=ORIENTED_EDGE('',*,*,#262,.T.);
#209=ORIENTED_EDGE('',*,*,#294,.T.);
#210=ORIENTED_EDGE('',*,*,#308,.T.);
#211=ORIENTED_EDGE('',*,*,#301,.T.);
#212=ORIENTED_EDGE('',*,*,#260,.T.);
#213=ORIENTED_EDGE('',*,*,#297,.T.);
#214=ORIENTED_EDGE('',*,*,#309,.T.);
#215=ORIENTED_EDGE('',*,*,#292,.T.);
#216=ORIENTED_EDGE('',*,*,#307,.F.);
#217=ORIENTED_EDGE('',*,*,#312,.F.);
#218=ORIENTED_EDGE('',*,*,#313,.T.);
#219=ORIENTED_EDGE('',*,*,#312,.T.);
#220=ORIENTED_EDGE('',*,*,#306,.F.);
#221=ORIENTED_EDGE('',*,*,#314,.F.);
#222=ORIENTED_EDGE('',*,*,#315,.T.);
#223=ORIENTED_EDGE('',*,*,#314,.T.);
#224=ORIENTED_EDGE('',*,*,#305,.F.);
#225=ORIENTED_EDGE('',*,*,#316,.F.);
#226=ORIENTED_EDGE('',*,*,#317,.T.);
#227=ORIENTED_EDGE('',*,*,#316,.T.);
#228=ORIENTED_EDGE('',*,*,#304,.F.);
#229=ORIENTED_EDGE('',*,*,#318,.F.);
#230=ORIENTED_EDGE('',*,*,#319,.T.);
#231=ORIENTED_EDGE('',*,*,#318,.T.);
#232=ORIENTED_EDGE('',*,*,#319,.F.);
#233=ORIENTED_EDGE('',*,*,#268,.T.);
#234=ORIENTED_EDGE('',*,*,#317,.F.);
#235=ORIENTED_EDGE('',*,*,#269,.T.);
#236=ORIENTED_EDGE('',*,*,#315,.F.);
#237=ORIENTED_EDGE('',*,*,#270,.T.);
#238=ORIENTED_EDGE('',*,*,#313,.F.);
#239=ORIENTED_EDGE('',*,*,#271,.T.);
#240=EDGE_CURVE('',#320,#321,#376,.T.);
#241=EDGE_CURVE('',#321,#322,#377,.F.);
#242=EDGE_CURVE('',#322,#323,#378,.F.);
#243=EDGE_CURVE('',#323,#320,#379,.T.);
#244=EDGE_CURVE('',#324,#325,#380,.T.);
#245=EDGE_CURVE('',#325,#326,#381,.T.);
#246=EDGE_CURVE('',#326,#327,#382,.F.);
#247=EDGE_CURVE('',#324,#327,#383,.T.);
#248=EDGE_CURVE('',#328,#329,#384,.T.);
#249=EDGE_CURVE('',#329,#330,#385,.T.);
#250=EDGE_CURVE('',#330,#331,#386,.F.);
#251=EDGE_CURVE('',#328,#331,#387,.T.);
#252=EDGE_CURVE('',#332,#333,#388,.T.);
#253=EDGE_CURVE('',#333,#334,#389,.F.);
#254=EDGE_CURVE('',#334,#335,#390,.F.);
#255=EDGE_CURVE('',#335,#332,#391,.T.);
#256=EDGE_CURVE('',#336,#337,#36,.T.);
#257=EDGE_CURVE('',#336,#338,#392,.T.);
#258=EDGE_CURVE('',#339,#338,#37,.T.);
#259=EDGE_CURVE('',#339,#340,#393,.T.);
#260=EDGE_CURVE('',#341,#340,#38,.T.);
#261=EDGE_CURVE('',#342,#341,#394,.T.);
#262=EDGE_CURVE('',#343,#342,#39,.T.);
#263=EDGE_CURVE('',#337,#343,#395,.T.);
#264=EDGE_CURVE('',#331,#332,#40,.T.);
#265=EDGE_CURVE('',#335,#320,#41,.T.);
#266=EDGE_CURVE('',#323,#324,#42,.T.);
#267=EDGE_CURVE('',#327,#328,#43,.T.);
#268=EDGE_CURVE('',#344,#344,#44,.F.);
#269=EDGE_CURVE('',#345,#345,#45,.F.);
#270=EDGE_CURVE('',#346,#346,#46,.F.);
#271=EDGE_CURVE('',#347,#347,#47,.F.);
#272=EDGE_CURVE('',#348,#349,#396,.T.);
#273=EDGE_CURVE('',#349,#350,#48,.F.);
#274=EDGE_CURVE('',#350,#351,#397,.F.);
#275=EDGE_CURVE('',#351,#352,#49,.F.);
#276=EDGE_CURVE('',#352,#353,#398,.F.);
#277=EDGE_CURVE('',#353,#354,#50,.F.);
#278=EDGE_CURVE('',#354,#355,#399,.T.);
#279=EDGE_CURVE('',#355,#348,#51,.F.);
#280=EDGE_CURVE('',#330,#333,#52,.T.);
#281=EDGE_CURVE('',#326,#329,#53,.T.);
#282=EDGE_CURVE('',#334,#321,#54,.T.);
#283=EDGE_CURVE('',#322,#325,#55,.T.);
#284=EDGE_CURVE('',#326,#352,#56,.T.);
#285=EDGE_CURVE('',#353,#325,#57,.T.);
#286=EDGE_CURVE('',#354,#322,#58,.T.);
#287=EDGE_CURVE('',#329,#351,#59,.T.);
#288=EDGE_CURVE('',#355,#321,#60,.T.);
#289=EDGE_CURVE('',#330,#350,#61,.T.);
#290=EDGE_CURVE('',#348,#334,#62,.T.);
#291=EDGE_CURVE('',#333,#349,#63,.T.);
#292=EDGE_CURVE('',#356,#341,#400,.F.);
#293=EDGE_CURVE('',#356,#357,#401,.T.);
#294=EDGE_CURVE('',#342,#357,#402,.T.);
#295=EDGE_CURVE('',#358,#339,#403,.F.);
#296=EDGE_CURVE('',#359,#358,#404,.T.);
#297=EDGE_CURVE('',#340,#359,#405,.T.);
#298=EDGE_CURVE('',#360,#336,#406,.F.);
#299=EDGE_CURVE('',#361,#360,#407,.T.);
#300=EDGE_CURVE('',#338,#361,#408,.T.);
#301=EDGE_CURVE('',#362,#343,#409,.F.);
#302=EDGE_CURVE('',#362,#363,#410,.T.);
#303=EDGE_CURVE('',#337,#363,#411,.T.);
#304=EDGE_CURVE('',#364,#364,#64,.F.);
#305=EDGE_CURVE('',#365,#365,#65,.F.);
#306=EDGE_CURVE('',#366,#366,#66,.F.);
#307=EDGE_CURVE('',#367,#367,#67,.F.);
#308=EDGE_CURVE('',#357,#362,#68,.F.);
#309=EDGE_CURVE('',#359,#356,#69,.F.);
#310=EDGE_CURVE('',#361,#358,#70,.F.);
#311=EDGE_CURVE('',#363,#360,#71,.F.);
#312=EDGE_CURVE('',#368,#368,#72,.T.);
#313=EDGE_CURVE('',#369,#369,#73,.F.);
#314=EDGE_CURVE('',#370,#370,#74,.T.);
#315=EDGE_CURVE('',#371,#371,#75,.F.);
#316=EDGE_CURVE('',#372,#372,#76,.T.);
#317=EDGE_CURVE('',#373,#373,#77,.F.);
#318=EDGE_CURVE('',#374,#374,#78,.T.);
#319=EDGE_CURVE('',#375,#375,#79,.F.);
#320=VERTEX_POINT('',#925);
#321=VERTEX_POINT('',#926);
#322=VERTEX_POINT('',#928);
#323=VERTEX_POINT('',#930);
#324=VERTEX_POINT('',#934);
#325=VERTEX_POINT('',#935);
#326=VERTEX_POINT('',#937);
#327=VERTEX_POINT('',#939);
#328=VERTEX_POINT('',#943);
#329=VERTEX_POINT('',#944);
#330=VERTEX_POINT('',#946);
#331=VERTEX_POINT('',#948);
#332=VERTEX_POINT('',#952);
#333=VERTEX_POINT('',#953);
#334=VERTEX_POINT('',#955);
#335=VERTEX_POINT('',#957);
#336=VERTEX_POINT('',#961);
#337=VERTEX_POINT('',#962);
#338=VERTEX_POINT('',#964);
#339=VERTEX_POINT('',#966);
#340=VERTEX_POINT('',#968);
#341=VERTEX_POINT('',#970);
#342=VERTEX_POINT('',#972);
#343=VERTEX_POINT('',#974);
#344=VERTEX_POINT('',#982);
#345=VERTEX_POINT('',#984);
#346=VERTEX_POINT('',#986);
#347=VERTEX_POINT('',#988);
#348=VERTEX_POINT('',#990);
#349=VERTEX_POINT('',#991);
#350=VERTEX_POINT('',#993);
#351=VERTEX_POINT('',#995);
#352=VERTEX_POINT('',#997);
#353=VERTEX_POINT('',#999);
#354=VERTEX_POINT('',#1001);
#355=VERTEX_POINT('',#1003);
#356=VERTEX_POINT('',#1031);
#357=VERTEX_POINT('',#1033);
#358=VERTEX_POINT('',#1037);
#359=VERTEX_POINT('',#1039);
#360=VERTEX_POINT('',#1043);
#361=VERTEX_POINT('',#1045);
#362=VERTEX_POINT('',#1049);
#363=VERTEX_POINT('',#1051);
#364=VERTEX_POINT('',#1055);
#365=VERTEX_POINT('',#1057);
#366=VERTEX_POINT('',#1059);
#367=VERTEX_POINT('',#1061);
#368=VERTEX_POINT('',#1072);
#369=VERTEX_POINT('',#1075);
#370=VERTEX_POINT('',#1078);
#371=VERTEX_POINT('',#1081);
#372=VERTEX_POINT('',#1084);
#373=VERTEX_POINT('',#1087);
#374=VERTEX_POINT('',#1090);
#375=VERTEX_POINT('',#1093);
#376=LINE('',#924,#412);
#377=LINE('',#927,#413);
#378=LINE('',#929,#414);
#379=LINE('',#931,#415);
#380=LINE('',#933,#416);
#381=LINE('',#936,#417);
#382=LINE('',#938,#418);
#383=LINE('',#940,#419);
#384=LINE('',#942,#420);
#385=LINE('',#945,#421);
#386=LINE('',#947,#422);
#387=LINE('',#949,#423);
#388=LINE('',#951,#424);
#389=LINE('',#954,#425);
#390=LINE('',#956,#426);
#391=LINE('',#958,#427);
#392=LINE('',#963,#428);
#393=LINE('',#967,#429);
#394=LINE('',#971,#430);
#395=LINE('',#975,#431);
#396=LINE('',#989,#432);
#397=LINE('',#994,#433);
#398=LINE('',#998,#434);
#399=LINE('',#1002,#435);
#400=LINE('',#1030,#436);
#401=LINE('',#1032,#437);
#402=LINE('',#1034,#438);
#403=LINE('',#1036,#439);
#404=LINE('',#1038,#440);
#405=LINE('',#1040,#441);
#406=LINE('',#1042,#442);
#407=LINE('',#1044,#443);
#408=LINE('',#1046,#444);
#409=LINE('',#1048,#445);
#410=LINE('',#1050,#446);
#411=LINE('',#1052,#447);
#412=VECTOR('',#722,1.);
#413=VECTOR('',#723,1.);
#414=VECTOR('',#724,1.);
#415=VECTOR('',#725,1.);
#416=VECTOR('',#728,1.);
#417=VECTOR('',#729,1.);
#418=VECTOR('',#730,1.);
#419=VECTOR('',#731,1.);
#420=VECTOR('',#734,1.);
#421=VECTOR('',#735,1.);
#422=VECTOR('',#736,1.);
#423=VECTOR('',#737,1.);
#424=VECTOR('',#740,1.);
#425=VECTOR('',#741,1.);
#426=VECTOR('',#742,1.);
#427=VECTOR('',#743,1.);
#428=VECTOR('',#748,1.);
#429=VECTOR('',#751,1.);
#430=VECTOR('',#754,1.);
#431=VECTOR('',#757,1.);
#432=VECTOR('',#776,1.);
#433=VECTOR('',#779,1.);
#434=VECTOR('',#782,1.);
#435=VECTOR('',#785,1.);
#436=VECTOR('',#838,1.);
#437=VECTOR('',#839,1.);
#438=VECTOR('',#840,1.);
#439=VECTOR('',#843,1.);
#440=VECTOR('',#844,1.);
#441=VECTOR('',#845,1.);
#442=VECTOR('',#848,1.);
#443=VECTOR('',#849,1.);
#444=VECTOR('',#850,1.);
#445=VECTOR('',#853,1.);
#446=VECTOR('',#854,1.);
#447=VECTOR('',#855,1.);
#448=EDGE_LOOP('',(#80,#81,#82,#83));
#449=EDGE_LOOP('',(#84,#85,#86,#87));
#450=EDGE_LOOP('',(#88,#89,#90,#91));
#451=EDGE_LOOP('',(#92,#93,#94,#95));
#452=EDGE_LOOP('',(#96,#97,#98,#99,#100,#101,#102,#103));
#453=EDGE_LOOP('',(#104,#105,#106,#107,#108,#109,#110,#111));
#454=EDGE_LOOP('',(#112));
#455=EDGE_LOOP('',(#113));
#456=EDGE_LOOP('',(#114));
#457=EDGE_LOOP('',(#115));
#458=EDGE_LOOP('',(#116,#117,#118,#119,#120,#121,#122,#123));
#459=EDGE_LOOP('',(#124,#125,#126,#127));
#460=EDGE_LOOP('',(#128,#129,#130,#131));
#461=EDGE_LOOP('',(#132,#133,#134,#135));
#462=EDGE_LOOP('',(#136,#137,#138,#139));
#463=EDGE_LOOP('',(#140,#141,#142,#143));
#464=EDGE_LOOP('',(#144,#145,#146,#147));
#465=EDGE_LOOP('',(#148,#149,#150,#151));
#466=EDGE_LOOP('',(#152,#153,#154,#155));
#467=EDGE_LOOP('',(#156,#157,#158,#159));
#468=EDGE_LOOP('',(#160,#161,#162,#163));
#469=EDGE_LOOP('',(#164,#165,#166,#167));
#470=EDGE_LOOP('',(#168,#169,#170,#171));
#471=EDGE_LOOP('',(#172,#173,#174,#175));
#472=EDGE_LOOP('',(#176,#177,#178,#179));
#473=EDGE_LOOP('',(#180,#181,#182,#183));
#474=EDGE_LOOP('',(#184,#185,#186,#187));
#475=EDGE_LOOP('',(#188));
#476=EDGE_LOOP('',(#189));
#477=EDGE_LOOP('',(#190));
#478=EDGE_LOOP('',(#191));
#479=EDGE_LOOP('',(#192,#193,#194,#195,#196,#197,#198,#199));
#480=EDGE_LOOP('',(#200,#201,#202,#203));
#481=EDGE_LOOP('',(#204,#205,#206,#207));
#482=EDGE_LOOP('',(#208,#209,#210,#211));
#483=EDGE_LOOP('',(#212,#213,#214,#215));
#484=EDGE_LOOP('',(#216));
#485=EDGE_LOOP('',(#217));
#486=EDGE_LOOP('',(#218));
#487=EDGE_LOOP('',(#219));
#488=EDGE_LOOP('',(#220));
#489=EDGE_LOOP('',(#221));
#490=EDGE_LOOP('',(#222));
#491=EDGE_LOOP('',(#223));
#492=EDGE_LOOP('',(#224));
#493=EDGE_LOOP('',(#225));
#494=EDGE_LOOP('',(#226));
#495=EDGE_LOOP('',(#227));
#496=EDGE_LOOP('',(#228));
#497=EDGE_LOOP('',(#229));
#498=EDGE_LOOP('',(#230));
#499=EDGE_LOOP('',(#231));
#500=EDGE_LOOP('',(#232));
#501=EDGE_LOOP('',(#233));
#502=EDGE_LOOP('',(#234));
#503=EDGE_LOOP('',(#235));
#504=EDGE_LOOP('',(#236));
#505=EDGE_LOOP('',(#237));
#506=EDGE_LOOP('',(#238));
#507=EDGE_LOOP('',(#239));
#508=FACE_BOUND('',#448,.T.);
#509=FACE_BOUND('',#449,.T.);
#510=FACE_BOUND('',#450,.T.);
#511=FACE_BOUND('',#451,.T.);
#512=FACE_BOUND('',#452,.T.);
#513=FACE_BOUND('',#453,.T.);
#514=FACE_BOUND('',#454,.T.);
#515=FACE_BOUND('',#455,.T.);
#516=FACE_BOUND('',#456,.T.);
#517=FACE_BOUND('',#457,.T.);
#518=FACE_BOUND('',#458,.T.);
#519=FACE_BOUND('',#459,.T.);
#520=FACE_BOUND('',#460,.T.);
#521=FACE_BOUND('',#461,.T.);
#522=FACE_BOUND('',#462,.T.);
#523=FACE_BOUND('',#463,.T.);
#524=FACE_BOUND('',#464,.T.);
#525=FACE_BOUND('',#465,.T.);
#526=FACE_BOUND('',#466,.T.);
#527=FACE_BOUND('',#467,.T.);
#528=FACE_BOUND('',#468,.T.);
#529=FACE_BOUND('',#469,.T.);
#530=FACE_BOUND('',#470,.T.);
#531=FACE_BOUND('',#471,.T.);
#532=FACE_BOUND('',#472,.T.);
#533=FACE_BOUND('',#473,.T.);
#534=FACE_BOUND('',#474,.T.);
#535=FACE_BOUND('',#475,.T.);
#536=FACE_BOUND('',#476,.T.);
#537=FACE_BOUND('',#477,.T.);
#538=FACE_BOUND('',#478,.T.);
#539=FACE_BOUND('',#479,.T.);
#540=FACE_BOUND('',#480,.T.);
#541=FACE_BOUND('',#481,.T.);
#542=FACE_BOUND('',#482,.T.);
#543=FACE_BOUND('',#483,.T.);
#544=FACE_BOUND('',#484,.T.);
#545=FACE_BOUND('',#485,.T.);
#546=FACE_BOUND('',#486,.T.);
#547=FACE_BOUND('',#487,.T.);
#548=FACE_BOUND('',#488,.T.);
#549=FACE_BOUND('',#489,.T.);
#550=FACE_BOUND('',#490,.T.);
#551=FACE_BOUND('',#491,.T.);
#552=FACE_BOUND('',#492,.T.);
#553=FACE_BOUND('',#493,.T.);
#554=FACE_BOUND('',#494,.T.);
#555=FACE_BOUND('',#495,.T.);
#556=FACE_BOUND('',#496,.T.);
#557=FACE_BOUND('',#497,.T.);
#558=FACE_BOUND('',#498,.T.);
#559=FACE_BOUND('',#499,.T.);
#560=FACE_BOUND('',#500,.T.);
#561=FACE_BOUND('',#501,.T.);
#562=FACE_BOUND('',#502,.T.);
#563=FACE_BOUND('',#503,.T.);
#564=FACE_BOUND('',#504,.T.);
#565=FACE_BOUND('',#505,.T.);
#566=FACE_BOUND('',#506,.T.);
#567=FACE_BOUND('',#507,.T.);
#568=PLANE('',#635);
#569=PLANE('',#636);
#570=PLANE('',#637);
#571=PLANE('',#638);
#572=PLANE('',#639);
#573=PLANE('',#648);
#574=PLANE('',#681);
#575=PLANE('',#682);
#576=PLANE('',#683);
#577=PLANE('',#684);
#578=PLANE('',#685);
#579=PLANE('',#700);
#580=PLANE('',#704);
#581=PLANE('',#708);
#582=PLANE('',#712);
#583=ADVANCED_FACE('',(#508),#568,.T.);
#584=ADVANCED_FACE('',(#509),#569,.F.);
#585=ADVANCED_FACE('',(#510),#570,.F.);
#586=ADVANCED_FACE('',(#511),#571,.T.);
#587=ADVANCED_FACE('',(#512,#513),#572,.T.);
#588=ADVANCED_FACE('',(#514,#515,#516,#517,#518),#573,.F.);
#589=ADVANCED_FACE('',(#519),#16,.T.);
#590=ADVANCED_FACE('',(#520),#17,.T.);
#591=ADVANCED_FACE('',(#521),#18,.T.);
#592=ADVANCED_FACE('',(#522),#19,.T.);
#593=ADVANCED_FACE('',(#523),#20,.T.);
#594=ADVANCED_FACE('',(#524),#12,.T.);
#595=ADVANCED_FACE('',(#525),#13,.T.);
#596=ADVANCED_FACE('',(#526),#21,.T.);
#597=ADVANCED_FACE('',(#527),#22,.T.);
#598=ADVANCED_FACE('',(#528),#14,.T.);
#599=ADVANCED_FACE('',(#529),#15,.T.);
#600=ADVANCED_FACE('',(#530),#23,.T.);
#601=ADVANCED_FACE('',(#531),#574,.F.);
#602=ADVANCED_FACE('',(#532),#575,.T.);
#603=ADVANCED_FACE('',(#533),#576,.T.);
#604=ADVANCED_FACE('',(#534),#577,.F.);
#605=ADVANCED_FACE('',(#535,#536,#537,#538,#539),#578,.T.);
#606=ADVANCED_FACE('',(#540),#24,.F.);
#607=ADVANCED_FACE('',(#541),#25,.F.);
#608=ADVANCED_FACE('',(#542),#26,.F.);
#609=ADVANCED_FACE('',(#543),#27,.F.);
#610=ADVANCED_FACE('',(#544,#545),#28,.T.);
#611=ADVANCED_FACE('',(#546,#547),#579,.T.);
#612=ADVANCED_FACE('',(#548,#549),#29,.T.);
#613=ADVANCED_FACE('',(#550,#551),#580,.T.);
#614=ADVANCED_FACE('',(#552,#553),#30,.T.);
#615=ADVANCED_FACE('',(#554,#555),#581,.T.);
#616=ADVANCED_FACE('',(#556,#557),#31,.T.);
#617=ADVANCED_FACE('',(#558,#559),#582,.T.);
#618=ADVANCED_FACE('',(#560,#561),#32,.F.);
#619=ADVANCED_FACE('',(#562,#563),#33,.F.);
#620=ADVANCED_FACE('',(#564,#565),#34,.F.);
#621=ADVANCED_FACE('',(#566,#567),#35,.F.);
#622=CLOSED_SHELL('',(#583,#584,#585,#586,#587,#588,#589,#590,#591,#592,
#593,#594,#595,#596,#597,#598,#599,#600,#601,#602,#603,#604,#605,#606,#607,
#608,#609,#610,#611,#612,#613,#614,#615,#616,#617,#618,#619,#620,#621));
#623=STYLED_ITEM('',(#624),#631);
#624=PRESENTATION_STYLE_ASSIGNMENT((#625));
#625=SURFACE_STYLE_USAGE(.BOTH.,#626);
#626=SURFACE_SIDE_STYLE('',(#627));
#627=SURFACE_STYLE_FILL_AREA(#628);
#628=FILL_AREA_STYLE('',(#629));
#629=FILL_AREA_STYLE_COLOUR('',#630);
#630=COLOUR_RGB('',0.513725490196078,0.737254901960784,0.407843137254902);
#631=MANIFOLD_SOLID_BREP('Case Base',#622);
#632=SHAPE_DEFINITION_REPRESENTATION(#1104,#633);
#633=SHAPE_REPRESENTATION('Case Base',(#634),#1099);
#634=AXIS2_PLACEMENT_3D('',#922,#718,#719);
#635=AXIS2_PLACEMENT_3D('',#923,#720,#721);
#636=AXIS2_PLACEMENT_3D('',#932,#726,#727);
#637=AXIS2_PLACEMENT_3D('',#941,#732,#733);
#638=AXIS2_PLACEMENT_3D('',#950,#738,#739);
#639=AXIS2_PLACEMENT_3D('',#959,#744,#745);
#640=AXIS2_PLACEMENT_3D('',#960,#746,#747);
#641=AXIS2_PLACEMENT_3D('',#965,#749,#750);
#642=AXIS2_PLACEMENT_3D('',#969,#752,#753);
#643=AXIS2_PLACEMENT_3D('',#973,#755,#756);
#644=AXIS2_PLACEMENT_3D('',#976,#758,#759);
#645=AXIS2_PLACEMENT_3D('',#977,#760,#761);
#646=AXIS2_PLACEMENT_3D('',#978,#762,#763);
#647=AXIS2_PLACEMENT_3D('',#979,#764,#765);
#648=AXIS2_PLACEMENT_3D('',#980,#766,#767);
#649=AXIS2_PLACEMENT_3D('',#981,#768,#769);
#650=AXIS2_PLACEMENT_3D('',#983,#770,#771);
#651=AXIS2_PLACEMENT_3D('',#985,#772,#773);
#652=AXIS2_PLACEMENT_3D('',#987,#774,#775);
#653=AXIS2_PLACEMENT_3D('',#992,#777,#778);
#654=AXIS2_PLACEMENT_3D('',#996,#780,#781);
#655=AXIS2_PLACEMENT_3D('',#1000,#783,#784);
#656=AXIS2_PLACEMENT_3D('',#1004,#786,#787);
#657=AXIS2_PLACEMENT_3D('',#1005,#788,#789);
#658=AXIS2_PLACEMENT_3D('',#1006,#790,#791);
#659=AXIS2_PLACEMENT_3D('',#1007,#792,#793);
#660=AXIS2_PLACEMENT_3D('',#1008,#794,#795);
#661=AXIS2_PLACEMENT_3D('',#1009,#796,#797);
#662=AXIS2_PLACEMENT_3D('',#1010,#798,#799);
#663=AXIS2_PLACEMENT_3D('',#1011,#800,#801);
#664=AXIS2_PLACEMENT_3D('',#1012,#802,#803);
#665=AXIS2_PLACEMENT_3D('',#1013,#804,#805);
#666=AXIS2_PLACEMENT_3D('',#1014,#806,#807);
#667=AXIS2_PLACEMENT_3D('',#1015,#808,#809);
#668=AXIS2_PLACEMENT_3D('',#1016,#810,#811);
#669=AXIS2_PLACEMENT_3D('',#1017,#812,#813);
#670=AXIS2_PLACEMENT_3D('',#1018,#814,#815);
#671=AXIS2_PLACEMENT_3D('',#1019,#816,#817);
#672=AXIS2_PLACEMENT_3D('',#1020,#818,#819);
#673=AXIS2_PLACEMENT_3D('',#1021,#820,#821);
#674=AXIS2_PLACEMENT_3D('',#1022,#822,#823);
#675=AXIS2_PLACEMENT_3D('',#1023,#824,#825);
#676=AXIS2_PLACEMENT_3D('',#1024,#826,#827);
#677=AXIS2_PLACEMENT_3D('',#1025,#828,#829);
#678=AXIS2_PLACEMENT_3D('',#1026,#830,#831);
#679=AXIS2_PLACEMENT_3D('',#1027,#832,#833);
#680=AXIS2_PLACEMENT_3D('',#1028,#834,#835);
#681=AXIS2_PLACEMENT_3D('',#1029,#836,#837);
#682=AXIS2_PLACEMENT_3D('',#1035,#841,#842);
#683=AXIS2_PLACEMENT_3D('',#1041,#846,#847);
#684=AXIS2_PLACEMENT_3D('',#1047,#851,#852);
#685=AXIS2_PLACEMENT_3D('',#1053,#856,#857);
#686=AXIS2_PLACEMENT_3D('',#1054,#858,#859);
#687=AXIS2_PLACEMENT_3D('',#1056,#860,#861);
#688=AXIS2_PLACEMENT_3D('',#1058,#862,#863);
#689=AXIS2_PLACEMENT_3D('',#1060,#864,#865);
#690=AXIS2_PLACEMENT_3D('',#1062,#866,#867);
#691=AXIS2_PLACEMENT_3D('',#1063,#868,#869);
#692=AXIS2_PLACEMENT_3D('',#1064,#870,#871);
#693=AXIS2_PLACEMENT_3D('',#1065,#872,#873);
#694=AXIS2_PLACEMENT_3D('',#1066,#874,#875);
#695=AXIS2_PLACEMENT_3D('',#1067,#876,#877);
#696=AXIS2_PLACEMENT_3D('',#1068,#878,#879);
#697=AXIS2_PLACEMENT_3D('',#1069,#880,#881);
#698=AXIS2_PLACEMENT_3D('',#1070,#882,#883);
#699=AXIS2_PLACEMENT_3D('',#1071,#884,#885);
#700=AXIS2_PLACEMENT_3D('',#1073,#886,#887);
#701=AXIS2_PLACEMENT_3D('',#1074,#888,#889);
#702=AXIS2_PLACEMENT_3D('',#1076,#890,#891);
#703=AXIS2_PLACEMENT_3D('',#1077,#892,#893);
#704=AXIS2_PLACEMENT_3D('',#1079,#894,#895);
#705=AXIS2_PLACEMENT_3D('',#1080,#896,#897);
#706=AXIS2_PLACEMENT_3D('',#1082,#898,#899);
#707=AXIS2_PLACEMENT_3D('',#1083,#900,#901);
#708=AXIS2_PLACEMENT_3D('',#1085,#902,#903);
#709=AXIS2_PLACEMENT_3D('',#1086,#904,#905);
#710=AXIS2_PLACEMENT_3D('',#1088,#906,#907);
#711=AXIS2_PLACEMENT_3D('',#1089,#908,#909);
#712=AXIS2_PLACEMENT_3D('',#1091,#910,#911);
#713=AXIS2_PLACEMENT_3D('',#1092,#912,#913);
#714=AXIS2_PLACEMENT_3D('',#1094,#914,#915);
#715=AXIS2_PLACEMENT_3D('',#1095,#916,#917);
#716=AXIS2_PLACEMENT_3D('',#1096,#918,#919);
#717=AXIS2_PLACEMENT_3D('',#1097,#920,#921);
#718=DIRECTION('',(0.,0.,1.));
#719=DIRECTION('',(1.,0.,0.));
#720=DIRECTION('',(-1.,0.,0.));
#721=DIRECTION('',(0.,0.,1.));
#722=DIRECTION('',(0.,0.,-1.));
#723=DIRECTION('',(0.,1.,0.));
#724=DIRECTION('',(0.,0.,-1.));
#725=DIRECTION('',(0.,1.,0.));
#726=DIRECTION('',(0.,1.,0.));
#727=DIRECTION('',(0.,0.,1.));
#728=DIRECTION('',(0.,0.,-1.));
#729=DIRECTION('',(1.,0.,0.));
#730=DIRECTION('',(0.,0.,-1.));
#731=DIRECTION('',(1.,0.,0.));
#732=DIRECTION('',(-1.,0.,0.));
#733=DIRECTION('',(0.,0.,1.));
#734=DIRECTION('',(0.,0.,-1.));
#735=DIRECTION('',(0.,1.,0.));
#736=DIRECTION('',(0.,0.,-1.));
#737=DIRECTION('',(0.,1.,0.));
#738=DIRECTION('',(0.,1.,0.));
#739=DIRECTION('',(0.,0.,1.));
#740=DIRECTION('',(0.,0.,-1.));
#741=DIRECTION('',(1.,0.,0.));
#742=DIRECTION('',(0.,0.,-1.));
#743=DIRECTION('',(1.,0.,0.));
#744=DIRECTION('',(0.,0.,1.));
#745=DIRECTION('',(1.,0.,0.));
#746=DIRECTION('',(0.,0.,1.));
#747=DIRECTION('',(1.,0.,0.));
#748=DIRECTION('',(0.,-1.,0.));
#749=DIRECTION('',(0.,0.,1.));
#750=DIRECTION('',(1.,0.,0.));
#751=DIRECTION('',(-1.,0.,0.));
#752=DIRECTION('',(0.,0.,1.));
#753=DIRECTION('',(1.,0.,0.));
#754=DIRECTION('',(0.,-1.,0.));
#755=DIRECTION('',(0.,0.,1.));
#756=DIRECTION('',(1.,0.,0.));
#757=DIRECTION('',(-1.,0.,0.));
#758=DIRECTION('',(0.,0.,1.));
#759=DIRECTION('',(1.,0.,0.));
#760=DIRECTION('',(0.,0.,1.));
#761=DIRECTION('',(1.,0.,0.));
#762=DIRECTION('',(0.,0.,1.));
#763=DIRECTION('',(1.,0.,0.));
#764=DIRECTION('',(0.,0.,1.));
#765=DIRECTION('',(1.,0.,0.));
#766=DIRECTION('',(0.,0.,1.));
#767=DIRECTION('',(1.,0.,0.));
#768=DIRECTION('',(0.,0.,1.));
#769=DIRECTION('',(1.,0.,0.));
#770=DIRECTION('',(0.,0.,1.));
#771=DIRECTION('',(1.,0.,0.));
#772=DIRECTION('',(0.,0.,1.));
#773=DIRECTION('',(1.,0.,0.));
#774=DIRECTION('',(0.,0.,1.));
#775=DIRECTION('',(1.,0.,0.));
#776=DIRECTION('',(1.,0.,0.));
#777=DIRECTION('',(0.,0.,1.));
#778=DIRECTION('',(1.,0.,0.));
#779=DIRECTION('',(0.,1.,0.));
#780=DIRECTION('',(0.,0.,1.));
#781=DIRECTION('',(1.,0.,0.));
#782=DIRECTION('',(1.,0.,0.));
#783=DIRECTION('',(0.,0.,1.));
#784=DIRECTION('',(1.,0.,0.));
#785=DIRECTION('',(0.,1.,0.));
#786=DIRECTION('',(0.,0.,1.));
#787=DIRECTION('',(1.,0.,0.));
#788=DIRECTION('',(0.,0.,1.));
#789=DIRECTION('',(1.,0.,0.));
#790=DIRECTION('',(0.,0.,1.));
#791=DIRECTION('',(1.,0.,0.));
#792=DIRECTION('',(0.,0.,-1.));
#793=DIRECTION('',(-1.,0.,0.));
#794=DIRECTION('',(0.,0.,1.));
#795=DIRECTION('',(1.,0.,0.));
#796=DIRECTION('',(0.,0.,-1.));
#797=DIRECTION('',(-1.,0.,0.));
#798=DIRECTION('',(0.,0.,1.));
#799=DIRECTION('',(1.,0.,0.));
#800=DIRECTION('',(0.,0.,1.));
#801=DIRECTION('',(1.,0.,0.));
#802=DIRECTION('',(0.,0.,1.));
#803=DIRECTION('',(1.,0.,0.));
#804=DIRECTION('',(1.,0.,0.));
#805=DIRECTION('',(0.,0.,-1.));
#806=DIRECTION('',(1.,0.,0.));
#807=DIRECTION('',(0.,0.,-1.));
#808=DIRECTION('',(-1.,0.,0.));
#809=DIRECTION('',(0.,0.,1.));
#810=DIRECTION('',(0.,0.,1.));
#811=DIRECTION('',(1.,0.,0.));
#812=DIRECTION('',(0.,1.,0.));
#813=DIRECTION('',(0.,0.,1.));
#814=DIRECTION('',(0.,0.,1.));
#815=DIRECTION('',(1.,0.,0.));
#816=DIRECTION('',(0.,1.,0.));
#817=DIRECTION('',(0.,0.,1.));
#818=DIRECTION('',(0.,-1.,0.));
#819=DIRECTION('',(0.,0.,-1.));
#820=DIRECTION('',(0.,1.,0.));
#821=DIRECTION('',(0.,0.,1.));
#822=DIRECTION('',(0.,1.,0.));
#823=DIRECTION('',(0.,0.,1.));
#824=DIRECTION('',(0.,1.,0.));
#825=DIRECTION('',(0.,0.,1.));
#826=DIRECTION('',(0.,0.,1.));
#827=DIRECTION('',(1.,0.,0.));
#828=DIRECTION('',(1.,0.,0.));
#829=DIRECTION('',(0.,0.,-1.));
#830=DIRECTION('',(0.,0.,1.));
#831=DIRECTION('',(1.,0.,0.));
#832=DIRECTION('',(-1.,0.,0.));
#833=DIRECTION('',(0.,0.,1.));
#834=DIRECTION('',(-1.,0.,0.));
#835=DIRECTION('',(0.,0.,1.));
#836=DIRECTION('',(-1.,0.,0.));
#837=DIRECTION('',(0.,0.,1.));
#838=DIRECTION('',(0.,0.,-1.));
#839=DIRECTION('',(0.,1.,0.));
#840=DIRECTION('',(0.,0.,-1.));
#841=DIRECTION('',(0.,1.,0.));
#842=DIRECTION('',(0.,0.,1.));
#843=DIRECTION('',(0.,0.,-1.));
#844=DIRECTION('',(1.,0.,0.));
#845=DIRECTION('',(0.,0.,-1.));
#846=DIRECTION('',(-1.,0.,0.));
#847=DIRECTION('',(0.,0.,1.));
#848=DIRECTION('',(0.,0.,-1.));
#849=DIRECTION('',(0.,1.,0.));
#850=DIRECTION('',(0.,0.,-1.));
#851=DIRECTION('',(0.,1.,0.));
#852=DIRECTION('',(0.,0.,1.));
#853=DIRECTION('',(0.,0.,-1.));
#854=DIRECTION('',(1.,0.,0.));
#855=DIRECTION('',(0.,0.,-1.));
#856=DIRECTION('',(0.,0.,1.));
#857=DIRECTION('',(1.,0.,0.));
#858=DIRECTION('',(0.,0.,1.));
#859=DIRECTION('',(1.,0.,0.));
#860=DIRECTION('',(0.,0.,1.));
#861=DIRECTION('',(1.,0.,0.));
#862=DIRECTION('',(0.,0.,1.));
#863=DIRECTION('',(1.,0.,0.));
#864=DIRECTION('',(0.,0.,1.));
#865=DIRECTION('',(1.,0.,0.));
#866=DIRECTION('',(0.,0.,1.));
#867=DIRECTION('',(1.,0.,0.));
#868=DIRECTION('',(0.,0.,1.));
#869=DIRECTION('',(1.,0.,0.));
#870=DIRECTION('',(0.,0.,1.));
#871=DIRECTION('',(1.,0.,0.));
#872=DIRECTION('',(0.,0.,1.));
#873=DIRECTION('',(1.,0.,0.));
#874=DIRECTION('',(0.,0.,1.));
#875=DIRECTION('',(1.,0.,0.));
#876=DIRECTION('',(0.,0.,-1.));
#877=DIRECTION('',(-1.,0.,0.));
#878=DIRECTION('',(0.,0.,-1.));
#879=DIRECTION('',(-1.,0.,0.));
#880=DIRECTION('',(0.,0.,1.));
#881=DIRECTION('',(1.,0.,0.));
#882=DIRECTION('',(0.,0.,-1.));
#883=DIRECTION('',(-1.,0.,0.));
#884=DIRECTION('',(0.,0.,1.));
#885=DIRECTION('',(1.,0.,0.));
#886=DIRECTION('',(0.,0.,1.));
#887=DIRECTION('',(1.,0.,0.));
#888=DIRECTION('',(0.,0.,1.));
#889=DIRECTION('',(1.,0.,0.));
#890=DIRECTION('',(0.,0.,-1.));
#891=DIRECTION('',(-1.,0.,0.));
#892=DIRECTION('',(0.,0.,1.));
#893=DIRECTION('',(1.,0.,0.));
#894=DIRECTION('',(0.,0.,1.));
#895=DIRECTION('',(1.,0.,0.));
#896=DIRECTION('',(0.,0.,1.));
#897=DIRECTION('',(1.,0.,0.));
#898=DIRECTION('',(0.,0.,-1.));
#899=DIRECTION('',(-1.,0.,0.));
#900=DIRECTION('',(0.,0.,1.));
#901=DIRECTION('',(1.,0.,0.));
#902=DIRECTION('',(0.,0.,1.));
#903=DIRECTION('',(1.,0.,0.));
#904=DIRECTION('',(0.,0.,1.));
#905=DIRECTION('',(1.,0.,0.));
#906=DIRECTION('',(0.,0.,-1.));
#907=DIRECTION('',(-1.,0.,0.));
#908=DIRECTION('',(0.,0.,1.));
#909=DIRECTION('',(1.,0.,0.));
#910=DIRECTION('',(0.,0.,1.));
#911=DIRECTION('',(1.,0.,0.));
#912=DIRECTION('',(0.,0.,1.));
#913=DIRECTION('',(1.,0.,0.));
#914=DIRECTION('',(0.,0.,-1.));
#915=DIRECTION('',(-1.,0.,0.));
#916=DIRECTION('',(0.,0.,-1.));
#917=DIRECTION('',(-1.,0.,0.));
#918=DIRECTION('',(0.,0.,-1.));
#919=DIRECTION('',(-1.,0.,0.));
#920=DIRECTION('',(0.,0.,-1.));
#921=DIRECTION('',(-1.,0.,0.));
#922=CARTESIAN_POINT('',(0.,0.,0.));
#923=CARTESIAN_POINT('',(0.0852,-0.09925,-0.0005));
#924=CARTESIAN_POINT('',(0.0852,-0.0661,-0.0005));
#925=CARTESIAN_POINT('',(0.0852,-0.0661,-0.0005));
#926=CARTESIAN_POINT('',(0.0852,-0.0661,-0.0046));
#927=CARTESIAN_POINT('',(0.0852,-0.1324,-0.0046));
#928=CARTESIAN_POINT('',(0.0852,-0.1324,-0.0046));
#929=CARTESIAN_POINT('',(0.0852,-0.1324,-0.0005));
#930=CARTESIAN_POINT('',(0.0852,-0.1324,-0.0005));
#931=CARTESIAN_POINT('',(0.0852,-0.09925,-0.0005));
#932=CARTESIAN_POINT('',(0.141,-0.1358,-0.0005));
#933=CARTESIAN_POINT('',(0.0886,-0.1358,-0.006));
#934=CARTESIAN_POINT('',(0.0886,-0.1358,-0.0005));
#935=CARTESIAN_POINT('',(0.0886,-0.1358,-0.0046));
#936=CARTESIAN_POINT('',(0.141,-0.1358,-0.0046));
#937=CARTESIAN_POINT('',(0.1934,-0.1358,-0.0046));
#938=CARTESIAN_POINT('',(0.1934,-0.1358,-0.0005));
#939=CARTESIAN_POINT('',(0.1934,-0.1358,-0.0005));
#940=CARTESIAN_POINT('',(0.141,-0.1358,-0.0005));
#941=CARTESIAN_POINT('',(0.1968,-0.09925,-0.0005));
#942=CARTESIAN_POINT('',(0.1968,-0.1324,-0.0005));
#943=CARTESIAN_POINT('',(0.1968,-0.1324,-0.0005));
#944=CARTESIAN_POINT('',(0.1968,-0.1324,-0.0046));
#945=CARTESIAN_POINT('',(0.1968,-0.09925,-0.0046));
#946=CARTESIAN_POINT('',(0.1968,-0.0661,-0.0046));
#947=CARTESIAN_POINT('',(0.1968,-0.0661,-0.0005));
#948=CARTESIAN_POINT('',(0.1968,-0.0661,-0.0005));
#949=CARTESIAN_POINT('',(0.1968,-0.09925,-0.0005));
#950=CARTESIAN_POINT('',(0.141,-0.0627,-0.0005));
#951=CARTESIAN_POINT('',(0.1934,-0.0627,-0.006));
#952=CARTESIAN_POINT('',(0.1934,-0.0627,-0.0005));
#953=CARTESIAN_POINT('',(0.1934,-0.0627,-0.0046));
#954=CARTESIAN_POINT('',(0.0886,-0.0627,-0.0046));
#955=CARTESIAN_POINT('',(0.0886,-0.0627,-0.0046));
#956=CARTESIAN_POINT('',(0.0886,-0.0627,-0.0005));
#957=CARTESIAN_POINT('',(0.0886,-0.0627,-0.0005));
#958=CARTESIAN_POINT('',(0.141,-0.0627,-0.0005));
#959=CARTESIAN_POINT('',(0.141,-0.09925,-0.0005));
#960=CARTESIAN_POINT('',(0.1934,-0.0661,-0.0005));
#961=CARTESIAN_POINT('',(0.1944,-0.0661,-0.0005));
#962=CARTESIAN_POINT('',(0.1934,-0.0651,-0.0005));
#963=CARTESIAN_POINT('',(0.1944,-0.09925,-0.0005));
#964=CARTESIAN_POINT('',(0.1944,-0.1324,-0.0005));
#965=CARTESIAN_POINT('',(0.1934,-0.1324,-0.0005));
#966=CARTESIAN_POINT('',(0.1934,-0.1334,-0.0005));
#967=CARTESIAN_POINT('',(0.141,-0.1334,-0.0005));
#968=CARTESIAN_POINT('',(0.0886,-0.1334,-0.0005));
#969=CARTESIAN_POINT('',(0.0886,-0.1324,-0.0005));
#970=CARTESIAN_POINT('',(0.0876,-0.1324,-0.0005));
#971=CARTESIAN_POINT('',(0.0876,-0.09925,-0.0005));
#972=CARTESIAN_POINT('',(0.0876,-0.0661,-0.0005));
#973=CARTESIAN_POINT('',(0.0886,-0.0661,-0.0005));
#974=CARTESIAN_POINT('',(0.0886,-0.0651,-0.0005));
#975=CARTESIAN_POINT('',(0.141,-0.0651,-0.0005));
#976=CARTESIAN_POINT('',(0.1934,-0.0661,-0.0005));
#977=CARTESIAN_POINT('',(0.0886,-0.0661,-0.0005));
#978=CARTESIAN_POINT('',(0.0886,-0.1324,-0.0005));
#979=CARTESIAN_POINT('',(0.1934,-0.1324,-0.0005));
#980=CARTESIAN_POINT('',(0.141,-0.09925,-0.006));
#981=CARTESIAN_POINT('',(0.19,-0.0735,-0.006));
#982=CARTESIAN_POINT('',(0.1917,-0.0735,-0.006));
#983=CARTESIAN_POINT('',(0.092,-0.1275,-0.006));
#984=CARTESIAN_POINT('',(0.0937,-0.1275,-0.006));
#985=CARTESIAN_POINT('',(0.19,-0.1275,-0.006));
#986=CARTESIAN_POINT('',(0.1917,-0.1275,-0.006));
#987=CARTESIAN_POINT('',(0.092,-0.0735,-0.006));
#988=CARTESIAN_POINT('',(0.0937,-0.0735,-0.006));
#989=CARTESIAN_POINT('',(0.1934,-0.0641,-0.006));
#990=CARTESIAN_POINT('',(0.0886,-0.0641,-0.006));
#991=CARTESIAN_POINT('',(0.1934,-0.0641,-0.006));
#992=CARTESIAN_POINT('',(0.1934,-0.0661,-0.006));
#993=CARTESIAN_POINT('',(0.1954,-0.0661,-0.006));
#994=CARTESIAN_POINT('',(0.1954,-0.09925,-0.006));
#995=CARTESIAN_POINT('',(0.1954,-0.1324,-0.006));
#996=CARTESIAN_POINT('',(0.1934,-0.1324,-0.006));
#997=CARTESIAN_POINT('',(0.1934,-0.1344,-0.006));
#998=CARTESIAN_POINT('',(0.141,-0.1344,-0.006));
#999=CARTESIAN_POINT('',(0.0886,-0.1344,-0.006));
#1000=CARTESIAN_POINT('',(0.0886,-0.1324,-0.006));
#1001=CARTESIAN_POINT('',(0.0866,-0.1324,-0.006));
#1002=CARTESIAN_POINT('',(0.0866,-0.0661,-0.006));
#1003=CARTESIAN_POINT('',(0.0866,-0.0661,-0.006));
#1004=CARTESIAN_POINT('',(0.0886,-0.0661,-0.006));
#1005=CARTESIAN_POINT('',(0.1934,-0.0661,-0.0005));
#1006=CARTESIAN_POINT('',(0.1934,-0.0661,-0.0046));
#1007=CARTESIAN_POINT('',(0.1934,-0.1324,-0.0005));
#1008=CARTESIAN_POINT('',(0.1934,-0.1324,-0.0046));
#1009=CARTESIAN_POINT('',(0.0886,-0.0661,-0.0005));
#1010=CARTESIAN_POINT('',(0.0886,-0.0661,-0.0046));
#1011=CARTESIAN_POINT('',(0.0886,-0.1324,-0.0005));
#1012=CARTESIAN_POINT('',(0.0886,-0.1324,-0.0046));
#1013=CARTESIAN_POINT('',(0.141,-0.1344,-0.0046));
#1014=CARTESIAN_POINT('',(0.1934,-0.1344,-0.0046));
#1015=CARTESIAN_POINT('',(0.0886,-0.1344,-0.0046));
#1016=CARTESIAN_POINT('',(0.0886,-0.1324,-0.0046));
#1017=CARTESIAN_POINT('',(0.0866,-0.1324,-0.0046));
#1018=CARTESIAN_POINT('',(0.1934,-0.1324,-0.0046));
#1019=CARTESIAN_POINT('',(0.1954,-0.1324,-0.0046));
#1020=CARTESIAN_POINT('',(0.0866,-0.09925,-0.0046));
#1021=CARTESIAN_POINT('',(0.0866,-0.0661,-0.0046));
#1022=CARTESIAN_POINT('',(0.1954,-0.09925,-0.0046));
#1023=CARTESIAN_POINT('',(0.1954,-0.0661,-0.0046));
#1024=CARTESIAN_POINT('',(0.0886,-0.0661,-0.0046));
#1025=CARTESIAN_POINT('',(0.0886,-0.0641,-0.0046));
#1026=CARTESIAN_POINT('',(0.1934,-0.0661,-0.0046));
#1027=CARTESIAN_POINT('',(0.1934,-0.0641,-0.0046));
#1028=CARTESIAN_POINT('',(0.141,-0.0641,-0.0046));
#1029=CARTESIAN_POINT('',(0.0876,-0.09925,0.001));
#1030=CARTESIAN_POINT('',(0.0876,-0.1324,0.001));
#1031=CARTESIAN_POINT('',(0.0876,-0.1324,-0.004));
#1032=CARTESIAN_POINT('',(0.0876,-0.09925,-0.004));
#1033=CARTESIAN_POINT('',(0.0876,-0.0661,-0.004));
#1034=CARTESIAN_POINT('',(0.0876,-0.0661,0.001));
#1035=CARTESIAN_POINT('',(0.141,-0.1334,0.001));
#1036=CARTESIAN_POINT('',(0.1934,-0.1334,0.001));
#1037=CARTESIAN_POINT('',(0.1934,-0.1334,-0.004));
#1038=CARTESIAN_POINT('',(0.141,-0.1334,-0.004));
#1039=CARTESIAN_POINT('',(0.0886,-0.1334,-0.004));
#1040=CARTESIAN_POINT('',(0.0886,-0.1334,-0.004));
#1041=CARTESIAN_POINT('',(0.1944,-0.09925,0.001));
#1042=CARTESIAN_POINT('',(0.1944,-0.0661,0.001));
#1043=CARTESIAN_POINT('',(0.1944,-0.0661,-0.004));
#1044=CARTESIAN_POINT('',(0.1944,-0.09925,-0.004));
#1045=CARTESIAN_POINT('',(0.1944,-0.1324,-0.004));
#1046=CARTESIAN_POINT('',(0.1944,-0.1324,0.001));
#1047=CARTESIAN_POINT('',(0.141,-0.0651,0.001));
#1048=CARTESIAN_POINT('',(0.0886,-0.0651,0.001));
#1049=CARTESIAN_POINT('',(0.0886,-0.0651,-0.004));
#1050=CARTESIAN_POINT('',(0.141,-0.0651,-0.004));
#1051=CARTESIAN_POINT('',(0.1934,-0.0651,-0.004));
#1052=CARTESIAN_POINT('',(0.1934,-0.0651,-0.004));
#1053=CARTESIAN_POINT('',(0.141,-0.09925,-0.004));
#1054=CARTESIAN_POINT('',(0.19,-0.0735,-0.004));
#1055=CARTESIAN_POINT('',(0.1935,-0.0735,-0.004));
#1056=CARTESIAN_POINT('',(0.092,-0.1275,-0.004));
#1057=CARTESIAN_POINT('',(0.0955,-0.1275,-0.004));
#1058=CARTESIAN_POINT('',(0.19,-0.1275,-0.004));
#1059=CARTESIAN_POINT('',(0.1935,-0.1275,-0.004));
#1060=CARTESIAN_POINT('',(0.092,-0.0735,-0.004));
#1061=CARTESIAN_POINT('',(0.0955,-0.0735,-0.004));
#1062=CARTESIAN_POINT('',(0.0886,-0.0661,-0.004));
#1063=CARTESIAN_POINT('',(0.0886,-0.1324,-0.004));
#1064=CARTESIAN_POINT('',(0.1934,-0.1324,-0.004));
#1065=CARTESIAN_POINT('',(0.1934,-0.0661,-0.004));
#1066=CARTESIAN_POINT('',(0.1934,-0.0661,0.001));
#1067=CARTESIAN_POINT('',(0.1934,-0.1324,0.001));
#1068=CARTESIAN_POINT('',(0.0886,-0.0661,0.001));
#1069=CARTESIAN_POINT('',(0.0886,-0.1324,0.001));
#1070=CARTESIAN_POINT('',(0.092,-0.0735,0.));
#1071=CARTESIAN_POINT('',(0.092,-0.0735,0.));
#1072=CARTESIAN_POINT('',(0.0955,-0.0735,0.));
#1073=CARTESIAN_POINT('',(0.092,-0.0735,0.));
#1074=CARTESIAN_POINT('',(0.092,-0.0735,0.));
#1075=CARTESIAN_POINT('',(0.0937,-0.0735,0.));
#1076=CARTESIAN_POINT('',(0.19,-0.1275,0.));
#1077=CARTESIAN_POINT('',(0.19,-0.1275,0.));
#1078=CARTESIAN_POINT('',(0.1935,-0.1275,0.));
#1079=CARTESIAN_POINT('',(0.19,-0.1275,0.));
#1080=CARTESIAN_POINT('',(0.19,-0.1275,0.));
#1081=CARTESIAN_POINT('',(0.1917,-0.1275,0.));
#1082=CARTESIAN_POINT('',(0.092,-0.1275,0.));
#1083=CARTESIAN_POINT('',(0.092,-0.1275,0.));
#1084=CARTESIAN_POINT('',(0.0955,-0.1275,0.));
#1085=CARTESIAN_POINT('',(0.092,-0.1275,0.));
#1086=CARTESIAN_POINT('',(0.092,-0.1275,0.));
#1087=CARTESIAN_POINT('',(0.0937,-0.1275,0.));
#1088=CARTESIAN_POINT('',(0.19,-0.0735,0.));
#1089=CARTESIAN_POINT('',(0.19,-0.0735,0.));
#1090=CARTESIAN_POINT('',(0.1935,-0.0735,0.));
#1091=CARTESIAN_POINT('',(0.19,-0.0735,0.));
#1092=CARTESIAN_POINT('',(0.19,-0.0735,0.));
#1093=CARTESIAN_POINT('',(0.1917,-0.0735,0.));
#1094=CARTESIAN_POINT('',(0.19,-0.0735,0.0005));
#1095=CARTESIAN_POINT('',(0.092,-0.1275,0.0005));
#1096=CARTESIAN_POINT('',(0.19,-0.1275,0.0005));
#1097=CARTESIAN_POINT('',(0.092,-0.0735,0.0005));
#1098=MECHANICAL_DESIGN_GEOMETRIC_PRESENTATION_REPRESENTATION('',(#623),
#1099);
#1099=(
GEOMETRIC_REPRESENTATION_CONTEXT(3)
GLOBAL_UNCERTAINTY_ASSIGNED_CONTEXT((#1100))
GLOBAL_UNIT_ASSIGNED_CONTEXT((#1103,#1102,#1101))
REPRESENTATION_CONTEXT('Case Base','TOP_LEVEL_ASSEMBLY_PART')
);
#1100=UNCERTAINTY_MEASURE_WITH_UNIT(LENGTH_MEASURE(1.E-8),#1103,
'DISTANCE_ACCURACY_VALUE','Maximum Tolerance applied to model');
#1101=(
NAMED_UNIT(*)
SI_UNIT($,.STERADIAN.)
SOLID_ANGLE_UNIT()
);
#1102=(
NAMED_UNIT(*)
PLANE_ANGLE_UNIT()
SI_UNIT($,.RADIAN.)
);
#1103=(
LENGTH_UNIT()
NAMED_UNIT(*)
SI_UNIT($,.METRE.)
);
#1104=PRODUCT_DEFINITION_SHAPE('','',#1105);
#1105=PRODUCT_DEFINITION('','',#1107,#1106);
#1106=PRODUCT_DEFINITION_CONTEXT('',#1113,'design');
#1107=PRODUCT_DEFINITION_FORMATION_WITH_SPECIFIED_SOURCE('','',#1109,
 .NOT_KNOWN.);
#1108=PRODUCT_RELATED_PRODUCT_CATEGORY('','',(#1109));
#1109=PRODUCT('Case Base','Case Base','Case Base',(#1111));
#1110=PRODUCT_CATEGORY('','');
#1111=PRODUCT_CONTEXT('',#1113,'mechanical');
#1112=APPLICATION_PROTOCOL_DEFINITION('international standard',
'ap242_managed_model_based_3d_engineering',2020,#1113);
#1113=APPLICATION_CONTEXT('managed model based 3d engineering');
ENDSEC;
END-ISO-10303-21;
