M48
; DRILL file KiCad 10.0.6 date 2026-09-25T22:11:32
; FORMAT={-:-/ absolute / metric / decimal}
; #@! TF.CreationDate,2026-09-25T22:11:32-05:00
; #@! TF.GenerationSoftware,Kicad,Pcbnew,10.0.6
; #@! TF.FileFunction,Plated,1,2,PTH
FMAT,2
METRIC
; #@! TA.AperFunction,Plated,PTH,ViaDrill
T1C0.300
; #@! TA.AperFunction,Plated,PTH,ComponentDrill
T2C0.889
; #@! TA.AperFunction,Plated,PTH,ComponentDrill
T3C1.000
; #@! TA.AperFunction,Plated,PTH,ComponentDrill
T4C1.500
%
G90
G05
T1
X140.32Y-108.0
T2
X133.38Y-105.38
X133.38Y-107.92
X133.38Y-110.46
X133.38Y-113.0
X133.38Y-115.54
X133.38Y-118.08
X133.38Y-120.62
X148.62Y-105.38
X148.62Y-107.92
X148.62Y-110.46
X148.62Y-113.0
X148.62Y-115.54
X148.62Y-118.08
X148.62Y-120.62
T3
X132.1Y-93.0
X134.64Y-93.0
X137.18Y-93.0
X139.72Y-93.0
X141.0Y-70.4
X141.0Y-78.0
X142.26Y-93.0
X144.8Y-93.0
X147.34Y-93.0
X149.88Y-93.0
T4
X97.0Y-88.0
X97.0Y-112.0
X99.54Y-94.35
X99.54Y-118.35
X175.0Y-88.0
X175.0Y-112.0
X177.54Y-94.35
X177.54Y-118.35
M30
