%TF.GenerationSoftware,KiCad,Pcbnew,10.0.6*%
%TF.CreationDate,2026-09-25T22:11:19-05:00*%
%TF.ProjectId,YourClock,596f7572-436c-46f6-936b-2e6b69636164,rev?*%
%TF.SameCoordinates,Original*%
%TF.FileFunction,Soldermask,Bot*%
%TF.FilePolarity,Negative*%
%FSLAX46Y46*%
G04 Gerber Fmt 4.6, Leading zero omitted, Abs format (unit mm)*
G04 Created by KiCad (PCBNEW 10.0.6) date 2026-09-25 22:11:19*
%MOMM*%
%LPD*%
G01*
G04 APERTURE LIST*
%ADD10C,1.700000*%
%ADD11C,4.000000*%
%ADD12C,2.200000*%
%ADD13R,1.700000X1.700000*%
%ADD14C,3.200000*%
%ADD15C,1.524000*%
%ADD16R,2.000000X2.000000*%
%ADD17C,2.000000*%
G04 APERTURE END LIST*
D10*
%TO.C,SW2*%
X102080000Y-119620000D03*
D11*
X102080000Y-114540000D03*
D10*
X102080000Y-109460000D03*
D12*
X97000000Y-112000000D03*
X99540000Y-118350000D03*
%TD*%
D10*
%TO.C,SW3*%
X180080000Y-119620000D03*
D11*
X180080000Y-114540000D03*
D10*
X180080000Y-109460000D03*
D12*
X175000000Y-112000000D03*
X177540000Y-118350000D03*
%TD*%
D13*
%TO.C,J1*%
X132100000Y-93000000D03*
D10*
X134640000Y-93000000D03*
X137180000Y-93000000D03*
X139720000Y-93000000D03*
X142260000Y-93000000D03*
X144800000Y-93000000D03*
X147340000Y-93000000D03*
X149880000Y-93000000D03*
%TD*%
D14*
%TO.C,H1*%
X92000000Y-127500000D03*
%TD*%
%TO.C,H3*%
X190000000Y-73500000D03*
%TD*%
D10*
%TO.C,SW1*%
X102080000Y-95620000D03*
D11*
X102080000Y-90540000D03*
D10*
X102080000Y-85460000D03*
D12*
X97000000Y-88000000D03*
X99540000Y-94350000D03*
%TD*%
D14*
%TO.C,H4*%
X190000000Y-127500000D03*
%TD*%
D10*
%TO.C,SW4*%
X180080000Y-95620000D03*
D11*
X180080000Y-90540000D03*
D10*
X180080000Y-85460000D03*
D12*
X175000000Y-88000000D03*
X177540000Y-94350000D03*
%TD*%
D15*
%TO.C,U2*%
X148620000Y-120620000D03*
X148620000Y-118080000D03*
X148620000Y-115540000D03*
X148620000Y-113000000D03*
X148620000Y-110460000D03*
X148620000Y-107920000D03*
X148620000Y-105380000D03*
X133380000Y-105380000D03*
X133380000Y-107920000D03*
X133380000Y-110460000D03*
X133380000Y-113000000D03*
X133380000Y-115540000D03*
X133380000Y-118080000D03*
X133380000Y-120620000D03*
%TD*%
D14*
%TO.C,H2*%
X92000000Y-73500000D03*
%TD*%
D16*
%TO.C,BZ1*%
X141000000Y-78000000D03*
D17*
X141000000Y-70400000D03*
%TD*%
M02*
