%TF.GenerationSoftware,KiCad,Pcbnew,10.0.6*%
%TF.CreationDate,2026-09-25T22:11:19-05:00*%
%TF.ProjectId,YourClock,596f7572-436c-46f6-936b-2e6b69636164,rev?*%
%TF.SameCoordinates,Original*%
%TF.FileFunction,Copper,L2,Bot*%
%TF.FilePolarity,Positive*%
%FSLAX46Y46*%
G04 Gerber Fmt 4.6, Leading zero omitted, Abs format (unit mm)*
G04 Created by KiCad (PCBNEW 10.0.6) date 2026-09-25 22:11:19*
%MOMM*%
%LPD*%
G01*
G04 APERTURE LIST*
%TA.AperFunction,ComponentPad*%
%ADD10C,2.200000*%
%TD*%
%TA.AperFunction,ComponentPad*%
%ADD11R,1.700000X1.700000*%
%TD*%
%TA.AperFunction,ComponentPad*%
%ADD12C,1.700000*%
%TD*%
%TA.AperFunction,ComponentPad*%
%ADD13C,1.524000*%
%TD*%
%TA.AperFunction,ComponentPad*%
%ADD14R,2.000000X2.000000*%
%TD*%
%TA.AperFunction,ComponentPad*%
%ADD15C,2.000000*%
%TD*%
%TA.AperFunction,ViaPad*%
%ADD16C,0.600000*%
%TD*%
%TA.AperFunction,Conductor*%
%ADD17C,0.200000*%
%TD*%
G04 APERTURE END LIST*
D10*
%TO.P,SW2,1,1_1*%
%TO.N,GND*%
X97000000Y-112000000D03*
%TO.P,SW2,2,2_2*%
%TO.N,Net-(U2-D1)*%
X99540000Y-118350000D03*
%TD*%
%TO.P,SW3,1,1_1*%
%TO.N,GND*%
X175000000Y-112000000D03*
%TO.P,SW3,2,2_2*%
%TO.N,Net-(U2-D2)*%
X177540000Y-118350000D03*
%TD*%
D11*
%TO.P,J1,1,Pin_1_1*%
%TO.N,GND*%
X132100000Y-93000000D03*
D12*
%TO.P,J1,2,Pin_2_2*%
%TO.N,+3.3V*%
X134640000Y-93000000D03*
%TO.P,J1,3,Pin_3_3*%
%TO.N,/SCL*%
X137180000Y-93000000D03*
%TO.P,J1,4,Pin_4_4*%
%TO.N,/SDA*%
X139720000Y-93000000D03*
%TO.P,J1,5,Pin_5_5*%
%TO.N,/RST*%
X142260000Y-93000000D03*
%TO.P,J1,6,Pin_6_6*%
%TO.N,/DC*%
X144800000Y-93000000D03*
%TO.P,J1,7,Pin_7_7*%
%TO.N,/CS*%
X147340000Y-93000000D03*
%TO.P,J1,8,Pin_8_8*%
%TO.N,/BL*%
X149880000Y-93000000D03*
%TD*%
D10*
%TO.P,SW1,1,1_1*%
%TO.N,GND*%
X97000000Y-88000000D03*
%TO.P,SW1,2,2_2*%
%TO.N,Net-(U2-D0)*%
X99540000Y-94350000D03*
%TD*%
%TO.P,SW4,1,1_1*%
%TO.N,GND*%
X175000000Y-88000000D03*
%TO.P,SW4,2,2_2*%
%TO.N,Net-(U2-D3)*%
X177540000Y-94350000D03*
%TD*%
D13*
%TO.P,U2,1,D0_1*%
%TO.N,Net-(U2-D0)*%
X148620000Y-120620000D03*
%TO.P,U2,2,D1_2*%
%TO.N,Net-(U2-D1)*%
X148620000Y-118080000D03*
%TO.P,U2,3,D2_3*%
%TO.N,Net-(U2-D2)*%
X148620000Y-115540000D03*
%TO.P,U2,4,D3_4*%
%TO.N,Net-(U2-D3)*%
X148620000Y-113000000D03*
%TO.P,U2,5,D4_5*%
%TO.N,/DC*%
X148620000Y-110460000D03*
%TO.P,U2,6,D5_6*%
%TO.N,/CS*%
X148620000Y-107920000D03*
%TO.P,U2,7,D6_7*%
%TO.N,/BL*%
X148620000Y-105380000D03*
%TO.P,U2,8,D7_8*%
%TO.N,Net-(BZ1-+)*%
X133380000Y-105380000D03*
%TO.P,U2,9,D8_9*%
%TO.N,/RST*%
X133380000Y-107920000D03*
%TO.P,U2,10,D9/BOOT_10*%
%TO.N,/SCL*%
X133380000Y-110460000D03*
%TO.P,U2,11,D10_11*%
%TO.N,/SDA*%
X133380000Y-113000000D03*
%TO.P,U2,12,3V3_OUT_12*%
%TO.N,+3.3V*%
X133380000Y-115540000D03*
%TO.P,U2,13,GND_13*%
%TO.N,GND*%
X133380000Y-118080000D03*
%TO.P,U2,14,VBUS_14*%
%TO.N,unconnected-(U2-VBUS-Pad14)_1*%
X133380000Y-120620000D03*
%TD*%
D14*
%TO.P,BZ1,1,+_1*%
%TO.N,Net-(BZ1-+)*%
X141000000Y-78000000D03*
D15*
%TO.P,BZ1,2,-_2*%
%TO.N,GND*%
X141000000Y-70400000D03*
%TD*%
D16*
%TO.N,/RST*%
X140320000Y-108000000D03*
%TD*%
%TO.N,+3.3V*%
D17*
X133640000Y-97360000D02*
X133500000Y-97500000D01*
X134640000Y-97360000D02*
X133640000Y-97360000D01*
X133340000Y-115500000D02*
X133380000Y-115540000D01*
X130500000Y-97500000D02*
X130500000Y-115500000D01*
X134500000Y-97500000D02*
X130500000Y-97500000D01*
X134640000Y-97360000D02*
X134500000Y-97500000D01*
X134640000Y-93000000D02*
X134640000Y-97360000D01*
X130500000Y-115500000D02*
X133340000Y-115500000D01*
%TO.N,/RST*%
X135920000Y-107920000D02*
X133380000Y-107920000D01*
X136000000Y-108000000D02*
X135920000Y-107920000D01*
X140320000Y-108000000D02*
X136000000Y-108000000D01*
%TD*%
%TA.AperFunction,Conductor*%
%TO.N,GND*%
G36*
X192443039Y-67519685D02*
G01*
X192488794Y-67572489D01*
X192500000Y-67624000D01*
X192500000Y-131376000D01*
X192480315Y-131443039D01*
X192427511Y-131488794D01*
X192376000Y-131500000D01*
X90124000Y-131500000D01*
X90056961Y-131480315D01*
X90011206Y-131427511D01*
X90000000Y-131376000D01*
X90000000Y-128127554D01*
X90019685Y-128060515D01*
X90072489Y-128014760D01*
X90141647Y-128004816D01*
X90205203Y-128033841D01*
X90242977Y-128092619D01*
X90243761Y-128095410D01*
X90243946Y-128096100D01*
X90243948Y-128096106D01*
X90336773Y-128320205D01*
X90336776Y-128320212D01*
X90458064Y-128530289D01*
X90458066Y-128530292D01*
X90458067Y-128530293D01*
X90605733Y-128722736D01*
X90605739Y-128722743D01*
X90777256Y-128894260D01*
X90777262Y-128894265D01*
X90969711Y-129041936D01*
X91179788Y-129163224D01*
X91403900Y-129256054D01*
X91638211Y-129318838D01*
X91818586Y-129342584D01*
X91878711Y-129350500D01*
X91878712Y-129350500D01*
X92121289Y-129350500D01*
X92169388Y-129344167D01*
X92361789Y-129318838D01*
X92596100Y-129256054D01*
X92820212Y-129163224D01*
X93030289Y-129041936D01*
X93222738Y-128894265D01*
X93394265Y-128722738D01*
X93541936Y-128530289D01*
X93663224Y-128320212D01*
X93756054Y-128096100D01*
X93818838Y-127861789D01*
X93850500Y-127621288D01*
X93850500Y-127378712D01*
X93850500Y-127378711D01*
X188149500Y-127378711D01*
X188149500Y-127621288D01*
X188181161Y-127861785D01*
X188243947Y-128096104D01*
X188336773Y-128320205D01*
X188336776Y-128320212D01*
X188458064Y-128530289D01*
X188458066Y-128530292D01*
X188458067Y-128530293D01*
X188605733Y-128722736D01*
X188605739Y-128722743D01*
X188777256Y-128894260D01*
X188777262Y-128894265D01*
X188969711Y-129041936D01*
X189179788Y-129163224D01*
X189403900Y-129256054D01*
X189638211Y-129318838D01*
X189818586Y-129342584D01*
X189878711Y-129350500D01*
X189878712Y-129350500D01*
X190121289Y-129350500D01*
X190169388Y-129344167D01*
X190361789Y-129318838D01*
X190596100Y-129256054D01*
X190820212Y-129163224D01*
X191030289Y-129041936D01*
X191222738Y-128894265D01*
X191394265Y-128722738D01*
X191541936Y-128530289D01*
X191663224Y-128320212D01*
X191756054Y-128096100D01*
X191818838Y-127861789D01*
X191850500Y-127621288D01*
X191850500Y-127378712D01*
X191818838Y-127138211D01*
X191756054Y-126903900D01*
X191663224Y-126679788D01*
X191541936Y-126469711D01*
X191394265Y-126277262D01*
X191394260Y-126277256D01*
X191222743Y-126105739D01*
X191222736Y-126105733D01*
X191030293Y-125958067D01*
X191030292Y-125958066D01*
X191030289Y-125958064D01*
X190820212Y-125836776D01*
X190820205Y-125836773D01*
X190596104Y-125743947D01*
X190361785Y-125681161D01*
X190121289Y-125649500D01*
X190121288Y-125649500D01*
X189878712Y-125649500D01*
X189878711Y-125649500D01*
X189638214Y-125681161D01*
X189403895Y-125743947D01*
X189179794Y-125836773D01*
X189179785Y-125836777D01*
X188969706Y-125958067D01*
X188777263Y-126105733D01*
X188777256Y-126105739D01*
X188605739Y-126277256D01*
X188605733Y-126277263D01*
X188458067Y-126469706D01*
X188336777Y-126679785D01*
X188336773Y-126679794D01*
X188243947Y-126903895D01*
X188181161Y-127138214D01*
X188149500Y-127378711D01*
X93850500Y-127378711D01*
X93818838Y-127138211D01*
X93756054Y-126903900D01*
X93663224Y-126679788D01*
X93541936Y-126469711D01*
X93394265Y-126277262D01*
X93394260Y-126277256D01*
X93222743Y-126105739D01*
X93222736Y-126105733D01*
X93030293Y-125958067D01*
X93030292Y-125958066D01*
X93030289Y-125958064D01*
X92820212Y-125836776D01*
X92820205Y-125836773D01*
X92596104Y-125743947D01*
X92361785Y-125681161D01*
X92121289Y-125649500D01*
X92121288Y-125649500D01*
X91878712Y-125649500D01*
X91878711Y-125649500D01*
X91638214Y-125681161D01*
X91403895Y-125743947D01*
X91179794Y-125836773D01*
X91179785Y-125836777D01*
X90969706Y-125958067D01*
X90777263Y-126105733D01*
X90777256Y-126105739D01*
X90605739Y-126277256D01*
X90605733Y-126277263D01*
X90458067Y-126469706D01*
X90336777Y-126679785D01*
X90336773Y-126679794D01*
X90243946Y-126903897D01*
X90243774Y-126904542D01*
X90243669Y-126904713D01*
X90242643Y-126907738D01*
X90241965Y-126907508D01*
X90207407Y-126964202D01*
X90144559Y-126994729D01*
X90075184Y-126986432D01*
X90021307Y-126941945D01*
X90000035Y-126875392D01*
X90000000Y-126872445D01*
X90000000Y-118224038D01*
X97939500Y-118224038D01*
X97939500Y-118475961D01*
X97978910Y-118724785D01*
X98056760Y-118964383D01*
X98096926Y-119043212D01*
X98156324Y-119159787D01*
X98171132Y-119188848D01*
X98319201Y-119392649D01*
X98319205Y-119392654D01*
X98497345Y-119570794D01*
X98497350Y-119570798D01*
X98616024Y-119657019D01*
X98701155Y-119718870D01*
X98844184Y-119791747D01*
X98925616Y-119833239D01*
X98925618Y-119833239D01*
X98925621Y-119833241D01*
X99165215Y-119911090D01*
X99414038Y-119950500D01*
X99414039Y-119950500D01*
X99665961Y-119950500D01*
X99665962Y-119950500D01*
X99914785Y-119911090D01*
X100154379Y-119833241D01*
X100378845Y-119718870D01*
X100582656Y-119570793D01*
X100760793Y-119392656D01*
X100765380Y-119386341D01*
X100820708Y-119343675D01*
X100890322Y-119337693D01*
X100952118Y-119370296D01*
X100986477Y-119431134D01*
X100988174Y-119478621D01*
X100979500Y-119533389D01*
X100979500Y-119706611D01*
X101006598Y-119877701D01*
X101060127Y-120042445D01*
X101138768Y-120196788D01*
X101240586Y-120336928D01*
X101363072Y-120459414D01*
X101503212Y-120561232D01*
X101657555Y-120639873D01*
X101822299Y-120693402D01*
X101993389Y-120720500D01*
X101993390Y-120720500D01*
X102166610Y-120720500D01*
X102166611Y-120720500D01*
X102337701Y-120693402D01*
X102502445Y-120639873D01*
X102656788Y-120561232D01*
X102796928Y-120459414D01*
X102919414Y-120336928D01*
X103021232Y-120196788D01*
X103099873Y-120042445D01*
X103153402Y-119877701D01*
X103180500Y-119706611D01*
X103180500Y-119533389D01*
X103153402Y-119362299D01*
X103099873Y-119197555D01*
X103021232Y-119043212D01*
X102919414Y-118903072D01*
X102796928Y-118780586D01*
X102656788Y-118678768D01*
X102502445Y-118600127D01*
X102337701Y-118546598D01*
X102337699Y-118546597D01*
X102337698Y-118546597D01*
X102198180Y-118524500D01*
X102166611Y-118519500D01*
X101993389Y-118519500D01*
X101961820Y-118524500D01*
X101822302Y-118546597D01*
X101657552Y-118600128D01*
X101503211Y-118678768D01*
X101439875Y-118724785D01*
X101363072Y-118780586D01*
X101363070Y-118780588D01*
X101363068Y-118780589D01*
X101311139Y-118832518D01*
X101249816Y-118866002D01*
X101180124Y-118861017D01*
X101124191Y-118819146D01*
X101099775Y-118753681D01*
X101100986Y-118725438D01*
X101101088Y-118724788D01*
X101101090Y-118724785D01*
X101140500Y-118475962D01*
X101140500Y-118224038D01*
X101101090Y-117975215D01*
X101023241Y-117735621D01*
X101023239Y-117735618D01*
X101023239Y-117735616D01*
X100951877Y-117595562D01*
X100908870Y-117511155D01*
X100841599Y-117418564D01*
X100760798Y-117307350D01*
X100760794Y-117307345D01*
X100582654Y-117129205D01*
X100582649Y-117129201D01*
X100378848Y-116981132D01*
X100378847Y-116981131D01*
X100378845Y-116981130D01*
X100308747Y-116945413D01*
X100154383Y-116866760D01*
X99914785Y-116788910D01*
X99804314Y-116771413D01*
X99665962Y-116749500D01*
X99414038Y-116749500D01*
X99289626Y-116769205D01*
X99165214Y-116788910D01*
X98925616Y-116866760D01*
X98701151Y-116981132D01*
X98497350Y-117129201D01*
X98497345Y-117129205D01*
X98319205Y-117307345D01*
X98319201Y-117307350D01*
X98171132Y-117511151D01*
X98056760Y-117735616D01*
X97978910Y-117975214D01*
X97939500Y-118224038D01*
X90000000Y-118224038D01*
X90000000Y-114392486D01*
X99829500Y-114392486D01*
X99829500Y-114687513D01*
X99854818Y-114879815D01*
X99868007Y-114979993D01*
X99888204Y-115055368D01*
X99944361Y-115264951D01*
X99944364Y-115264961D01*
X100057254Y-115537500D01*
X100057258Y-115537510D01*
X100204761Y-115792993D01*
X100384352Y-116027040D01*
X100384358Y-116027047D01*
X100592952Y-116235641D01*
X100592959Y-116235647D01*
X100827006Y-116415238D01*
X101082489Y-116562741D01*
X101082490Y-116562741D01*
X101082493Y-116562743D01*
X101355048Y-116675639D01*
X101640007Y-116751993D01*
X101932494Y-116790500D01*
X101932501Y-116790500D01*
X102227499Y-116790500D01*
X102227506Y-116790500D01*
X102519993Y-116751993D01*
X102804952Y-116675639D01*
X103077507Y-116562743D01*
X103332994Y-116415238D01*
X103567042Y-116235646D01*
X103775646Y-116027042D01*
X103955238Y-115792994D01*
X104102743Y-115537507D01*
X104215639Y-115264952D01*
X104291993Y-114979993D01*
X104330500Y-114687506D01*
X104330500Y-114392494D01*
X104291993Y-114100007D01*
X104215639Y-113815048D01*
X104102743Y-113542493D01*
X104069335Y-113484629D01*
X103955238Y-113287006D01*
X103775647Y-113052959D01*
X103775641Y-113052952D01*
X103567047Y-112844358D01*
X103567040Y-112844352D01*
X103332993Y-112664761D01*
X103077510Y-112517258D01*
X103077500Y-112517254D01*
X102804961Y-112404364D01*
X102804954Y-112404362D01*
X102804952Y-112404361D01*
X102519993Y-112328007D01*
X102471113Y-112321571D01*
X102227513Y-112289500D01*
X102227506Y-112289500D01*
X101932494Y-112289500D01*
X101932486Y-112289500D01*
X101654085Y-112326153D01*
X101640007Y-112328007D01*
X101465861Y-112374669D01*
X101355048Y-112404361D01*
X101355038Y-112404364D01*
X101082499Y-112517254D01*
X101082489Y-112517258D01*
X100827006Y-112664761D01*
X100592959Y-112844352D01*
X100592952Y-112844358D01*
X100384358Y-113052952D01*
X100384352Y-113052959D01*
X100204761Y-113287006D01*
X100057258Y-113542489D01*
X100057254Y-113542499D01*
X99944364Y-113815038D01*
X99944361Y-113815048D01*
X99868008Y-114100004D01*
X99868006Y-114100015D01*
X99829500Y-114392486D01*
X90000000Y-114392486D01*
X90000000Y-111874071D01*
X95400000Y-111874071D01*
X95400000Y-112125928D01*
X95439397Y-112374669D01*
X95517219Y-112614184D01*
X95631557Y-112838583D01*
X95705748Y-112940697D01*
X95705748Y-112940698D01*
X96322421Y-112324024D01*
X96335359Y-112355258D01*
X96417437Y-112478097D01*
X96521903Y-112582563D01*
X96644742Y-112664641D01*
X96675974Y-112677577D01*
X96059300Y-113294250D01*
X96161416Y-113368442D01*
X96385815Y-113482780D01*
X96625330Y-113560602D01*
X96874072Y-113600000D01*
X97125928Y-113600000D01*
X97374669Y-113560602D01*
X97614184Y-113482780D01*
X97838575Y-113368446D01*
X97838581Y-113368442D01*
X97940697Y-113294250D01*
X97940698Y-113294250D01*
X97324025Y-112677578D01*
X97355258Y-112664641D01*
X97478097Y-112582563D01*
X97582563Y-112478097D01*
X97664641Y-112355258D01*
X97677577Y-112324025D01*
X98294250Y-112940698D01*
X98294250Y-112940697D01*
X98368442Y-112838581D01*
X98368446Y-112838575D01*
X98482780Y-112614184D01*
X98560602Y-112374669D01*
X98600000Y-112125928D01*
X98600000Y-111874071D01*
X98560602Y-111625330D01*
X98482780Y-111385815D01*
X98368442Y-111161416D01*
X98294250Y-111059301D01*
X98294250Y-111059300D01*
X97677577Y-111675973D01*
X97664641Y-111644742D01*
X97582563Y-111521903D01*
X97478097Y-111417437D01*
X97355258Y-111335359D01*
X97324024Y-111322421D01*
X97940698Y-110705748D01*
X97838583Y-110631557D01*
X97614184Y-110517219D01*
X97374669Y-110439397D01*
X97125928Y-110400000D01*
X96874072Y-110400000D01*
X96625330Y-110439397D01*
X96385815Y-110517219D01*
X96161413Y-110631559D01*
X96059301Y-110705747D01*
X96059300Y-110705748D01*
X96675974Y-111322421D01*
X96644742Y-111335359D01*
X96521903Y-111417437D01*
X96417437Y-111521903D01*
X96335359Y-111644742D01*
X96322421Y-111675974D01*
X95705748Y-111059300D01*
X95705747Y-111059301D01*
X95631559Y-111161413D01*
X95517219Y-111385815D01*
X95439397Y-111625330D01*
X95400000Y-111874071D01*
X90000000Y-111874071D01*
X90000000Y-109373389D01*
X100979500Y-109373389D01*
X100979500Y-109546611D01*
X101006598Y-109717701D01*
X101060127Y-109882445D01*
X101138768Y-110036788D01*
X101240586Y-110176928D01*
X101363072Y-110299414D01*
X101503212Y-110401232D01*
X101657555Y-110479873D01*
X101822299Y-110533402D01*
X101993389Y-110560500D01*
X101993390Y-110560500D01*
X102166610Y-110560500D01*
X102166611Y-110560500D01*
X102337701Y-110533402D01*
X102502445Y-110479873D01*
X102656788Y-110401232D01*
X102796928Y-110299414D01*
X102919414Y-110176928D01*
X103021232Y-110036788D01*
X103099873Y-109882445D01*
X103153402Y-109717701D01*
X103180500Y-109546611D01*
X103180500Y-109373389D01*
X103153402Y-109202299D01*
X103099873Y-109037555D01*
X103021232Y-108883212D01*
X102919414Y-108743072D01*
X102796928Y-108620586D01*
X102656788Y-108518768D01*
X102502445Y-108440127D01*
X102337701Y-108386598D01*
X102337699Y-108386597D01*
X102337698Y-108386597D01*
X102206271Y-108365781D01*
X102166611Y-108359500D01*
X101993389Y-108359500D01*
X101953728Y-108365781D01*
X101822302Y-108386597D01*
X101657552Y-108440128D01*
X101503211Y-108518768D01*
X101447043Y-108559577D01*
X101363072Y-108620586D01*
X101363070Y-108620588D01*
X101363069Y-108620588D01*
X101240588Y-108743069D01*
X101240588Y-108743070D01*
X101240586Y-108743072D01*
X101221214Y-108769735D01*
X101138768Y-108883211D01*
X101060128Y-109037552D01*
X101006597Y-109202302D01*
X101002434Y-109228587D01*
X100979500Y-109373389D01*
X90000000Y-109373389D01*
X90000000Y-97420943D01*
X129899500Y-97420943D01*
X129899500Y-115420943D01*
X129899500Y-115579057D01*
X129915659Y-115639361D01*
X129940423Y-115731783D01*
X129940426Y-115731790D01*
X130019475Y-115868709D01*
X130019479Y-115868714D01*
X130019480Y-115868716D01*
X130131284Y-115980520D01*
X130131286Y-115980521D01*
X130131290Y-115980524D01*
X130268209Y-116059573D01*
X130268216Y-116059577D01*
X130420943Y-116100500D01*
X132172665Y-116100500D01*
X132239704Y-116120185D01*
X132283150Y-116168206D01*
X132300211Y-116201692D01*
X132324881Y-116235647D01*
X132417019Y-116362464D01*
X132557536Y-116502981D01*
X132718306Y-116619787D01*
X132875332Y-116699796D01*
X132926127Y-116747769D01*
X132942922Y-116815590D01*
X132920385Y-116881725D01*
X132875332Y-116920764D01*
X132718566Y-117000641D01*
X132681283Y-117027729D01*
X132681282Y-117027730D01*
X133295906Y-117642352D01*
X133208429Y-117665792D01*
X133107070Y-117724311D01*
X133024311Y-117807070D01*
X132965792Y-117908429D01*
X132942352Y-117995905D01*
X132327730Y-117381282D01*
X132327729Y-117381283D01*
X132300643Y-117418564D01*
X132210457Y-117595562D01*
X132149075Y-117784476D01*
X132149075Y-117784479D01*
X132118000Y-117980678D01*
X132118000Y-118179321D01*
X132149075Y-118375520D01*
X132149075Y-118375523D01*
X132210457Y-118564437D01*
X132300641Y-118741432D01*
X132327730Y-118778715D01*
X132327731Y-118778716D01*
X132942352Y-118164094D01*
X132965792Y-118251571D01*
X133024311Y-118352930D01*
X133107070Y-118435689D01*
X133208429Y-118494208D01*
X133295905Y-118517647D01*
X132681283Y-119132268D01*
X132681283Y-119132269D01*
X132718567Y-119159358D01*
X132875331Y-119239234D01*
X132926127Y-119287209D01*
X132942922Y-119355030D01*
X132920384Y-119421165D01*
X132875331Y-119460204D01*
X132718305Y-119540213D01*
X132557533Y-119657021D01*
X132417021Y-119797533D01*
X132300213Y-119958305D01*
X132209994Y-120135367D01*
X132209993Y-120135370D01*
X132148587Y-120324362D01*
X132127197Y-120459414D01*
X132117500Y-120520639D01*
X132117500Y-120719361D01*
X132133043Y-120817498D01*
X132148587Y-120915637D01*
X132209993Y-121104629D01*
X132209994Y-121104632D01*
X132300213Y-121281694D01*
X132417019Y-121442464D01*
X132557536Y-121582981D01*
X132718306Y-121699787D01*
X132805149Y-121744035D01*
X132895367Y-121790005D01*
X132895370Y-121790006D01*
X132989866Y-121820709D01*
X133084364Y-121851413D01*
X133280639Y-121882500D01*
X133280640Y-121882500D01*
X133479360Y-121882500D01*
X133479361Y-121882500D01*
X133675636Y-121851413D01*
X133864632Y-121790005D01*
X134041694Y-121699787D01*
X134202464Y-121582981D01*
X134342981Y-121442464D01*
X134459787Y-121281694D01*
X134550005Y-121104632D01*
X134611413Y-120915636D01*
X134642500Y-120719361D01*
X134642500Y-120520639D01*
X134611413Y-120324364D01*
X134580709Y-120229866D01*
X134550006Y-120135370D01*
X134550005Y-120135367D01*
X134459786Y-119958305D01*
X134342981Y-119797536D01*
X134202464Y-119657019D01*
X134041694Y-119540213D01*
X133884667Y-119460203D01*
X133833872Y-119412229D01*
X133817077Y-119344408D01*
X133839614Y-119278273D01*
X133884669Y-119239234D01*
X134041422Y-119159364D01*
X134078716Y-119132268D01*
X133464095Y-118517647D01*
X133551571Y-118494208D01*
X133652930Y-118435689D01*
X133735689Y-118352930D01*
X133794208Y-118251571D01*
X133817647Y-118164094D01*
X134432268Y-118778715D01*
X134459362Y-118741425D01*
X134549542Y-118564437D01*
X134610924Y-118375523D01*
X134610924Y-118375520D01*
X134642000Y-118179321D01*
X134642000Y-117980678D01*
X134610924Y-117784479D01*
X134610924Y-117784476D01*
X134549542Y-117595562D01*
X134459358Y-117418567D01*
X134432268Y-117381283D01*
X133817647Y-117995904D01*
X133794208Y-117908429D01*
X133735689Y-117807070D01*
X133652930Y-117724311D01*
X133551571Y-117665792D01*
X133464094Y-117642352D01*
X134078716Y-117027731D01*
X134078715Y-117027730D01*
X134041432Y-117000641D01*
X133884668Y-116920765D01*
X133833872Y-116872790D01*
X133817077Y-116804969D01*
X133839615Y-116738834D01*
X133884667Y-116699796D01*
X134041694Y-116619787D01*
X134202464Y-116502981D01*
X134342981Y-116362464D01*
X134459787Y-116201694D01*
X134550005Y-116024632D01*
X134611413Y-115835636D01*
X134642500Y-115639361D01*
X134642500Y-115440639D01*
X134611413Y-115244364D01*
X134550005Y-115055368D01*
X134550005Y-115055367D01*
X134466281Y-114891051D01*
X134459787Y-114878306D01*
X134342981Y-114717536D01*
X134202464Y-114577019D01*
X134041694Y-114460213D01*
X133885218Y-114380484D01*
X133834423Y-114332510D01*
X133817628Y-114264689D01*
X133840165Y-114198554D01*
X133885218Y-114159515D01*
X134041694Y-114079787D01*
X134202464Y-113962981D01*
X134342981Y-113822464D01*
X134459787Y-113661694D01*
X134550005Y-113484632D01*
X134611413Y-113295636D01*
X134642500Y-113099361D01*
X134642500Y-112900639D01*
X134611413Y-112704364D01*
X134550005Y-112515368D01*
X134550005Y-112515367D01*
X134478315Y-112374669D01*
X134459787Y-112338306D01*
X134342981Y-112177536D01*
X134202464Y-112037019D01*
X134041694Y-111920213D01*
X133885218Y-111840484D01*
X133834423Y-111792510D01*
X133817628Y-111724689D01*
X133840165Y-111658554D01*
X133885218Y-111619515D01*
X134041694Y-111539787D01*
X134202464Y-111422981D01*
X134342981Y-111282464D01*
X134459787Y-111121694D01*
X134550005Y-110944632D01*
X134611413Y-110755636D01*
X134642500Y-110559361D01*
X134642500Y-110360639D01*
X134611413Y-110164364D01*
X134580709Y-110069866D01*
X134550006Y-109975370D01*
X134550005Y-109975367D01*
X134459786Y-109798305D01*
X134401221Y-109717697D01*
X134342981Y-109637536D01*
X134202464Y-109497019D01*
X134041694Y-109380213D01*
X133885218Y-109300484D01*
X133834423Y-109252510D01*
X133817628Y-109184689D01*
X133840165Y-109118554D01*
X133885218Y-109079515D01*
X134041694Y-108999787D01*
X134202464Y-108882981D01*
X134342981Y-108742464D01*
X134459787Y-108581694D01*
X134459789Y-108581689D01*
X134461000Y-108579715D01*
X134461656Y-108579121D01*
X134462651Y-108577752D01*
X134462938Y-108577960D01*
X134512810Y-108532837D01*
X134566730Y-108520500D01*
X135667308Y-108520500D01*
X135729309Y-108537113D01*
X135768215Y-108559577D01*
X135920943Y-108600500D01*
X139740234Y-108600500D01*
X139807273Y-108620185D01*
X139809125Y-108621398D01*
X139940814Y-108709390D01*
X139940827Y-108709397D01*
X140086498Y-108769735D01*
X140086503Y-108769737D01*
X140241153Y-108800499D01*
X140241156Y-108800500D01*
X140241158Y-108800500D01*
X140398844Y-108800500D01*
X140398845Y-108800499D01*
X140553497Y-108769737D01*
X140699179Y-108709394D01*
X140830289Y-108621789D01*
X140941789Y-108510289D01*
X141029394Y-108379179D01*
X141089737Y-108233497D01*
X141120500Y-108078842D01*
X141120500Y-107921158D01*
X141120500Y-107921155D01*
X141120499Y-107921153D01*
X141089738Y-107766510D01*
X141089737Y-107766503D01*
X141030861Y-107624362D01*
X141029397Y-107620827D01*
X141029390Y-107620814D01*
X140941789Y-107489711D01*
X140941786Y-107489707D01*
X140830292Y-107378213D01*
X140830288Y-107378210D01*
X140699185Y-107290609D01*
X140699172Y-107290602D01*
X140553501Y-107230264D01*
X140553489Y-107230261D01*
X140398845Y-107199500D01*
X140398842Y-107199500D01*
X140241158Y-107199500D01*
X140241155Y-107199500D01*
X140086510Y-107230261D01*
X140086498Y-107230264D01*
X139940827Y-107290602D01*
X139940814Y-107290609D01*
X139809125Y-107378602D01*
X139742447Y-107399480D01*
X139740234Y-107399500D01*
X136252693Y-107399500D01*
X136190692Y-107382886D01*
X136176165Y-107374498D01*
X136176165Y-107374499D01*
X136151785Y-107360423D01*
X135999057Y-107319499D01*
X135840943Y-107319499D01*
X135833347Y-107319499D01*
X135833331Y-107319500D01*
X134566730Y-107319500D01*
X134499691Y-107299815D01*
X134462808Y-107262133D01*
X134462651Y-107262248D01*
X134461872Y-107261176D01*
X134461000Y-107260285D01*
X134459789Y-107258309D01*
X134439413Y-107230264D01*
X134342981Y-107097536D01*
X134202464Y-106957019D01*
X134041694Y-106840213D01*
X133885218Y-106760484D01*
X133834423Y-106712510D01*
X133817628Y-106644689D01*
X133840165Y-106578554D01*
X133885218Y-106539515D01*
X134041694Y-106459787D01*
X134202464Y-106342981D01*
X134342981Y-106202464D01*
X134459787Y-106041694D01*
X134550005Y-105864632D01*
X134611413Y-105675636D01*
X134642500Y-105479361D01*
X134642500Y-105280639D01*
X147357500Y-105280639D01*
X147357500Y-105479360D01*
X147388587Y-105675637D01*
X147449993Y-105864629D01*
X147449994Y-105864632D01*
X147540213Y-106041694D01*
X147657019Y-106202464D01*
X147797536Y-106342981D01*
X147958306Y-106459787D01*
X148076832Y-106520179D01*
X148114780Y-106539515D01*
X148165576Y-106587490D01*
X148182371Y-106655311D01*
X148159833Y-106721446D01*
X148114780Y-106760485D01*
X147958305Y-106840213D01*
X147797533Y-106957021D01*
X147657021Y-107097533D01*
X147540213Y-107258305D01*
X147449994Y-107435367D01*
X147449993Y-107435370D01*
X147388587Y-107624362D01*
X147357500Y-107820639D01*
X147357500Y-108019360D01*
X147388587Y-108215637D01*
X147449993Y-108404629D01*
X147449994Y-108404632D01*
X147508150Y-108518768D01*
X147540213Y-108581694D01*
X147657019Y-108742464D01*
X147797536Y-108882981D01*
X147958306Y-108999787D01*
X148032424Y-109037552D01*
X148114780Y-109079515D01*
X148165576Y-109127490D01*
X148182371Y-109195311D01*
X148159833Y-109261446D01*
X148114780Y-109300485D01*
X147958305Y-109380213D01*
X147797533Y-109497021D01*
X147657021Y-109637533D01*
X147540213Y-109798305D01*
X147449994Y-109975367D01*
X147449993Y-109975370D01*
X147388587Y-110164362D01*
X147367197Y-110299414D01*
X147357500Y-110360639D01*
X147357500Y-110559361D01*
X147368935Y-110631557D01*
X147388587Y-110755637D01*
X147449993Y-110944629D01*
X147449994Y-110944632D01*
X147508422Y-111059301D01*
X147540213Y-111121694D01*
X147657019Y-111282464D01*
X147797536Y-111422981D01*
X147958306Y-111539787D01*
X148076832Y-111600179D01*
X148114780Y-111619515D01*
X148165576Y-111667490D01*
X148182371Y-111735311D01*
X148159833Y-111801446D01*
X148114780Y-111840485D01*
X147958305Y-111920213D01*
X147797533Y-112037021D01*
X147657021Y-112177533D01*
X147540213Y-112338305D01*
X147449994Y-112515367D01*
X147449993Y-112515370D01*
X147388587Y-112704362D01*
X147357500Y-112900639D01*
X147357500Y-113099360D01*
X147388587Y-113295637D01*
X147449993Y-113484629D01*
X147449994Y-113484632D01*
X147508778Y-113600000D01*
X147540213Y-113661694D01*
X147657019Y-113822464D01*
X147797536Y-113962981D01*
X147958306Y-114079787D01*
X147997990Y-114100007D01*
X148114780Y-114159515D01*
X148165576Y-114207490D01*
X148182371Y-114275311D01*
X148159833Y-114341446D01*
X148114780Y-114380485D01*
X147958305Y-114460213D01*
X147797533Y-114577021D01*
X147657021Y-114717533D01*
X147540213Y-114878305D01*
X147449994Y-115055367D01*
X147449993Y-115055370D01*
X147388587Y-115244362D01*
X147357500Y-115440639D01*
X147357500Y-115639360D01*
X147388587Y-115835637D01*
X147449993Y-116024629D01*
X147449994Y-116024632D01*
X147523150Y-116168206D01*
X147540213Y-116201694D01*
X147657019Y-116362464D01*
X147797536Y-116502981D01*
X147958306Y-116619787D01*
X148067913Y-116675635D01*
X148114780Y-116699515D01*
X148165576Y-116747490D01*
X148182371Y-116815311D01*
X148159833Y-116881446D01*
X148114780Y-116920485D01*
X147958305Y-117000213D01*
X147797533Y-117117021D01*
X147657021Y-117257533D01*
X147540213Y-117418305D01*
X147449994Y-117595367D01*
X147449993Y-117595370D01*
X147388587Y-117784362D01*
X147368937Y-117908429D01*
X147357500Y-117980639D01*
X147357500Y-118179361D01*
X147360747Y-118199861D01*
X147388587Y-118375637D01*
X147449993Y-118564629D01*
X147449994Y-118564632D01*
X147508150Y-118678768D01*
X147540213Y-118741694D01*
X147657019Y-118902464D01*
X147797536Y-119042981D01*
X147958306Y-119159787D01*
X148032424Y-119197552D01*
X148114780Y-119239515D01*
X148165576Y-119287490D01*
X148182371Y-119355311D01*
X148159833Y-119421446D01*
X148114780Y-119460485D01*
X147958305Y-119540213D01*
X147797533Y-119657021D01*
X147657021Y-119797533D01*
X147540213Y-119958305D01*
X147449994Y-120135367D01*
X147449993Y-120135370D01*
X147388587Y-120324362D01*
X147367197Y-120459414D01*
X147357500Y-120520639D01*
X147357500Y-120719361D01*
X147373043Y-120817498D01*
X147388587Y-120915637D01*
X147449993Y-121104629D01*
X147449994Y-121104632D01*
X147540213Y-121281694D01*
X147657019Y-121442464D01*
X147797536Y-121582981D01*
X147958306Y-121699787D01*
X148045149Y-121744035D01*
X148135367Y-121790005D01*
X148135370Y-121790006D01*
X148229866Y-121820709D01*
X148324364Y-121851413D01*
X148520639Y-121882500D01*
X148520640Y-121882500D01*
X148719360Y-121882500D01*
X148719361Y-121882500D01*
X148915636Y-121851413D01*
X149104632Y-121790005D01*
X149281694Y-121699787D01*
X149442464Y-121582981D01*
X149582981Y-121442464D01*
X149699787Y-121281694D01*
X149790005Y-121104632D01*
X149851413Y-120915636D01*
X149882500Y-120719361D01*
X149882500Y-120520639D01*
X149851413Y-120324364D01*
X149820709Y-120229866D01*
X149790006Y-120135370D01*
X149790005Y-120135367D01*
X149699786Y-119958305D01*
X149582981Y-119797536D01*
X149442464Y-119657019D01*
X149281694Y-119540213D01*
X149125218Y-119460484D01*
X149074423Y-119412510D01*
X149057628Y-119344689D01*
X149080165Y-119278554D01*
X149125218Y-119239515D01*
X149281694Y-119159787D01*
X149442464Y-119042981D01*
X149582981Y-118902464D01*
X149699787Y-118741694D01*
X149790005Y-118564632D01*
X149851413Y-118375636D01*
X149875424Y-118224038D01*
X175939500Y-118224038D01*
X175939500Y-118475961D01*
X175978910Y-118724785D01*
X176056760Y-118964383D01*
X176096926Y-119043212D01*
X176156324Y-119159787D01*
X176171132Y-119188848D01*
X176319201Y-119392649D01*
X176319205Y-119392654D01*
X176497345Y-119570794D01*
X176497350Y-119570798D01*
X176616024Y-119657019D01*
X176701155Y-119718870D01*
X176844184Y-119791747D01*
X176925616Y-119833239D01*
X176925618Y-119833239D01*
X176925621Y-119833241D01*
X177165215Y-119911090D01*
X177414038Y-119950500D01*
X177414039Y-119950500D01*
X177665961Y-119950500D01*
X177665962Y-119950500D01*
X177914785Y-119911090D01*
X178154379Y-119833241D01*
X178378845Y-119718870D01*
X178582656Y-119570793D01*
X178760793Y-119392656D01*
X178765380Y-119386341D01*
X178820708Y-119343675D01*
X178890322Y-119337693D01*
X178952118Y-119370296D01*
X178986477Y-119431134D01*
X178988174Y-119478621D01*
X178979500Y-119533389D01*
X178979500Y-119706611D01*
X179006598Y-119877701D01*
X179060127Y-120042445D01*
X179138768Y-120196788D01*
X179240586Y-120336928D01*
X179363072Y-120459414D01*
X179503212Y-120561232D01*
X179657555Y-120639873D01*
X179822299Y-120693402D01*
X179993389Y-120720500D01*
X179993390Y-120720500D01*
X180166610Y-120720500D01*
X180166611Y-120720500D01*
X180337701Y-120693402D01*
X180502445Y-120639873D01*
X180656788Y-120561232D01*
X180796928Y-120459414D01*
X180919414Y-120336928D01*
X181021232Y-120196788D01*
X181099873Y-120042445D01*
X181153402Y-119877701D01*
X181180500Y-119706611D01*
X181180500Y-119533389D01*
X181153402Y-119362299D01*
X181099873Y-119197555D01*
X181021232Y-119043212D01*
X180919414Y-118903072D01*
X180796928Y-118780586D01*
X180656788Y-118678768D01*
X180502445Y-118600127D01*
X180337701Y-118546598D01*
X180337699Y-118546597D01*
X180337698Y-118546597D01*
X180198180Y-118524500D01*
X180166611Y-118519500D01*
X179993389Y-118519500D01*
X179961820Y-118524500D01*
X179822302Y-118546597D01*
X179657552Y-118600128D01*
X179503211Y-118678768D01*
X179439875Y-118724785D01*
X179363072Y-118780586D01*
X179363070Y-118780588D01*
X179363068Y-118780589D01*
X179311139Y-118832518D01*
X179249816Y-118866002D01*
X179180124Y-118861017D01*
X179124191Y-118819146D01*
X179099775Y-118753681D01*
X179100986Y-118725438D01*
X179101088Y-118724788D01*
X179101090Y-118724785D01*
X179140500Y-118475962D01*
X179140500Y-118224038D01*
X179101090Y-117975215D01*
X179023241Y-117735621D01*
X179023239Y-117735618D01*
X179023239Y-117735616D01*
X178951877Y-117595562D01*
X178908870Y-117511155D01*
X178841599Y-117418564D01*
X178760798Y-117307350D01*
X178760794Y-117307345D01*
X178582654Y-117129205D01*
X178582649Y-117129201D01*
X178378848Y-116981132D01*
X178378847Y-116981131D01*
X178378845Y-116981130D01*
X178308747Y-116945413D01*
X178154383Y-116866760D01*
X177914785Y-116788910D01*
X177804314Y-116771413D01*
X177665962Y-116749500D01*
X177414038Y-116749500D01*
X177289626Y-116769205D01*
X177165214Y-116788910D01*
X176925616Y-116866760D01*
X176701151Y-116981132D01*
X176497350Y-117129201D01*
X176497345Y-117129205D01*
X176319205Y-117307345D01*
X176319201Y-117307350D01*
X176171132Y-117511151D01*
X176056760Y-117735616D01*
X175978910Y-117975214D01*
X175939500Y-118224038D01*
X149875424Y-118224038D01*
X149882500Y-118179361D01*
X149882500Y-117980639D01*
X149851413Y-117784364D01*
X149790005Y-117595368D01*
X149790005Y-117595367D01*
X149744035Y-117505149D01*
X149699787Y-117418306D01*
X149582981Y-117257536D01*
X149442464Y-117117019D01*
X149281694Y-117000213D01*
X149125218Y-116920484D01*
X149074423Y-116872510D01*
X149057628Y-116804689D01*
X149080165Y-116738554D01*
X149125218Y-116699515D01*
X149281694Y-116619787D01*
X149442464Y-116502981D01*
X149582981Y-116362464D01*
X149699787Y-116201694D01*
X149790005Y-116024632D01*
X149851413Y-115835636D01*
X149882500Y-115639361D01*
X149882500Y-115440639D01*
X149851413Y-115244364D01*
X149790005Y-115055368D01*
X149790005Y-115055367D01*
X149706281Y-114891051D01*
X149699787Y-114878306D01*
X149582981Y-114717536D01*
X149442464Y-114577019D01*
X149281694Y-114460213D01*
X149148773Y-114392486D01*
X177829500Y-114392486D01*
X177829500Y-114687513D01*
X177854818Y-114879815D01*
X177868007Y-114979993D01*
X177888204Y-115055368D01*
X177944361Y-115264951D01*
X177944364Y-115264961D01*
X178057254Y-115537500D01*
X178057258Y-115537510D01*
X178204761Y-115792993D01*
X178384352Y-116027040D01*
X178384358Y-116027047D01*
X178592952Y-116235641D01*
X178592959Y-116235647D01*
X178827006Y-116415238D01*
X179082489Y-116562741D01*
X179082490Y-116562741D01*
X179082493Y-116562743D01*
X179355048Y-116675639D01*
X179640007Y-116751993D01*
X179932494Y-116790500D01*
X179932501Y-116790500D01*
X180227499Y-116790500D01*
X180227506Y-116790500D01*
X180519993Y-116751993D01*
X180804952Y-116675639D01*
X181077507Y-116562743D01*
X181332994Y-116415238D01*
X181567042Y-116235646D01*
X181775646Y-116027042D01*
X181955238Y-115792994D01*
X182102743Y-115537507D01*
X182215639Y-115264952D01*
X182291993Y-114979993D01*
X182330500Y-114687506D01*
X182330500Y-114392494D01*
X182291993Y-114100007D01*
X182215639Y-113815048D01*
X182102743Y-113542493D01*
X182069335Y-113484629D01*
X181955238Y-113287006D01*
X181775647Y-113052959D01*
X181775641Y-113052952D01*
X181567047Y-112844358D01*
X181567040Y-112844352D01*
X181332993Y-112664761D01*
X181077510Y-112517258D01*
X181077500Y-112517254D01*
X180804961Y-112404364D01*
X180804954Y-112404362D01*
X180804952Y-112404361D01*
X180519993Y-112328007D01*
X180471113Y-112321571D01*
X180227513Y-112289500D01*
X180227506Y-112289500D01*
X179932494Y-112289500D01*
X179932486Y-112289500D01*
X179654085Y-112326153D01*
X179640007Y-112328007D01*
X179465861Y-112374669D01*
X179355048Y-112404361D01*
X179355038Y-112404364D01*
X179082499Y-112517254D01*
X179082489Y-112517258D01*
X178827006Y-112664761D01*
X178592959Y-112844352D01*
X178592952Y-112844358D01*
X178384358Y-113052952D01*
X178384352Y-113052959D01*
X178204761Y-113287006D01*
X178057258Y-113542489D01*
X178057254Y-113542499D01*
X177944364Y-113815038D01*
X177944361Y-113815048D01*
X177868008Y-114100004D01*
X177868006Y-114100015D01*
X177829500Y-114392486D01*
X149148773Y-114392486D01*
X149123147Y-114379429D01*
X149121114Y-114378295D01*
X149098196Y-114354962D01*
X149074423Y-114332510D01*
X149073843Y-114330170D01*
X149072153Y-114328449D01*
X149065486Y-114296421D01*
X149057628Y-114264689D01*
X149058405Y-114262406D01*
X149057914Y-114260045D01*
X149069617Y-114229506D01*
X149080165Y-114198554D01*
X149082132Y-114196849D01*
X149082917Y-114194802D01*
X149093291Y-114187180D01*
X149125218Y-114159515D01*
X149281694Y-114079787D01*
X149442464Y-113962981D01*
X149582981Y-113822464D01*
X149699787Y-113661694D01*
X149790005Y-113484632D01*
X149851413Y-113295636D01*
X149882500Y-113099361D01*
X149882500Y-112900639D01*
X149851413Y-112704364D01*
X149790005Y-112515368D01*
X149790005Y-112515367D01*
X149718315Y-112374669D01*
X149699787Y-112338306D01*
X149582981Y-112177536D01*
X149442464Y-112037019D01*
X149281694Y-111920213D01*
X149191136Y-111874071D01*
X173400000Y-111874071D01*
X173400000Y-112125928D01*
X173439397Y-112374669D01*
X173517219Y-112614184D01*
X173631557Y-112838583D01*
X173705748Y-112940697D01*
X173705748Y-112940698D01*
X174322421Y-112324024D01*
X174335359Y-112355258D01*
X174417437Y-112478097D01*
X174521903Y-112582563D01*
X174644742Y-112664641D01*
X174675974Y-112677577D01*
X174059300Y-113294250D01*
X174161416Y-113368442D01*
X174385815Y-113482780D01*
X174625330Y-113560602D01*
X174874072Y-113600000D01*
X175125928Y-113600000D01*
X175374669Y-113560602D01*
X175614184Y-113482780D01*
X175838575Y-113368446D01*
X175838581Y-113368442D01*
X175940697Y-113294250D01*
X175940698Y-113294250D01*
X175324025Y-112677578D01*
X175355258Y-112664641D01*
X175478097Y-112582563D01*
X175582563Y-112478097D01*
X175664641Y-112355258D01*
X175677578Y-112324025D01*
X176294250Y-112940698D01*
X176294250Y-112940697D01*
X176368442Y-112838581D01*
X176368446Y-112838575D01*
X176482780Y-112614184D01*
X176560602Y-112374669D01*
X176600000Y-112125928D01*
X176600000Y-111874071D01*
X176560602Y-111625330D01*
X176482780Y-111385815D01*
X176368442Y-111161416D01*
X176294250Y-111059301D01*
X176294250Y-111059300D01*
X175677577Y-111675973D01*
X175664641Y-111644742D01*
X175582563Y-111521903D01*
X175478097Y-111417437D01*
X175355258Y-111335359D01*
X175324024Y-111322421D01*
X175940698Y-110705748D01*
X175838583Y-110631557D01*
X175614184Y-110517219D01*
X175374669Y-110439397D01*
X175125928Y-110400000D01*
X174874072Y-110400000D01*
X174625330Y-110439397D01*
X174385815Y-110517219D01*
X174161413Y-110631559D01*
X174059301Y-110705747D01*
X174059300Y-110705748D01*
X174675974Y-111322421D01*
X174644742Y-111335359D01*
X174521903Y-111417437D01*
X174417437Y-111521903D01*
X174335359Y-111644742D01*
X174322421Y-111675974D01*
X173705748Y-111059300D01*
X173705747Y-111059301D01*
X173631559Y-111161413D01*
X173517219Y-111385815D01*
X173439397Y-111625330D01*
X173400000Y-111874071D01*
X149191136Y-111874071D01*
X149125218Y-111840484D01*
X149074423Y-111792510D01*
X149057628Y-111724689D01*
X149080165Y-111658554D01*
X149125218Y-111619515D01*
X149281694Y-111539787D01*
X149442464Y-111422981D01*
X149582981Y-111282464D01*
X149699787Y-111121694D01*
X149790005Y-110944632D01*
X149851413Y-110755636D01*
X149882500Y-110559361D01*
X149882500Y-110360639D01*
X149851413Y-110164364D01*
X149820709Y-110069866D01*
X149790006Y-109975370D01*
X149790005Y-109975367D01*
X149699786Y-109798305D01*
X149641221Y-109717697D01*
X149582981Y-109637536D01*
X149442464Y-109497019D01*
X149281694Y-109380213D01*
X149268301Y-109373389D01*
X178979500Y-109373389D01*
X178979500Y-109546611D01*
X179006598Y-109717701D01*
X179060127Y-109882445D01*
X179138768Y-110036788D01*
X179240586Y-110176928D01*
X179363072Y-110299414D01*
X179503212Y-110401232D01*
X179657555Y-110479873D01*
X179822299Y-110533402D01*
X179993389Y-110560500D01*
X179993390Y-110560500D01*
X180166610Y-110560500D01*
X180166611Y-110560500D01*
X180337701Y-110533402D01*
X180502445Y-110479873D01*
X180656788Y-110401232D01*
X180796928Y-110299414D01*
X180919414Y-110176928D01*
X181021232Y-110036788D01*
X181099873Y-109882445D01*
X181153402Y-109717701D01*
X181180500Y-109546611D01*
X181180500Y-109373389D01*
X181153402Y-109202299D01*
X181099873Y-109037555D01*
X181021232Y-108883212D01*
X180919414Y-108743072D01*
X180796928Y-108620586D01*
X180656788Y-108518768D01*
X180502445Y-108440127D01*
X180337701Y-108386598D01*
X180337699Y-108386597D01*
X180337698Y-108386597D01*
X180206271Y-108365781D01*
X180166611Y-108359500D01*
X179993389Y-108359500D01*
X179953728Y-108365781D01*
X179822302Y-108386597D01*
X179657552Y-108440128D01*
X179503211Y-108518768D01*
X179447043Y-108559577D01*
X179363072Y-108620586D01*
X179363070Y-108620588D01*
X179363069Y-108620588D01*
X179240588Y-108743069D01*
X179240588Y-108743070D01*
X179240586Y-108743072D01*
X179221214Y-108769735D01*
X179138768Y-108883211D01*
X179060128Y-109037552D01*
X179006597Y-109202302D01*
X179002434Y-109228587D01*
X178979500Y-109373389D01*
X149268301Y-109373389D01*
X149125218Y-109300484D01*
X149074423Y-109252510D01*
X149057628Y-109184689D01*
X149080165Y-109118554D01*
X149125218Y-109079515D01*
X149281694Y-108999787D01*
X149442464Y-108882981D01*
X149582981Y-108742464D01*
X149699787Y-108581694D01*
X149790005Y-108404632D01*
X149851413Y-108215636D01*
X149882500Y-108019361D01*
X149882500Y-107820639D01*
X149851413Y-107624364D01*
X149790005Y-107435368D01*
X149790005Y-107435367D01*
X149730967Y-107319500D01*
X149699787Y-107258306D01*
X149582981Y-107097536D01*
X149442464Y-106957019D01*
X149281694Y-106840213D01*
X149125218Y-106760484D01*
X149074423Y-106712510D01*
X149057628Y-106644689D01*
X149080165Y-106578554D01*
X149125218Y-106539515D01*
X149281694Y-106459787D01*
X149442464Y-106342981D01*
X149582981Y-106202464D01*
X149699787Y-106041694D01*
X149790005Y-105864632D01*
X149851413Y-105675636D01*
X149882500Y-105479361D01*
X149882500Y-105280639D01*
X149851413Y-105084364D01*
X149790005Y-104895368D01*
X149790005Y-104895367D01*
X149699786Y-104718305D01*
X149582981Y-104557536D01*
X149442464Y-104417019D01*
X149281694Y-104300213D01*
X149104632Y-104209994D01*
X149104629Y-104209993D01*
X148915637Y-104148587D01*
X148817498Y-104133043D01*
X148719361Y-104117500D01*
X148520639Y-104117500D01*
X148455214Y-104127862D01*
X148324362Y-104148587D01*
X148135370Y-104209993D01*
X148135367Y-104209994D01*
X147958305Y-104300213D01*
X147797533Y-104417021D01*
X147657021Y-104557533D01*
X147540213Y-104718305D01*
X147449994Y-104895367D01*
X147449993Y-104895370D01*
X147388587Y-105084362D01*
X147357500Y-105280639D01*
X134642500Y-105280639D01*
X134611413Y-105084364D01*
X134550005Y-104895368D01*
X134550005Y-104895367D01*
X134459786Y-104718305D01*
X134342981Y-104557536D01*
X134202464Y-104417019D01*
X134041694Y-104300213D01*
X133864632Y-104209994D01*
X133864629Y-104209993D01*
X133675637Y-104148587D01*
X133577498Y-104133043D01*
X133479361Y-104117500D01*
X133280639Y-104117500D01*
X133215214Y-104127862D01*
X133084362Y-104148587D01*
X132895370Y-104209993D01*
X132895367Y-104209994D01*
X132718305Y-104300213D01*
X132557533Y-104417021D01*
X132417021Y-104557533D01*
X132300213Y-104718305D01*
X132209994Y-104895367D01*
X132209993Y-104895370D01*
X132148587Y-105084362D01*
X132117500Y-105280639D01*
X132117500Y-105479360D01*
X132148587Y-105675637D01*
X132209993Y-105864629D01*
X132209994Y-105864632D01*
X132300213Y-106041694D01*
X132417019Y-106202464D01*
X132557536Y-106342981D01*
X132718306Y-106459787D01*
X132836832Y-106520179D01*
X132874780Y-106539515D01*
X132925576Y-106587490D01*
X132942371Y-106655311D01*
X132919833Y-106721446D01*
X132874780Y-106760485D01*
X132718305Y-106840213D01*
X132557533Y-106957021D01*
X132417021Y-107097533D01*
X132300213Y-107258305D01*
X132209994Y-107435367D01*
X132209993Y-107435370D01*
X132148587Y-107624362D01*
X132117500Y-107820639D01*
X132117500Y-108019360D01*
X132148587Y-108215637D01*
X132209993Y-108404629D01*
X132209994Y-108404632D01*
X132268150Y-108518768D01*
X132300213Y-108581694D01*
X132417019Y-108742464D01*
X132557536Y-108882981D01*
X132718306Y-108999787D01*
X132792424Y-109037552D01*
X132874780Y-109079515D01*
X132925576Y-109127490D01*
X132942371Y-109195311D01*
X132919833Y-109261446D01*
X132874780Y-109300485D01*
X132718305Y-109380213D01*
X132557533Y-109497021D01*
X132417021Y-109637533D01*
X132300213Y-109798305D01*
X132209994Y-109975367D01*
X132209993Y-109975370D01*
X132148587Y-110164362D01*
X132127197Y-110299414D01*
X132117500Y-110360639D01*
X132117500Y-110559361D01*
X132128935Y-110631557D01*
X132148587Y-110755637D01*
X132209993Y-110944629D01*
X132209994Y-110944632D01*
X132268422Y-111059301D01*
X132300213Y-111121694D01*
X132417019Y-111282464D01*
X132557536Y-111422981D01*
X132718306Y-111539787D01*
X132836832Y-111600179D01*
X132874780Y-111619515D01*
X132925576Y-111667490D01*
X132942371Y-111735311D01*
X132919833Y-111801446D01*
X132874780Y-111840485D01*
X132718305Y-111920213D01*
X132557533Y-112037021D01*
X132417021Y-112177533D01*
X132300213Y-112338305D01*
X132209994Y-112515367D01*
X132209993Y-112515370D01*
X132148587Y-112704362D01*
X132117500Y-112900639D01*
X132117500Y-113099360D01*
X132148587Y-113295637D01*
X132209993Y-113484629D01*
X132209994Y-113484632D01*
X132268778Y-113600000D01*
X132300213Y-113661694D01*
X132417019Y-113822464D01*
X132557536Y-113962981D01*
X132718306Y-114079787D01*
X132757990Y-114100007D01*
X132874780Y-114159515D01*
X132925576Y-114207490D01*
X132942371Y-114275311D01*
X132919833Y-114341446D01*
X132874780Y-114380485D01*
X132718305Y-114460213D01*
X132557533Y-114577021D01*
X132417021Y-114717533D01*
X132417021Y-114717534D01*
X132417019Y-114717536D01*
X132374906Y-114775500D01*
X132321951Y-114848386D01*
X132266621Y-114891051D01*
X132221633Y-114899500D01*
X131224500Y-114899500D01*
X131157461Y-114879815D01*
X131111706Y-114827011D01*
X131100500Y-114775500D01*
X131100500Y-98224500D01*
X131120185Y-98157461D01*
X131172989Y-98111706D01*
X131224500Y-98100500D01*
X133413331Y-98100500D01*
X133413347Y-98100501D01*
X133420943Y-98100501D01*
X133586653Y-98100501D01*
X133586669Y-98100500D01*
X134413331Y-98100500D01*
X134413347Y-98100501D01*
X134420943Y-98100501D01*
X134579054Y-98100501D01*
X134579057Y-98100501D01*
X134731785Y-98059577D01*
X134781904Y-98030639D01*
X134868716Y-97980520D01*
X134980520Y-97868716D01*
X134980520Y-97868714D01*
X134990728Y-97858507D01*
X134990730Y-97858504D01*
X135008713Y-97840521D01*
X135008716Y-97840520D01*
X135120520Y-97728716D01*
X135170639Y-97641904D01*
X135199577Y-97591785D01*
X135240501Y-97439057D01*
X135240501Y-97280943D01*
X135240501Y-97273348D01*
X135240500Y-97273330D01*
X135240500Y-94285718D01*
X135260185Y-94218679D01*
X135308207Y-94175233D01*
X135347815Y-94155052D01*
X135347815Y-94155051D01*
X135347816Y-94155051D01*
X135439193Y-94088661D01*
X135519786Y-94030109D01*
X135519788Y-94030106D01*
X135519792Y-94030104D01*
X135670104Y-93879792D01*
X135670106Y-93879788D01*
X135670109Y-93879786D01*
X135795048Y-93707820D01*
X135795047Y-93707820D01*
X135795051Y-93707816D01*
X135799514Y-93699054D01*
X135847488Y-93648259D01*
X135915308Y-93631463D01*
X135981444Y-93653999D01*
X136020486Y-93699056D01*
X136024951Y-93707820D01*
X136149890Y-93879786D01*
X136300213Y-94030109D01*
X136472179Y-94155048D01*
X136472181Y-94155049D01*
X136472184Y-94155051D01*
X136661588Y-94251557D01*
X136863757Y-94317246D01*
X137073713Y-94350500D01*
X137073714Y-94350500D01*
X137286286Y-94350500D01*
X137286287Y-94350500D01*
X137496243Y-94317246D01*
X137698412Y-94251557D01*
X137887816Y-94155051D01*
X137974471Y-94092093D01*
X138059786Y-94030109D01*
X138059788Y-94030106D01*
X138059792Y-94030104D01*
X138210104Y-93879792D01*
X138210106Y-93879788D01*
X138210109Y-93879786D01*
X138335048Y-93707820D01*
X138335047Y-93707820D01*
X138335051Y-93707816D01*
X138339514Y-93699054D01*
X138387488Y-93648259D01*
X138455308Y-93631463D01*
X138521444Y-93653999D01*
X138560486Y-93699056D01*
X138564951Y-93707820D01*
X138689890Y-93879786D01*
X138840213Y-94030109D01*
X139012179Y-94155048D01*
X139012181Y-94155049D01*
X139012184Y-94155051D01*
X139201588Y-94251557D01*
X139403757Y-94317246D01*
X139613713Y-94350500D01*
X139613714Y-94350500D01*
X139826286Y-94350500D01*
X139826287Y-94350500D01*
X140036243Y-94317246D01*
X140238412Y-94251557D01*
X140427816Y-94155051D01*
X140514471Y-94092093D01*
X140599786Y-94030109D01*
X140599788Y-94030106D01*
X140599792Y-94030104D01*
X140750104Y-93879792D01*
X140750106Y-93879788D01*
X140750109Y-93879786D01*
X140875048Y-93707820D01*
X140875047Y-93707820D01*
X140875051Y-93707816D01*
X140879514Y-93699054D01*
X140927488Y-93648259D01*
X140995308Y-93631463D01*
X141061444Y-93653999D01*
X141100486Y-93699056D01*
X141104951Y-93707820D01*
X141229890Y-93879786D01*
X141380213Y-94030109D01*
X141552179Y-94155048D01*
X141552181Y-94155049D01*
X141552184Y-94155051D01*
X141741588Y-94251557D01*
X141943757Y-94317246D01*
X142153713Y-94350500D01*
X142153714Y-94350500D01*
X142366286Y-94350500D01*
X142366287Y-94350500D01*
X142576243Y-94317246D01*
X142778412Y-94251557D01*
X142967816Y-94155051D01*
X143054471Y-94092093D01*
X143139786Y-94030109D01*
X143139788Y-94030106D01*
X143139792Y-94030104D01*
X143290104Y-93879792D01*
X143290106Y-93879788D01*
X143290109Y-93879786D01*
X143415048Y-93707820D01*
X143415047Y-93707820D01*
X143415051Y-93707816D01*
X143419514Y-93699054D01*
X143467488Y-93648259D01*
X143535308Y-93631463D01*
X143601444Y-93653999D01*
X143640486Y-93699056D01*
X143644951Y-93707820D01*
X143769890Y-93879786D01*
X143920213Y-94030109D01*
X144092179Y-94155048D01*
X144092181Y-94155049D01*
X144092184Y-94155051D01*
X144281588Y-94251557D01*
X144483757Y-94317246D01*
X144693713Y-94350500D01*
X144693714Y-94350500D01*
X144906286Y-94350500D01*
X144906287Y-94350500D01*
X145116243Y-94317246D01*
X145318412Y-94251557D01*
X145507816Y-94155051D01*
X145594471Y-94092093D01*
X145679786Y-94030109D01*
X145679788Y-94030106D01*
X145679792Y-94030104D01*
X145830104Y-93879792D01*
X145830106Y-93879788D01*
X145830109Y-93879786D01*
X145955048Y-93707820D01*
X145955047Y-93707820D01*
X145955051Y-93707816D01*
X145959514Y-93699054D01*
X146007488Y-93648259D01*
X146075308Y-93631463D01*
X146141444Y-93653999D01*
X146180486Y-93699056D01*
X146184951Y-93707820D01*
X146309890Y-93879786D01*
X146460213Y-94030109D01*
X146632179Y-94155048D01*
X146632181Y-94155049D01*
X146632184Y-94155051D01*
X146821588Y-94251557D01*
X147023757Y-94317246D01*
X147233713Y-94350500D01*
X147233714Y-94350500D01*
X147446286Y-94350500D01*
X147446287Y-94350500D01*
X147656243Y-94317246D01*
X147858412Y-94251557D01*
X148047816Y-94155051D01*
X148134471Y-94092093D01*
X148219786Y-94030109D01*
X148219788Y-94030106D01*
X148219792Y-94030104D01*
X148370104Y-93879792D01*
X148370106Y-93879788D01*
X148370109Y-93879786D01*
X148495048Y-93707820D01*
X148495047Y-93707820D01*
X148495051Y-93707816D01*
X148499514Y-93699054D01*
X148547488Y-93648259D01*
X148615308Y-93631463D01*
X148681444Y-93653999D01*
X148720486Y-93699056D01*
X148724951Y-93707820D01*
X148849890Y-93879786D01*
X149000213Y-94030109D01*
X149172179Y-94155048D01*
X149172181Y-94155049D01*
X149172184Y-94155051D01*
X149361588Y-94251557D01*
X149563757Y-94317246D01*
X149773713Y-94350500D01*
X149773714Y-94350500D01*
X149986286Y-94350500D01*
X149986287Y-94350500D01*
X150196243Y-94317246D01*
X150398412Y-94251557D01*
X150452421Y-94224038D01*
X175939500Y-94224038D01*
X175939500Y-94475961D01*
X175978910Y-94724785D01*
X176056760Y-94964383D01*
X176171132Y-95188848D01*
X176319201Y-95392649D01*
X176319205Y-95392654D01*
X176497345Y-95570794D01*
X176497350Y-95570798D01*
X176675117Y-95699952D01*
X176701155Y-95718870D01*
X176844184Y-95791747D01*
X176925616Y-95833239D01*
X176925618Y-95833239D01*
X176925621Y-95833241D01*
X177165215Y-95911090D01*
X177414038Y-95950500D01*
X177414039Y-95950500D01*
X177665961Y-95950500D01*
X177665962Y-95950500D01*
X177914785Y-95911090D01*
X178154379Y-95833241D01*
X178378845Y-95718870D01*
X178582656Y-95570793D01*
X178760793Y-95392656D01*
X178765380Y-95386341D01*
X178820708Y-95343675D01*
X178890322Y-95337693D01*
X178952118Y-95370296D01*
X178986477Y-95431134D01*
X178988174Y-95478621D01*
X178979500Y-95533389D01*
X178979500Y-95706611D01*
X179006598Y-95877701D01*
X179060127Y-96042445D01*
X179138768Y-96196788D01*
X179240586Y-96336928D01*
X179363072Y-96459414D01*
X179503212Y-96561232D01*
X179657555Y-96639873D01*
X179822299Y-96693402D01*
X179993389Y-96720500D01*
X179993390Y-96720500D01*
X180166610Y-96720500D01*
X180166611Y-96720500D01*
X180337701Y-96693402D01*
X180502445Y-96639873D01*
X180656788Y-96561232D01*
X180796928Y-96459414D01*
X180919414Y-96336928D01*
X181021232Y-96196788D01*
X181099873Y-96042445D01*
X181153402Y-95877701D01*
X181180500Y-95706611D01*
X181180500Y-95533389D01*
X181153402Y-95362299D01*
X181099873Y-95197555D01*
X181021232Y-95043212D01*
X180919414Y-94903072D01*
X180796928Y-94780586D01*
X180656788Y-94678768D01*
X180502445Y-94600127D01*
X180337701Y-94546598D01*
X180337699Y-94546597D01*
X180337698Y-94546597D01*
X180206271Y-94525781D01*
X180166611Y-94519500D01*
X179993389Y-94519500D01*
X179953728Y-94525781D01*
X179822302Y-94546597D01*
X179657552Y-94600128D01*
X179503211Y-94678768D01*
X179439875Y-94724785D01*
X179363072Y-94780586D01*
X179363070Y-94780588D01*
X179363068Y-94780589D01*
X179311139Y-94832518D01*
X179249816Y-94866002D01*
X179180124Y-94861017D01*
X179124191Y-94819146D01*
X179099775Y-94753681D01*
X179100986Y-94725438D01*
X179101088Y-94724788D01*
X179101090Y-94724785D01*
X179140500Y-94475962D01*
X179140500Y-94224038D01*
X179101090Y-93975215D01*
X179023241Y-93735621D01*
X179023239Y-93735618D01*
X179023239Y-93735616D01*
X178970170Y-93631463D01*
X178908870Y-93511155D01*
X178872903Y-93461650D01*
X178760798Y-93307350D01*
X178760794Y-93307345D01*
X178582654Y-93129205D01*
X178582649Y-93129201D01*
X178378848Y-92981132D01*
X178378847Y-92981131D01*
X178378845Y-92981130D01*
X178286689Y-92934174D01*
X178154383Y-92866760D01*
X177914785Y-92788910D01*
X177665962Y-92749500D01*
X177414038Y-92749500D01*
X177289626Y-92769205D01*
X177165214Y-92788910D01*
X176925616Y-92866760D01*
X176701151Y-92981132D01*
X176497350Y-93129201D01*
X176497345Y-93129205D01*
X176319205Y-93307345D01*
X176319201Y-93307350D01*
X176171132Y-93511151D01*
X176056760Y-93735616D01*
X175978910Y-93975214D01*
X175939500Y-94224038D01*
X150452421Y-94224038D01*
X150587816Y-94155051D01*
X150637647Y-94118847D01*
X150637649Y-94118846D01*
X150759785Y-94030109D01*
X150759783Y-94030109D01*
X150759792Y-94030104D01*
X150910104Y-93879792D01*
X150910106Y-93879788D01*
X150910109Y-93879786D01*
X151035048Y-93707820D01*
X151035047Y-93707820D01*
X151035051Y-93707816D01*
X151131557Y-93518412D01*
X151197246Y-93316243D01*
X151230500Y-93106287D01*
X151230500Y-92893713D01*
X151197246Y-92683757D01*
X151131557Y-92481588D01*
X151035051Y-92292184D01*
X151035049Y-92292181D01*
X151035048Y-92292179D01*
X150910109Y-92120213D01*
X150759786Y-91969890D01*
X150587820Y-91844951D01*
X150398414Y-91748444D01*
X150398413Y-91748443D01*
X150398412Y-91748443D01*
X150196243Y-91682754D01*
X150196241Y-91682753D01*
X150196240Y-91682753D01*
X150034957Y-91657208D01*
X149986287Y-91649500D01*
X149773713Y-91649500D01*
X149725042Y-91657208D01*
X149563760Y-91682753D01*
X149361585Y-91748444D01*
X149172179Y-91844951D01*
X149000213Y-91969890D01*
X148849890Y-92120213D01*
X148724949Y-92292182D01*
X148720484Y-92300946D01*
X148672509Y-92351742D01*
X148604688Y-92368536D01*
X148538553Y-92345998D01*
X148499516Y-92300946D01*
X148495050Y-92292182D01*
X148370109Y-92120213D01*
X148219786Y-91969890D01*
X148047820Y-91844951D01*
X147858414Y-91748444D01*
X147858413Y-91748443D01*
X147858412Y-91748443D01*
X147656243Y-91682754D01*
X147656241Y-91682753D01*
X147656240Y-91682753D01*
X147494957Y-91657208D01*
X147446287Y-91649500D01*
X147233713Y-91649500D01*
X147185042Y-91657208D01*
X147023760Y-91682753D01*
X146821585Y-91748444D01*
X146632179Y-91844951D01*
X146460213Y-91969890D01*
X146309890Y-92120213D01*
X146184949Y-92292182D01*
X146180484Y-92300946D01*
X146132509Y-92351742D01*
X146064688Y-92368536D01*
X145998553Y-92345998D01*
X145959516Y-92300946D01*
X145955050Y-92292182D01*
X145830109Y-92120213D01*
X145679786Y-91969890D01*
X145507820Y-91844951D01*
X145318414Y-91748444D01*
X145318413Y-91748443D01*
X145318412Y-91748443D01*
X145116243Y-91682754D01*
X145116241Y-91682753D01*
X145116240Y-91682753D01*
X144954957Y-91657208D01*
X144906287Y-91649500D01*
X144693713Y-91649500D01*
X144645042Y-91657208D01*
X144483760Y-91682753D01*
X144281585Y-91748444D01*
X144092179Y-91844951D01*
X143920213Y-91969890D01*
X143769890Y-92120213D01*
X143644949Y-92292182D01*
X143640484Y-92300946D01*
X143592509Y-92351742D01*
X143524688Y-92368536D01*
X143458553Y-92345998D01*
X143419516Y-92300946D01*
X143415050Y-92292182D01*
X143290109Y-92120213D01*
X143139786Y-91969890D01*
X142967820Y-91844951D01*
X142778414Y-91748444D01*
X142778413Y-91748443D01*
X142778412Y-91748443D01*
X142576243Y-91682754D01*
X142576241Y-91682753D01*
X142576240Y-91682753D01*
X142414957Y-91657208D01*
X142366287Y-91649500D01*
X142153713Y-91649500D01*
X142105042Y-91657208D01*
X141943760Y-91682753D01*
X141741585Y-91748444D01*
X141552179Y-91844951D01*
X141380213Y-91969890D01*
X141229890Y-92120213D01*
X141104949Y-92292182D01*
X141100484Y-92300946D01*
X141052509Y-92351742D01*
X140984688Y-92368536D01*
X140918553Y-92345998D01*
X140879516Y-92300946D01*
X140875050Y-92292182D01*
X140750109Y-92120213D01*
X140599786Y-91969890D01*
X140427820Y-91844951D01*
X140238414Y-91748444D01*
X140238413Y-91748443D01*
X140238412Y-91748443D01*
X140036243Y-91682754D01*
X140036241Y-91682753D01*
X140036240Y-91682753D01*
X139874957Y-91657208D01*
X139826287Y-91649500D01*
X139613713Y-91649500D01*
X139565042Y-91657208D01*
X139403760Y-91682753D01*
X139201585Y-91748444D01*
X139012179Y-91844951D01*
X138840213Y-91969890D01*
X138689890Y-92120213D01*
X138564949Y-92292182D01*
X138560484Y-92300946D01*
X138512509Y-92351742D01*
X138444688Y-92368536D01*
X138378553Y-92345998D01*
X138339516Y-92300946D01*
X138335050Y-92292182D01*
X138210109Y-92120213D01*
X138059786Y-91969890D01*
X137887820Y-91844951D01*
X137698414Y-91748444D01*
X137698413Y-91748443D01*
X137698412Y-91748443D01*
X137496243Y-91682754D01*
X137496241Y-91682753D01*
X137496240Y-91682753D01*
X137334957Y-91657208D01*
X137286287Y-91649500D01*
X137073713Y-91649500D01*
X137025042Y-91657208D01*
X136863760Y-91682753D01*
X136661585Y-91748444D01*
X136472179Y-91844951D01*
X136300213Y-91969890D01*
X136149890Y-92120213D01*
X136024949Y-92292182D01*
X136020484Y-92300946D01*
X135972509Y-92351742D01*
X135904688Y-92368536D01*
X135838553Y-92345998D01*
X135799516Y-92300946D01*
X135795050Y-92292182D01*
X135670109Y-92120213D01*
X135519786Y-91969890D01*
X135347820Y-91844951D01*
X135158414Y-91748444D01*
X135158413Y-91748443D01*
X135158412Y-91748443D01*
X134956243Y-91682754D01*
X134956241Y-91682753D01*
X134956240Y-91682753D01*
X134794957Y-91657208D01*
X134746287Y-91649500D01*
X134533713Y-91649500D01*
X134485042Y-91657208D01*
X134323760Y-91682753D01*
X134121585Y-91748444D01*
X133932179Y-91844951D01*
X133760215Y-91969889D01*
X133646285Y-92083819D01*
X133584962Y-92117303D01*
X133515270Y-92112319D01*
X133459337Y-92070447D01*
X133442422Y-92039470D01*
X133393354Y-91907913D01*
X133393350Y-91907906D01*
X133307190Y-91792812D01*
X133307187Y-91792809D01*
X133192093Y-91706649D01*
X133192086Y-91706645D01*
X133057379Y-91656403D01*
X133057372Y-91656401D01*
X132997844Y-91650000D01*
X132350000Y-91650000D01*
X132350000Y-92566988D01*
X132292993Y-92534075D01*
X132165826Y-92500000D01*
X132034174Y-92500000D01*
X131907007Y-92534075D01*
X131850000Y-92566988D01*
X131850000Y-91650000D01*
X131202155Y-91650000D01*
X131142627Y-91656401D01*
X131142620Y-91656403D01*
X131007913Y-91706645D01*
X131007906Y-91706649D01*
X130892812Y-91792809D01*
X130892809Y-91792812D01*
X130806649Y-91907906D01*
X130806645Y-91907913D01*
X130756403Y-92042620D01*
X130756401Y-92042627D01*
X130750000Y-92102155D01*
X130750000Y-92750000D01*
X131666988Y-92750000D01*
X131634075Y-92807007D01*
X131600000Y-92934174D01*
X131600000Y-93065826D01*
X131634075Y-93192993D01*
X131666988Y-93250000D01*
X130750000Y-93250000D01*
X130750000Y-93897844D01*
X130756401Y-93957372D01*
X130756403Y-93957379D01*
X130806645Y-94092086D01*
X130806649Y-94092093D01*
X130892809Y-94207187D01*
X130892812Y-94207190D01*
X131007906Y-94293350D01*
X131007913Y-94293354D01*
X131142620Y-94343596D01*
X131142627Y-94343598D01*
X131202155Y-94349999D01*
X131202172Y-94350000D01*
X131850000Y-94350000D01*
X131850000Y-93433012D01*
X131907007Y-93465925D01*
X132034174Y-93500000D01*
X132165826Y-93500000D01*
X132292993Y-93465925D01*
X132350000Y-93433012D01*
X132350000Y-94350000D01*
X132997828Y-94350000D01*
X132997844Y-94349999D01*
X133057372Y-94343598D01*
X133057379Y-94343596D01*
X133192086Y-94293354D01*
X133192093Y-94293350D01*
X133307187Y-94207190D01*
X133307190Y-94207187D01*
X133393350Y-94092093D01*
X133393354Y-94092086D01*
X133442422Y-93960529D01*
X133484293Y-93904595D01*
X133549757Y-93880178D01*
X133618030Y-93895030D01*
X133646285Y-93916181D01*
X133760213Y-94030109D01*
X133932184Y-94155051D01*
X133932184Y-94155052D01*
X133971793Y-94175233D01*
X134022590Y-94223206D01*
X134039500Y-94285718D01*
X134039500Y-96635500D01*
X134019815Y-96702539D01*
X133967011Y-96748294D01*
X133915500Y-96759500D01*
X133726669Y-96759500D01*
X133726653Y-96759499D01*
X133719057Y-96759499D01*
X133560943Y-96759499D01*
X133453587Y-96788265D01*
X133408210Y-96800424D01*
X133408209Y-96800425D01*
X133358096Y-96829359D01*
X133358095Y-96829360D01*
X133279282Y-96874861D01*
X133265381Y-96882888D01*
X133203382Y-96899500D01*
X130420943Y-96899500D01*
X130268216Y-96940423D01*
X130268209Y-96940426D01*
X130131290Y-97019475D01*
X130131282Y-97019481D01*
X130019481Y-97131282D01*
X130019475Y-97131290D01*
X129940426Y-97268209D01*
X129940423Y-97268216D01*
X129899500Y-97420943D01*
X90000000Y-97420943D01*
X90000000Y-94224038D01*
X97939500Y-94224038D01*
X97939500Y-94475961D01*
X97978910Y-94724785D01*
X98056760Y-94964383D01*
X98171132Y-95188848D01*
X98319201Y-95392649D01*
X98319205Y-95392654D01*
X98497345Y-95570794D01*
X98497350Y-95570798D01*
X98675117Y-95699952D01*
X98701155Y-95718870D01*
X98844184Y-95791747D01*
X98925616Y-95833239D01*
X98925618Y-95833239D01*
X98925621Y-95833241D01*
X99165215Y-95911090D01*
X99414038Y-95950500D01*
X99414039Y-95950500D01*
X99665961Y-95950500D01*
X99665962Y-95950500D01*
X99914785Y-95911090D01*
X100154379Y-95833241D01*
X100378845Y-95718870D01*
X100582656Y-95570793D01*
X100760793Y-95392656D01*
X100765380Y-95386341D01*
X100820708Y-95343675D01*
X100890322Y-95337693D01*
X100952118Y-95370296D01*
X100986477Y-95431134D01*
X100988174Y-95478621D01*
X100979500Y-95533389D01*
X100979500Y-95706611D01*
X101006598Y-95877701D01*
X101060127Y-96042445D01*
X101138768Y-96196788D01*
X101240586Y-96336928D01*
X101363072Y-96459414D01*
X101503212Y-96561232D01*
X101657555Y-96639873D01*
X101822299Y-96693402D01*
X101993389Y-96720500D01*
X101993390Y-96720500D01*
X102166610Y-96720500D01*
X102166611Y-96720500D01*
X102337701Y-96693402D01*
X102502445Y-96639873D01*
X102656788Y-96561232D01*
X102796928Y-96459414D01*
X102919414Y-96336928D01*
X103021232Y-96196788D01*
X103099873Y-96042445D01*
X103153402Y-95877701D01*
X103180500Y-95706611D01*
X103180500Y-95533389D01*
X103153402Y-95362299D01*
X103099873Y-95197555D01*
X103021232Y-95043212D01*
X102919414Y-94903072D01*
X102796928Y-94780586D01*
X102656788Y-94678768D01*
X102502445Y-94600127D01*
X102337701Y-94546598D01*
X102337699Y-94546597D01*
X102337698Y-94546597D01*
X102206271Y-94525781D01*
X102166611Y-94519500D01*
X101993389Y-94519500D01*
X101953728Y-94525781D01*
X101822302Y-94546597D01*
X101657552Y-94600128D01*
X101503211Y-94678768D01*
X101439875Y-94724785D01*
X101363072Y-94780586D01*
X101363070Y-94780588D01*
X101363068Y-94780589D01*
X101311139Y-94832518D01*
X101249816Y-94866002D01*
X101180124Y-94861017D01*
X101124191Y-94819146D01*
X101099775Y-94753681D01*
X101100986Y-94725438D01*
X101101088Y-94724788D01*
X101101090Y-94724785D01*
X101140500Y-94475962D01*
X101140500Y-94224038D01*
X101101090Y-93975215D01*
X101023241Y-93735621D01*
X101023239Y-93735618D01*
X101023239Y-93735616D01*
X100970170Y-93631463D01*
X100908870Y-93511155D01*
X100872903Y-93461650D01*
X100760798Y-93307350D01*
X100760794Y-93307345D01*
X100582654Y-93129205D01*
X100582649Y-93129201D01*
X100378848Y-92981132D01*
X100378847Y-92981131D01*
X100378845Y-92981130D01*
X100286689Y-92934174D01*
X100154383Y-92866760D01*
X99914785Y-92788910D01*
X99665962Y-92749500D01*
X99414038Y-92749500D01*
X99289626Y-92769205D01*
X99165214Y-92788910D01*
X98925616Y-92866760D01*
X98701151Y-92981132D01*
X98497350Y-93129201D01*
X98497345Y-93129205D01*
X98319205Y-93307345D01*
X98319201Y-93307350D01*
X98171132Y-93511151D01*
X98056760Y-93735616D01*
X97978910Y-93975214D01*
X97939500Y-94224038D01*
X90000000Y-94224038D01*
X90000000Y-90392486D01*
X99829500Y-90392486D01*
X99829500Y-90687513D01*
X99861571Y-90931113D01*
X99868007Y-90979993D01*
X99868008Y-90979995D01*
X99944361Y-91264951D01*
X99944364Y-91264961D01*
X100057254Y-91537500D01*
X100057258Y-91537509D01*
X100204761Y-91792993D01*
X100384352Y-92027040D01*
X100384358Y-92027047D01*
X100592952Y-92235641D01*
X100592959Y-92235647D01*
X100827006Y-92415238D01*
X101082489Y-92562741D01*
X101082490Y-92562741D01*
X101082493Y-92562743D01*
X101355048Y-92675639D01*
X101640007Y-92751993D01*
X101932494Y-92790500D01*
X101932501Y-92790500D01*
X102227499Y-92790500D01*
X102227506Y-92790500D01*
X102519993Y-92751993D01*
X102804952Y-92675639D01*
X103077507Y-92562743D01*
X103332994Y-92415238D01*
X103567042Y-92235646D01*
X103775646Y-92027042D01*
X103777065Y-92025191D01*
X103778468Y-92023365D01*
X103778468Y-92023364D01*
X103955238Y-91792994D01*
X103980959Y-91748444D01*
X104102742Y-91537509D01*
X104102743Y-91537507D01*
X104215639Y-91264952D01*
X104291993Y-90979993D01*
X104330500Y-90687506D01*
X104330500Y-90392494D01*
X104330499Y-90392486D01*
X177829500Y-90392486D01*
X177829500Y-90687513D01*
X177861571Y-90931113D01*
X177868007Y-90979993D01*
X177868008Y-90979995D01*
X177944361Y-91264951D01*
X177944364Y-91264961D01*
X178057254Y-91537500D01*
X178057258Y-91537509D01*
X178204761Y-91792993D01*
X178384352Y-92027040D01*
X178384358Y-92027047D01*
X178592952Y-92235641D01*
X178592959Y-92235647D01*
X178827006Y-92415238D01*
X179082489Y-92562741D01*
X179082490Y-92562741D01*
X179082493Y-92562743D01*
X179355048Y-92675639D01*
X179640007Y-92751993D01*
X179932494Y-92790500D01*
X179932501Y-92790500D01*
X180227499Y-92790500D01*
X180227506Y-92790500D01*
X180519993Y-92751993D01*
X180804952Y-92675639D01*
X181077507Y-92562743D01*
X181332994Y-92415238D01*
X181567042Y-92235646D01*
X181775646Y-92027042D01*
X181955238Y-91792994D01*
X182102743Y-91537507D01*
X182215639Y-91264952D01*
X182291993Y-90979993D01*
X182330500Y-90687506D01*
X182330500Y-90392494D01*
X182291993Y-90100007D01*
X182215639Y-89815048D01*
X182102743Y-89542493D01*
X181955238Y-89287006D01*
X181775646Y-89052958D01*
X181775641Y-89052952D01*
X181567047Y-88844358D01*
X181567040Y-88844352D01*
X181332993Y-88664761D01*
X181077510Y-88517258D01*
X181077500Y-88517254D01*
X180804961Y-88404364D01*
X180804954Y-88404362D01*
X180804952Y-88404361D01*
X180519993Y-88328007D01*
X180471113Y-88321571D01*
X180227513Y-88289500D01*
X180227506Y-88289500D01*
X179932494Y-88289500D01*
X179932486Y-88289500D01*
X179654085Y-88326153D01*
X179640007Y-88328007D01*
X179465861Y-88374669D01*
X179355048Y-88404361D01*
X179355038Y-88404364D01*
X179082499Y-88517254D01*
X179082489Y-88517258D01*
X178827006Y-88664761D01*
X178592959Y-88844352D01*
X178592952Y-88844358D01*
X178384358Y-89052952D01*
X178384352Y-89052959D01*
X178204761Y-89287006D01*
X178057258Y-89542489D01*
X178057254Y-89542499D01*
X177944364Y-89815038D01*
X177944361Y-89815048D01*
X177868008Y-90100004D01*
X177868006Y-90100015D01*
X177829500Y-90392486D01*
X104330499Y-90392486D01*
X104291993Y-90100007D01*
X104215639Y-89815048D01*
X104102743Y-89542493D01*
X103955238Y-89287006D01*
X103775646Y-89052958D01*
X103775641Y-89052952D01*
X103567047Y-88844358D01*
X103567040Y-88844352D01*
X103332993Y-88664761D01*
X103077510Y-88517258D01*
X103077500Y-88517254D01*
X102804961Y-88404364D01*
X102804954Y-88404362D01*
X102804952Y-88404361D01*
X102519993Y-88328007D01*
X102471113Y-88321571D01*
X102227513Y-88289500D01*
X102227506Y-88289500D01*
X101932494Y-88289500D01*
X101932486Y-88289500D01*
X101654085Y-88326153D01*
X101640007Y-88328007D01*
X101465861Y-88374669D01*
X101355048Y-88404361D01*
X101355038Y-88404364D01*
X101082499Y-88517254D01*
X101082489Y-88517258D01*
X100827006Y-88664761D01*
X100592959Y-88844352D01*
X100592952Y-88844358D01*
X100384358Y-89052952D01*
X100384352Y-89052959D01*
X100204761Y-89287006D01*
X100057258Y-89542489D01*
X100057254Y-89542499D01*
X99944364Y-89815038D01*
X99944361Y-89815048D01*
X99868008Y-90100004D01*
X99868006Y-90100015D01*
X99829500Y-90392486D01*
X90000000Y-90392486D01*
X90000000Y-87874071D01*
X95400000Y-87874071D01*
X95400000Y-88125928D01*
X95439397Y-88374669D01*
X95517219Y-88614184D01*
X95631557Y-88838583D01*
X95705748Y-88940697D01*
X95705748Y-88940698D01*
X96322421Y-88324024D01*
X96335359Y-88355258D01*
X96417437Y-88478097D01*
X96521903Y-88582563D01*
X96644742Y-88664641D01*
X96675974Y-88677577D01*
X96059300Y-89294250D01*
X96161416Y-89368442D01*
X96385815Y-89482780D01*
X96625330Y-89560602D01*
X96874072Y-89600000D01*
X97125928Y-89600000D01*
X97374669Y-89560602D01*
X97614184Y-89482780D01*
X97838575Y-89368446D01*
X97838581Y-89368442D01*
X97940697Y-89294250D01*
X97940698Y-89294250D01*
X97324025Y-88677578D01*
X97355258Y-88664641D01*
X97478097Y-88582563D01*
X97582563Y-88478097D01*
X97664641Y-88355258D01*
X97677577Y-88324025D01*
X98294250Y-88940698D01*
X98294250Y-88940697D01*
X98368442Y-88838581D01*
X98368446Y-88838575D01*
X98482780Y-88614184D01*
X98560602Y-88374669D01*
X98600000Y-88125928D01*
X98600000Y-87874071D01*
X173400000Y-87874071D01*
X173400000Y-88125928D01*
X173439397Y-88374669D01*
X173517219Y-88614184D01*
X173631557Y-88838583D01*
X173705748Y-88940697D01*
X173705748Y-88940698D01*
X174322421Y-88324024D01*
X174335359Y-88355258D01*
X174417437Y-88478097D01*
X174521903Y-88582563D01*
X174644742Y-88664641D01*
X174675974Y-88677577D01*
X174059300Y-89294250D01*
X174161416Y-89368442D01*
X174385815Y-89482780D01*
X174625330Y-89560602D01*
X174874072Y-89600000D01*
X175125928Y-89600000D01*
X175374669Y-89560602D01*
X175614184Y-89482780D01*
X175838575Y-89368446D01*
X175838581Y-89368442D01*
X175940697Y-89294250D01*
X175940698Y-89294250D01*
X175324025Y-88677578D01*
X175355258Y-88664641D01*
X175478097Y-88582563D01*
X175582563Y-88478097D01*
X175664641Y-88355258D01*
X175677578Y-88324025D01*
X176294250Y-88940698D01*
X176294250Y-88940697D01*
X176368442Y-88838581D01*
X176368446Y-88838575D01*
X176482780Y-88614184D01*
X176560602Y-88374669D01*
X176600000Y-88125928D01*
X176600000Y-87874071D01*
X176560602Y-87625330D01*
X176482780Y-87385815D01*
X176368442Y-87161416D01*
X176294250Y-87059301D01*
X176294250Y-87059300D01*
X175677577Y-87675973D01*
X175664641Y-87644742D01*
X175582563Y-87521903D01*
X175478097Y-87417437D01*
X175355258Y-87335359D01*
X175324024Y-87322421D01*
X175940698Y-86705748D01*
X175838583Y-86631557D01*
X175614184Y-86517219D01*
X175374669Y-86439397D01*
X175125928Y-86400000D01*
X174874072Y-86400000D01*
X174625330Y-86439397D01*
X174385815Y-86517219D01*
X174161413Y-86631559D01*
X174059301Y-86705747D01*
X174059300Y-86705748D01*
X174675974Y-87322421D01*
X174644742Y-87335359D01*
X174521903Y-87417437D01*
X174417437Y-87521903D01*
X174335359Y-87644742D01*
X174322421Y-87675974D01*
X173705748Y-87059300D01*
X173705747Y-87059301D01*
X173631559Y-87161413D01*
X173517219Y-87385815D01*
X173439397Y-87625330D01*
X173400000Y-87874071D01*
X98600000Y-87874071D01*
X98560602Y-87625330D01*
X98482780Y-87385815D01*
X98368442Y-87161416D01*
X98294250Y-87059301D01*
X98294250Y-87059300D01*
X97677577Y-87675973D01*
X97664641Y-87644742D01*
X97582563Y-87521903D01*
X97478097Y-87417437D01*
X97355258Y-87335359D01*
X97324024Y-87322421D01*
X97940698Y-86705748D01*
X97838583Y-86631557D01*
X97614184Y-86517219D01*
X97374669Y-86439397D01*
X97125928Y-86400000D01*
X96874072Y-86400000D01*
X96625330Y-86439397D01*
X96385815Y-86517219D01*
X96161413Y-86631559D01*
X96059301Y-86705747D01*
X96059300Y-86705748D01*
X96675974Y-87322421D01*
X96644742Y-87335359D01*
X96521903Y-87417437D01*
X96417437Y-87521903D01*
X96335359Y-87644742D01*
X96322421Y-87675974D01*
X95705748Y-87059300D01*
X95705747Y-87059301D01*
X95631559Y-87161413D01*
X95517219Y-87385815D01*
X95439397Y-87625330D01*
X95400000Y-87874071D01*
X90000000Y-87874071D01*
X90000000Y-85373389D01*
X100979500Y-85373389D01*
X100979500Y-85546611D01*
X101006598Y-85717701D01*
X101060127Y-85882445D01*
X101138768Y-86036788D01*
X101240586Y-86176928D01*
X101363072Y-86299414D01*
X101503212Y-86401232D01*
X101657555Y-86479873D01*
X101822299Y-86533402D01*
X101993389Y-86560500D01*
X101993390Y-86560500D01*
X102166610Y-86560500D01*
X102166611Y-86560500D01*
X102337701Y-86533402D01*
X102502445Y-86479873D01*
X102656788Y-86401232D01*
X102796928Y-86299414D01*
X102919414Y-86176928D01*
X103021232Y-86036788D01*
X103099873Y-85882445D01*
X103153402Y-85717701D01*
X103180500Y-85546611D01*
X103180500Y-85373389D01*
X178979500Y-85373389D01*
X178979500Y-85546611D01*
X179006598Y-85717701D01*
X179060127Y-85882445D01*
X179138768Y-86036788D01*
X179240586Y-86176928D01*
X179363072Y-86299414D01*
X179503212Y-86401232D01*
X179657555Y-86479873D01*
X179822299Y-86533402D01*
X179993389Y-86560500D01*
X179993390Y-86560500D01*
X180166610Y-86560500D01*
X180166611Y-86560500D01*
X180337701Y-86533402D01*
X180502445Y-86479873D01*
X180656788Y-86401232D01*
X180796928Y-86299414D01*
X180919414Y-86176928D01*
X181021232Y-86036788D01*
X181099873Y-85882445D01*
X181153402Y-85717701D01*
X181180500Y-85546611D01*
X181180500Y-85373389D01*
X181153402Y-85202299D01*
X181099873Y-85037555D01*
X181021232Y-84883212D01*
X180919414Y-84743072D01*
X180796928Y-84620586D01*
X180656788Y-84518768D01*
X180502445Y-84440127D01*
X180337701Y-84386598D01*
X180337699Y-84386597D01*
X180337698Y-84386597D01*
X180206271Y-84365781D01*
X180166611Y-84359500D01*
X179993389Y-84359500D01*
X179953728Y-84365781D01*
X179822302Y-84386597D01*
X179657552Y-84440128D01*
X179503211Y-84518768D01*
X179423256Y-84576859D01*
X179363072Y-84620586D01*
X179363070Y-84620588D01*
X179363069Y-84620588D01*
X179240588Y-84743069D01*
X179240588Y-84743070D01*
X179240586Y-84743072D01*
X179196859Y-84803256D01*
X179138768Y-84883211D01*
X179060128Y-85037552D01*
X179006597Y-85202302D01*
X178979500Y-85373389D01*
X103180500Y-85373389D01*
X103153402Y-85202299D01*
X103099873Y-85037555D01*
X103021232Y-84883212D01*
X102919414Y-84743072D01*
X102796928Y-84620586D01*
X102656788Y-84518768D01*
X102502445Y-84440127D01*
X102337701Y-84386598D01*
X102337699Y-84386597D01*
X102337698Y-84386597D01*
X102206271Y-84365781D01*
X102166611Y-84359500D01*
X101993389Y-84359500D01*
X101953728Y-84365781D01*
X101822302Y-84386597D01*
X101657552Y-84440128D01*
X101503211Y-84518768D01*
X101423256Y-84576859D01*
X101363072Y-84620586D01*
X101363070Y-84620588D01*
X101363069Y-84620588D01*
X101240588Y-84743069D01*
X101240588Y-84743070D01*
X101240586Y-84743072D01*
X101196859Y-84803256D01*
X101138768Y-84883211D01*
X101060128Y-85037552D01*
X101006597Y-85202302D01*
X100979500Y-85373389D01*
X90000000Y-85373389D01*
X90000000Y-76952135D01*
X139499500Y-76952135D01*
X139499500Y-79047870D01*
X139499501Y-79047876D01*
X139505908Y-79107483D01*
X139556202Y-79242328D01*
X139556206Y-79242335D01*
X139642452Y-79357544D01*
X139642455Y-79357547D01*
X139757664Y-79443793D01*
X139757671Y-79443797D01*
X139892517Y-79494091D01*
X139892516Y-79494091D01*
X139899444Y-79494835D01*
X139952127Y-79500500D01*
X142047872Y-79500499D01*
X142107483Y-79494091D01*
X142242331Y-79443796D01*
X142357546Y-79357546D01*
X142443796Y-79242331D01*
X142494091Y-79107483D01*
X142500500Y-79047873D01*
X142500499Y-76952128D01*
X142494091Y-76892517D01*
X142443796Y-76757669D01*
X142443795Y-76757668D01*
X142443793Y-76757664D01*
X142357547Y-76642455D01*
X142357544Y-76642452D01*
X142242335Y-76556206D01*
X142242328Y-76556202D01*
X142107482Y-76505908D01*
X142107483Y-76505908D01*
X142047883Y-76499501D01*
X142047881Y-76499500D01*
X142047873Y-76499500D01*
X142047864Y-76499500D01*
X139952129Y-76499500D01*
X139952123Y-76499501D01*
X139892516Y-76505908D01*
X139757671Y-76556202D01*
X139757664Y-76556206D01*
X139642455Y-76642452D01*
X139642452Y-76642455D01*
X139556206Y-76757664D01*
X139556202Y-76757671D01*
X139505908Y-76892517D01*
X139499501Y-76952116D01*
X139499501Y-76952123D01*
X139499500Y-76952135D01*
X90000000Y-76952135D01*
X90000000Y-74127554D01*
X90019685Y-74060515D01*
X90072489Y-74014760D01*
X90141647Y-74004816D01*
X90205203Y-74033841D01*
X90242977Y-74092619D01*
X90243761Y-74095410D01*
X90243946Y-74096100D01*
X90243948Y-74096106D01*
X90336773Y-74320205D01*
X90336776Y-74320212D01*
X90458064Y-74530289D01*
X90458066Y-74530292D01*
X90458067Y-74530293D01*
X90605733Y-74722736D01*
X90605739Y-74722743D01*
X90777256Y-74894260D01*
X90777262Y-74894265D01*
X90969711Y-75041936D01*
X91179788Y-75163224D01*
X91403900Y-75256054D01*
X91638211Y-75318838D01*
X91818586Y-75342584D01*
X91878711Y-75350500D01*
X91878712Y-75350500D01*
X92121289Y-75350500D01*
X92169388Y-75344167D01*
X92361789Y-75318838D01*
X92596100Y-75256054D01*
X92820212Y-75163224D01*
X93030289Y-75041936D01*
X93222738Y-74894265D01*
X93394265Y-74722738D01*
X93541936Y-74530289D01*
X93663224Y-74320212D01*
X93756054Y-74096100D01*
X93818838Y-73861789D01*
X93850500Y-73621288D01*
X93850500Y-73378712D01*
X93850500Y-73378711D01*
X188149500Y-73378711D01*
X188149500Y-73621288D01*
X188181161Y-73861785D01*
X188243947Y-74096104D01*
X188336773Y-74320205D01*
X188336776Y-74320212D01*
X188458064Y-74530289D01*
X188458066Y-74530292D01*
X188458067Y-74530293D01*
X188605733Y-74722736D01*
X188605739Y-74722743D01*
X188777256Y-74894260D01*
X188777262Y-74894265D01*
X188969711Y-75041936D01*
X189179788Y-75163224D01*
X189403900Y-75256054D01*
X189638211Y-75318838D01*
X189818586Y-75342584D01*
X189878711Y-75350500D01*
X189878712Y-75350500D01*
X190121289Y-75350500D01*
X190169388Y-75344167D01*
X190361789Y-75318838D01*
X190596100Y-75256054D01*
X190820212Y-75163224D01*
X191030289Y-75041936D01*
X191222738Y-74894265D01*
X191394265Y-74722738D01*
X191541936Y-74530289D01*
X191663224Y-74320212D01*
X191756054Y-74096100D01*
X191818838Y-73861789D01*
X191850500Y-73621288D01*
X191850500Y-73378712D01*
X191818838Y-73138211D01*
X191756054Y-72903900D01*
X191663224Y-72679788D01*
X191541936Y-72469711D01*
X191394265Y-72277262D01*
X191394260Y-72277256D01*
X191222743Y-72105739D01*
X191222736Y-72105733D01*
X191030293Y-71958067D01*
X191030292Y-71958066D01*
X191030289Y-71958064D01*
X190820212Y-71836776D01*
X190820205Y-71836773D01*
X190596104Y-71743947D01*
X190361785Y-71681161D01*
X190121289Y-71649500D01*
X190121288Y-71649500D01*
X189878712Y-71649500D01*
X189878711Y-71649500D01*
X189638214Y-71681161D01*
X189403895Y-71743947D01*
X189179794Y-71836773D01*
X189179785Y-71836777D01*
X188969706Y-71958067D01*
X188777263Y-72105733D01*
X188777256Y-72105739D01*
X188605739Y-72277256D01*
X188605733Y-72277263D01*
X188458067Y-72469706D01*
X188336777Y-72679785D01*
X188336773Y-72679794D01*
X188243947Y-72903895D01*
X188181161Y-73138214D01*
X188149500Y-73378711D01*
X93850500Y-73378711D01*
X93818838Y-73138211D01*
X93756054Y-72903900D01*
X93663224Y-72679788D01*
X93541936Y-72469711D01*
X93394265Y-72277262D01*
X93394260Y-72277256D01*
X93222743Y-72105739D01*
X93222736Y-72105733D01*
X93030293Y-71958067D01*
X93030292Y-71958066D01*
X93030289Y-71958064D01*
X92820212Y-71836776D01*
X92820205Y-71836773D01*
X92596104Y-71743947D01*
X92574897Y-71738264D01*
X92361789Y-71681162D01*
X92361788Y-71681161D01*
X92361785Y-71681161D01*
X92121289Y-71649500D01*
X92121288Y-71649500D01*
X91878712Y-71649500D01*
X91878711Y-71649500D01*
X91638214Y-71681161D01*
X91403895Y-71743947D01*
X91179794Y-71836773D01*
X91179785Y-71836777D01*
X90969706Y-71958067D01*
X90777263Y-72105733D01*
X90777256Y-72105739D01*
X90605739Y-72277256D01*
X90605733Y-72277263D01*
X90458067Y-72469706D01*
X90336777Y-72679785D01*
X90336773Y-72679794D01*
X90243946Y-72903897D01*
X90243774Y-72904542D01*
X90243669Y-72904713D01*
X90242643Y-72907738D01*
X90241965Y-72907508D01*
X90207407Y-72964202D01*
X90144559Y-72994729D01*
X90075184Y-72986432D01*
X90021307Y-72941945D01*
X90000035Y-72875392D01*
X90000000Y-72872445D01*
X90000000Y-70281947D01*
X139500000Y-70281947D01*
X139500000Y-70518052D01*
X139536934Y-70751247D01*
X139609897Y-70975802D01*
X139717087Y-71186174D01*
X139777338Y-71269104D01*
X139777340Y-71269105D01*
X140517037Y-70529408D01*
X140534075Y-70592993D01*
X140599901Y-70707007D01*
X140692993Y-70800099D01*
X140807007Y-70865925D01*
X140870590Y-70882962D01*
X140130893Y-71622658D01*
X140213828Y-71682914D01*
X140424197Y-71790102D01*
X140648752Y-71863065D01*
X140648751Y-71863065D01*
X140881948Y-71900000D01*
X141118052Y-71900000D01*
X141351247Y-71863065D01*
X141575802Y-71790102D01*
X141786163Y-71682918D01*
X141786169Y-71682914D01*
X141869104Y-71622658D01*
X141869105Y-71622658D01*
X141129408Y-70882962D01*
X141192993Y-70865925D01*
X141307007Y-70800099D01*
X141400099Y-70707007D01*
X141465925Y-70592993D01*
X141482962Y-70529408D01*
X142222658Y-71269105D01*
X142222658Y-71269104D01*
X142282914Y-71186169D01*
X142282918Y-71186163D01*
X142390102Y-70975802D01*
X142463065Y-70751247D01*
X142500000Y-70518052D01*
X142500000Y-70281947D01*
X142463065Y-70048752D01*
X142390102Y-69824197D01*
X142282914Y-69613828D01*
X142222658Y-69530894D01*
X142222658Y-69530893D01*
X141482962Y-70270590D01*
X141465925Y-70207007D01*
X141400099Y-70092993D01*
X141307007Y-69999901D01*
X141192993Y-69934075D01*
X141129409Y-69917037D01*
X141869105Y-69177340D01*
X141869104Y-69177338D01*
X141786174Y-69117087D01*
X141575802Y-69009897D01*
X141351247Y-68936934D01*
X141351248Y-68936934D01*
X141118052Y-68900000D01*
X140881948Y-68900000D01*
X140648752Y-68936934D01*
X140424197Y-69009897D01*
X140213830Y-69117084D01*
X140130894Y-69177340D01*
X140870591Y-69917037D01*
X140807007Y-69934075D01*
X140692993Y-69999901D01*
X140599901Y-70092993D01*
X140534075Y-70207007D01*
X140517037Y-70270590D01*
X139777340Y-69530894D01*
X139717084Y-69613830D01*
X139609897Y-69824197D01*
X139536934Y-70048752D01*
X139500000Y-70281947D01*
X90000000Y-70281947D01*
X90000000Y-67624000D01*
X90019685Y-67556961D01*
X90072489Y-67511206D01*
X90124000Y-67500000D01*
X192376000Y-67500000D01*
X192443039Y-67519685D01*
G37*
%TD.AperFunction*%
%TD*%
M02*
