%TF.GenerationSoftware,KiCad,Pcbnew,10.0.6*%
%TF.CreationDate,2026-09-25T22:11:19-05:00*%
%TF.ProjectId,YourClock,596f7572-436c-46f6-936b-2e6b69636164,rev?*%
%TF.SameCoordinates,Original*%
%TF.FileFunction,Legend,Top*%
%TF.FilePolarity,Positive*%
%FSLAX46Y46*%
G04 Gerber Fmt 4.6, Leading zero omitted, Abs format (unit mm)*
G04 Created by KiCad (PCBNEW 10.0.6) date 2026-09-25 22:11:19*
%MOMM*%
%LPD*%
G01*
G04 APERTURE LIST*
%ADD10C,0.150000*%
%ADD11C,0.101600*%
%ADD12C,0.120000*%
%ADD13C,0.127000*%
%ADD14C,0.100000*%
%ADD15C,0.504000*%
G04 APERTURE END LIST*
D10*
X94613200Y-115873332D02*
X94660819Y-115730475D01*
X94660819Y-115730475D02*
X94660819Y-115492380D01*
X94660819Y-115492380D02*
X94613200Y-115397142D01*
X94613200Y-115397142D02*
X94565580Y-115349523D01*
X94565580Y-115349523D02*
X94470342Y-115301904D01*
X94470342Y-115301904D02*
X94375104Y-115301904D01*
X94375104Y-115301904D02*
X94279866Y-115349523D01*
X94279866Y-115349523D02*
X94232247Y-115397142D01*
X94232247Y-115397142D02*
X94184628Y-115492380D01*
X94184628Y-115492380D02*
X94137009Y-115682856D01*
X94137009Y-115682856D02*
X94089390Y-115778094D01*
X94089390Y-115778094D02*
X94041771Y-115825713D01*
X94041771Y-115825713D02*
X93946533Y-115873332D01*
X93946533Y-115873332D02*
X93851295Y-115873332D01*
X93851295Y-115873332D02*
X93756057Y-115825713D01*
X93756057Y-115825713D02*
X93708438Y-115778094D01*
X93708438Y-115778094D02*
X93660819Y-115682856D01*
X93660819Y-115682856D02*
X93660819Y-115444761D01*
X93660819Y-115444761D02*
X93708438Y-115301904D01*
X93660819Y-114968570D02*
X94660819Y-114730475D01*
X94660819Y-114730475D02*
X93946533Y-114539999D01*
X93946533Y-114539999D02*
X94660819Y-114349523D01*
X94660819Y-114349523D02*
X93660819Y-114111428D01*
X93756057Y-113778094D02*
X93708438Y-113730475D01*
X93708438Y-113730475D02*
X93660819Y-113635237D01*
X93660819Y-113635237D02*
X93660819Y-113397142D01*
X93660819Y-113397142D02*
X93708438Y-113301904D01*
X93708438Y-113301904D02*
X93756057Y-113254285D01*
X93756057Y-113254285D02*
X93851295Y-113206666D01*
X93851295Y-113206666D02*
X93946533Y-113206666D01*
X93946533Y-113206666D02*
X94089390Y-113254285D01*
X94089390Y-113254285D02*
X94660819Y-113825713D01*
X94660819Y-113825713D02*
X94660819Y-113206666D01*
X172613200Y-115873332D02*
X172660819Y-115730475D01*
X172660819Y-115730475D02*
X172660819Y-115492380D01*
X172660819Y-115492380D02*
X172613200Y-115397142D01*
X172613200Y-115397142D02*
X172565580Y-115349523D01*
X172565580Y-115349523D02*
X172470342Y-115301904D01*
X172470342Y-115301904D02*
X172375104Y-115301904D01*
X172375104Y-115301904D02*
X172279866Y-115349523D01*
X172279866Y-115349523D02*
X172232247Y-115397142D01*
X172232247Y-115397142D02*
X172184628Y-115492380D01*
X172184628Y-115492380D02*
X172137009Y-115682856D01*
X172137009Y-115682856D02*
X172089390Y-115778094D01*
X172089390Y-115778094D02*
X172041771Y-115825713D01*
X172041771Y-115825713D02*
X171946533Y-115873332D01*
X171946533Y-115873332D02*
X171851295Y-115873332D01*
X171851295Y-115873332D02*
X171756057Y-115825713D01*
X171756057Y-115825713D02*
X171708438Y-115778094D01*
X171708438Y-115778094D02*
X171660819Y-115682856D01*
X171660819Y-115682856D02*
X171660819Y-115444761D01*
X171660819Y-115444761D02*
X171708438Y-115301904D01*
X171660819Y-114968570D02*
X172660819Y-114730475D01*
X172660819Y-114730475D02*
X171946533Y-114539999D01*
X171946533Y-114539999D02*
X172660819Y-114349523D01*
X172660819Y-114349523D02*
X171660819Y-114111428D01*
X171660819Y-113825713D02*
X171660819Y-113206666D01*
X171660819Y-113206666D02*
X172041771Y-113539999D01*
X172041771Y-113539999D02*
X172041771Y-113397142D01*
X172041771Y-113397142D02*
X172089390Y-113301904D01*
X172089390Y-113301904D02*
X172137009Y-113254285D01*
X172137009Y-113254285D02*
X172232247Y-113206666D01*
X172232247Y-113206666D02*
X172470342Y-113206666D01*
X172470342Y-113206666D02*
X172565580Y-113254285D01*
X172565580Y-113254285D02*
X172613200Y-113301904D01*
X172613200Y-113301904D02*
X172660819Y-113397142D01*
X172660819Y-113397142D02*
X172660819Y-113682856D01*
X172660819Y-113682856D02*
X172613200Y-113778094D01*
X172613200Y-113778094D02*
X172565580Y-113825713D01*
X128784819Y-93333333D02*
X129499104Y-93333333D01*
X129499104Y-93333333D02*
X129641961Y-93380952D01*
X129641961Y-93380952D02*
X129737200Y-93476190D01*
X129737200Y-93476190D02*
X129784819Y-93619047D01*
X129784819Y-93619047D02*
X129784819Y-93714285D01*
X129784819Y-92333333D02*
X129784819Y-92904761D01*
X129784819Y-92619047D02*
X128784819Y-92619047D01*
X128784819Y-92619047D02*
X128927676Y-92714285D01*
X128927676Y-92714285D02*
X129022914Y-92809523D01*
X129022914Y-92809523D02*
X129070533Y-92904761D01*
X91238095Y-132104819D02*
X91238095Y-131104819D01*
X91238095Y-131581009D02*
X91809523Y-131581009D01*
X91809523Y-132104819D02*
X91809523Y-131104819D01*
X92809523Y-132104819D02*
X92238095Y-132104819D01*
X92523809Y-132104819D02*
X92523809Y-131104819D01*
X92523809Y-131104819D02*
X92428571Y-131247676D01*
X92428571Y-131247676D02*
X92333333Y-131342914D01*
X92333333Y-131342914D02*
X92238095Y-131390533D01*
X189238095Y-78104819D02*
X189238095Y-77104819D01*
X189238095Y-77581009D02*
X189809523Y-77581009D01*
X189809523Y-78104819D02*
X189809523Y-77104819D01*
X190190476Y-77104819D02*
X190809523Y-77104819D01*
X190809523Y-77104819D02*
X190476190Y-77485771D01*
X190476190Y-77485771D02*
X190619047Y-77485771D01*
X190619047Y-77485771D02*
X190714285Y-77533390D01*
X190714285Y-77533390D02*
X190761904Y-77581009D01*
X190761904Y-77581009D02*
X190809523Y-77676247D01*
X190809523Y-77676247D02*
X190809523Y-77914342D01*
X190809523Y-77914342D02*
X190761904Y-78009580D01*
X190761904Y-78009580D02*
X190714285Y-78057200D01*
X190714285Y-78057200D02*
X190619047Y-78104819D01*
X190619047Y-78104819D02*
X190333333Y-78104819D01*
X190333333Y-78104819D02*
X190238095Y-78057200D01*
X190238095Y-78057200D02*
X190190476Y-78009580D01*
X94613200Y-91873332D02*
X94660819Y-91730475D01*
X94660819Y-91730475D02*
X94660819Y-91492380D01*
X94660819Y-91492380D02*
X94613200Y-91397142D01*
X94613200Y-91397142D02*
X94565580Y-91349523D01*
X94565580Y-91349523D02*
X94470342Y-91301904D01*
X94470342Y-91301904D02*
X94375104Y-91301904D01*
X94375104Y-91301904D02*
X94279866Y-91349523D01*
X94279866Y-91349523D02*
X94232247Y-91397142D01*
X94232247Y-91397142D02*
X94184628Y-91492380D01*
X94184628Y-91492380D02*
X94137009Y-91682856D01*
X94137009Y-91682856D02*
X94089390Y-91778094D01*
X94089390Y-91778094D02*
X94041771Y-91825713D01*
X94041771Y-91825713D02*
X93946533Y-91873332D01*
X93946533Y-91873332D02*
X93851295Y-91873332D01*
X93851295Y-91873332D02*
X93756057Y-91825713D01*
X93756057Y-91825713D02*
X93708438Y-91778094D01*
X93708438Y-91778094D02*
X93660819Y-91682856D01*
X93660819Y-91682856D02*
X93660819Y-91444761D01*
X93660819Y-91444761D02*
X93708438Y-91301904D01*
X93660819Y-90968570D02*
X94660819Y-90730475D01*
X94660819Y-90730475D02*
X93946533Y-90539999D01*
X93946533Y-90539999D02*
X94660819Y-90349523D01*
X94660819Y-90349523D02*
X93660819Y-90111428D01*
X94660819Y-89206666D02*
X94660819Y-89778094D01*
X94660819Y-89492380D02*
X93660819Y-89492380D01*
X93660819Y-89492380D02*
X93803676Y-89587618D01*
X93803676Y-89587618D02*
X93898914Y-89682856D01*
X93898914Y-89682856D02*
X93946533Y-89778094D01*
X189238095Y-132104819D02*
X189238095Y-131104819D01*
X189238095Y-131581009D02*
X189809523Y-131581009D01*
X189809523Y-132104819D02*
X189809523Y-131104819D01*
X190714285Y-131438152D02*
X190714285Y-132104819D01*
X190476190Y-131057200D02*
X190238095Y-131771485D01*
X190238095Y-131771485D02*
X190857142Y-131771485D01*
X172613200Y-91873332D02*
X172660819Y-91730475D01*
X172660819Y-91730475D02*
X172660819Y-91492380D01*
X172660819Y-91492380D02*
X172613200Y-91397142D01*
X172613200Y-91397142D02*
X172565580Y-91349523D01*
X172565580Y-91349523D02*
X172470342Y-91301904D01*
X172470342Y-91301904D02*
X172375104Y-91301904D01*
X172375104Y-91301904D02*
X172279866Y-91349523D01*
X172279866Y-91349523D02*
X172232247Y-91397142D01*
X172232247Y-91397142D02*
X172184628Y-91492380D01*
X172184628Y-91492380D02*
X172137009Y-91682856D01*
X172137009Y-91682856D02*
X172089390Y-91778094D01*
X172089390Y-91778094D02*
X172041771Y-91825713D01*
X172041771Y-91825713D02*
X171946533Y-91873332D01*
X171946533Y-91873332D02*
X171851295Y-91873332D01*
X171851295Y-91873332D02*
X171756057Y-91825713D01*
X171756057Y-91825713D02*
X171708438Y-91778094D01*
X171708438Y-91778094D02*
X171660819Y-91682856D01*
X171660819Y-91682856D02*
X171660819Y-91444761D01*
X171660819Y-91444761D02*
X171708438Y-91301904D01*
X171660819Y-90968570D02*
X172660819Y-90730475D01*
X172660819Y-90730475D02*
X171946533Y-90539999D01*
X171946533Y-90539999D02*
X172660819Y-90349523D01*
X172660819Y-90349523D02*
X171660819Y-90111428D01*
X171994152Y-89301904D02*
X172660819Y-89301904D01*
X171613200Y-89539999D02*
X172327485Y-89778094D01*
X172327485Y-89778094D02*
X172327485Y-89159047D01*
D11*
X151621520Y-112241190D02*
X151107473Y-112241190D01*
X151107473Y-112241190D02*
X151046997Y-112271428D01*
X151046997Y-112271428D02*
X151016759Y-112301666D01*
X151016759Y-112301666D02*
X150986520Y-112362142D01*
X150986520Y-112362142D02*
X150986520Y-112483095D01*
X150986520Y-112483095D02*
X151016759Y-112543571D01*
X151016759Y-112543571D02*
X151046997Y-112573809D01*
X151046997Y-112573809D02*
X151107473Y-112604047D01*
X151107473Y-112604047D02*
X151621520Y-112604047D01*
X151561044Y-112876190D02*
X151591282Y-112906428D01*
X151591282Y-112906428D02*
X151621520Y-112966904D01*
X151621520Y-112966904D02*
X151621520Y-113118095D01*
X151621520Y-113118095D02*
X151591282Y-113178571D01*
X151591282Y-113178571D02*
X151561044Y-113208809D01*
X151561044Y-113208809D02*
X151500568Y-113239047D01*
X151500568Y-113239047D02*
X151440092Y-113239047D01*
X151440092Y-113239047D02*
X151349378Y-113208809D01*
X151349378Y-113208809D02*
X150986520Y-112845952D01*
X150986520Y-112845952D02*
X150986520Y-113239047D01*
D10*
X91238095Y-78104819D02*
X91238095Y-77104819D01*
X91238095Y-77581009D02*
X91809523Y-77581009D01*
X91809523Y-78104819D02*
X91809523Y-77104819D01*
X92238095Y-77200057D02*
X92285714Y-77152438D01*
X92285714Y-77152438D02*
X92380952Y-77104819D01*
X92380952Y-77104819D02*
X92619047Y-77104819D01*
X92619047Y-77104819D02*
X92714285Y-77152438D01*
X92714285Y-77152438D02*
X92761904Y-77200057D01*
X92761904Y-77200057D02*
X92809523Y-77295295D01*
X92809523Y-77295295D02*
X92809523Y-77390533D01*
X92809523Y-77390533D02*
X92761904Y-77533390D01*
X92761904Y-77533390D02*
X92190476Y-78104819D01*
X92190476Y-78104819D02*
X92809523Y-78104819D01*
X133731009Y-75080952D02*
X133778628Y-74938095D01*
X133778628Y-74938095D02*
X133826247Y-74890476D01*
X133826247Y-74890476D02*
X133921485Y-74842857D01*
X133921485Y-74842857D02*
X134064342Y-74842857D01*
X134064342Y-74842857D02*
X134159580Y-74890476D01*
X134159580Y-74890476D02*
X134207200Y-74938095D01*
X134207200Y-74938095D02*
X134254819Y-75033333D01*
X134254819Y-75033333D02*
X134254819Y-75414285D01*
X134254819Y-75414285D02*
X133254819Y-75414285D01*
X133254819Y-75414285D02*
X133254819Y-75080952D01*
X133254819Y-75080952D02*
X133302438Y-74985714D01*
X133302438Y-74985714D02*
X133350057Y-74938095D01*
X133350057Y-74938095D02*
X133445295Y-74890476D01*
X133445295Y-74890476D02*
X133540533Y-74890476D01*
X133540533Y-74890476D02*
X133635771Y-74938095D01*
X133635771Y-74938095D02*
X133683390Y-74985714D01*
X133683390Y-74985714D02*
X133731009Y-75080952D01*
X133731009Y-75080952D02*
X133731009Y-75414285D01*
X133254819Y-74509523D02*
X133254819Y-73842857D01*
X133254819Y-73842857D02*
X134254819Y-74509523D01*
X134254819Y-74509523D02*
X134254819Y-73842857D01*
X134254819Y-72938095D02*
X134254819Y-73509523D01*
X134254819Y-73223809D02*
X133254819Y-73223809D01*
X133254819Y-73223809D02*
X133397676Y-73319047D01*
X133397676Y-73319047D02*
X133492914Y-73414285D01*
X133492914Y-73414285D02*
X133540533Y-73509523D01*
X138533866Y-78390951D02*
X138533866Y-77629047D01*
X138914819Y-78009999D02*
X138152914Y-78009999D01*
%TO.C,SW2*%
D12*
X95095000Y-107555000D02*
X109065000Y-107555000D01*
X95095000Y-121525000D02*
X95095000Y-107555000D01*
X109065000Y-107555000D02*
X109065000Y-121525000D01*
X109065000Y-121525000D02*
X95095000Y-121525000D01*
%TO.C,SW3*%
X173095000Y-107555000D02*
X187065000Y-107555000D01*
X173095000Y-121525000D02*
X173095000Y-107555000D01*
X187065000Y-107555000D02*
X187065000Y-121525000D01*
X187065000Y-121525000D02*
X173095000Y-121525000D01*
%TO.C,J1*%
X130770000Y-91670000D02*
X132100000Y-91670000D01*
X130770000Y-93000000D02*
X130770000Y-91670000D01*
X133370000Y-91670000D02*
X151210000Y-91670000D01*
X133370000Y-94330000D02*
X133370000Y-91670000D01*
X133370000Y-94330000D02*
X151210000Y-94330000D01*
X151210000Y-94330000D02*
X151210000Y-91670000D01*
%TO.C,SW1*%
X95095000Y-83555000D02*
X109065000Y-83555000D01*
X95095000Y-97525000D02*
X95095000Y-83555000D01*
X109065000Y-83555000D02*
X109065000Y-97525000D01*
X109065000Y-97525000D02*
X95095000Y-97525000D01*
%TO.C,SW4*%
X173095000Y-83555000D02*
X187065000Y-83555000D01*
X173095000Y-97525000D02*
X173095000Y-83555000D01*
X187065000Y-83555000D02*
X187065000Y-97525000D01*
X187065000Y-97525000D02*
X173095000Y-97525000D01*
%TO.C,U2*%
D13*
X149890000Y-104491000D02*
X149890000Y-121636000D01*
X147985000Y-102586000D02*
X134015000Y-102586000D01*
X145495000Y-123541000D02*
X145491272Y-124551272D01*
X144991272Y-125051000D02*
X136996000Y-125051000D01*
X136496000Y-124551000D02*
X136496000Y-123541000D01*
D14*
X134015000Y-123541000D02*
X147985000Y-123541000D01*
D13*
X134015000Y-123541000D02*
X147985000Y-123541000D01*
X132110000Y-104491000D02*
X132110000Y-121636000D01*
X149890000Y-121636000D02*
G75*
G02*
X147985000Y-123541000I-1905000J0D01*
G01*
X147985000Y-102586000D02*
G75*
G02*
X149890000Y-104491000I-1J-1905001D01*
G01*
X145491272Y-124551272D02*
G75*
G02*
X144991272Y-125050972I-499972J272D01*
G01*
X136996000Y-125051000D02*
G75*
G02*
X136496000Y-124551000I0J500000D01*
G01*
X134015000Y-123541000D02*
G75*
G02*
X132110000Y-121636000I0J1905000D01*
G01*
X132110000Y-104491000D02*
G75*
G02*
X134015000Y-102586000I1905001J-1D01*
G01*
D15*
X150252000Y-123250000D02*
G75*
G02*
X149748000Y-123250000I-252000J0D01*
G01*
X149748000Y-123250000D02*
G75*
G02*
X150252000Y-123250000I252000J0D01*
G01*
X149109000Y-122370000D02*
G75*
G02*
X148605000Y-122370000I-252000J0D01*
G01*
X148605000Y-122370000D02*
G75*
G02*
X149109000Y-122370000I252000J0D01*
G01*
%TO.C,BZ1*%
D12*
X147100000Y-74200000D02*
G75*
G02*
X134900000Y-74200000I-6100000J0D01*
G01*
X134900000Y-74200000D02*
G75*
G02*
X147100000Y-74200000I6100000J0D01*
G01*
%TD*%
M02*
